<?xml version="1.0" encoding="utf-8"?>
<!-- Generator: Adobe Illustrator 19.0.0, SVG Export Plug-In . SVG Version: 6.00 Build 0)  -->
<svg version="1.1" id="Слой_1" xmlns="http://www.w3.org/2000/svg" xmlns:xlink="http://www.w3.org/1999/xlink" x="0px" y="0px"
	 viewBox="75 -75 200 200" style="enable-background:new 75 -75 200 200;" xml:space="preserve">
<style type="text/css">
	.st0{fill:none;stroke:#101010;stroke-width:3;stroke-miterlimit:10;}
	.st0{
		stroke-dasharray: 1000;
    	stroke-dashoffset: 1000;
        animation:draw 3.5s linear forwards .5s;
       
	}
	@keyframes draw {
	to {
    stroke-dashoffset: 0;
    }
</style>
<image style="display:none;overflow:visible;enable-background:new    ;" width="238" height="238" id="XMLID_1_" xlink:href="../../Family_icon.png"  transform="matrix(0.6464 0 0 0.6292 95.8365 -50.4712)">
</image>
<ellipse id="XMLID_2_" class="st0" cx="142" cy="0.2" rx="11.2" ry="11.3"/>
<ellipse id="XMLID_3_" class="st0" cx="179.1" cy="-8.3" rx="12.3" ry="12.5"/>
<ellipse id="XMLID_4_" class="st0" cx="176.7" cy="55.9" rx="9.8" ry="10.2"/>
<ellipse id="XMLID_5_" class="st0" cx="218.4" cy="30.8" rx="10.1" ry="9.9"/>
<path id="XMLID_6_" class="st0" d="M110.8,75.9c-0.2-1.7,0.6-2.2,2.3-6.9c0,0,0.5-1.2,2.2-6.9c2.9-9.7,3.6-20.2,4.6-32.2
	c0.2-2.2,0.3-4.7-0.8-7.9c-1.2-3.6-3-4.8-5.3-8.1c-1.8-2.7-3-6-5.2-12.6c-1.3-3.8-2.9-9-2.9-15c0-1.6,0.1-3.5,1.5-4.7
	c1.3-1.1,3.5-1.4,4.9-0.5c0.5,0.4,0.6,0.7,1.9,3.1c0.9,1.4,1,1.8,1.4,2.5c1.4,2.6,2.1,3.8,4.4,10.2c2.9,8,10.9,13.5,12.3,14.5
	c3.9,2.7,8,4,16.2,6.4c6.6,2,9.9,2.9,13.2,2.8c3.7-0.1,5.9-1,7.6,0.5c1.8,1.6,2.6,5.3,0.6,7.9c-1.6,2-4.1,2.1-4.6,2.2
	c-1.1,0.2-2.8,0.5-4.8,0.8c-8,0.9-9.6,0.1-11,1.5c-2.3,2.1-1.3,6.5-0.1,12.8c0.9,4.1,1.2,6.2,2.3,7.9c0.8,1.1,1.6,2.2,1.5,3.8
	c-0.1,1.2-0.7,1.7-1.2,3.6c-0.4,1.4-0.4,2.7-0.4,3.3c0.3,3.8,4.9,6.7,8,8.6c3.6,2.3,4.9,2.2,5.1,3.3c0.5,2.8-7.3,4-9.6,10.3
	c-1,2.7-0.7,5.6-0.4,8.4c0.5,4,1.5,5.3,1,8.8c-0.2,1.6-0.6,4.5-2.8,5.7c-1,0.6-2.3,0.8-3.4,0.4c-3.3-1-4.6-6.3-5.2-9.1
	c-1.2-5.3-0.3-7.7-2.4-9.5c-1.4-1.2-3.7-1.7-4.8-0.9c-0.9,0.7-0.9,2-0.9,4.3c0,2,0.3,2.3,0.3,4.1c-0.1,1.3-0.1,2.6-0.9,3.9
	c-0.2,0.4-1.6,2.8-3.4,2.9c-2.9,0.2-6-5.1-7.1-9.8c-1-4.3,0.3-5.7-1.4-8.3c-1.3-2-2.5-1.6-6.3-4.5C114,80.8,111.2,78.7,110.8,75.9z"
	/>
<path id="XMLID_7_" class="st0" d="M155.9,60.5c3,1.5,7.5,3.6,13.3,5.1c2.9,0.8,4.2,1.1,6.1,1.2c4.9,0.3,12.3-1.1,16.8-5.5
	c0.4-0.4,2.2-1.7,6-4.3c0.6-0.5,1.4-0.9,2.4-0.9c1.3,0.2,2.3,1.7,2.7,2.8c1,3.6-3.1,7.8-4.4,9c-4.1,4.1-6.5,3.2-8,6.2
	c-1.2,2.4-0.1,3.4,0.3,9.9c0.2,4.7-0.4,4.1-0.6,12.7c-0.1,3.7-0.4,7.3-0.4,11c0,2.9,0.2,5.4-1.5,7.4c-0.4,0.4-1.8,1.9-3.4,1.7
	c-2.2-0.4-3.2-3.7-3.7-5c-0.2-0.6-0.5-1.7-0.6-6.2c-0.1-4.2,0.1-6.1-0.3-6.2c-0.4-0.1-1,1.6-1.4,3.1c-0.6,2.3-0.2,3.4-0.3,6.1
	c0,3.5,0,5.6-1.3,7.1c-1.1,1.3-3.4,2.6-5.1,2c-5.3-1.8-3.8-21.4-3.6-24.2c0.8-9.2,2.7-14.5-0.5-17.3c-1.7-1.5-3.2-0.7-7.5-3.3
	c-0.8-0.5-3.3-2.1-5.7-5.2c-1.4-1.8-2.8-3.7-2.2-5.2C153.4,61,155.1,60.7,155.9,60.5z"/>
<path id="XMLID_8_" class="st0" d="M145,14.5c-0.1-2.5,22.7-6.1,26.6-6.6c9.3-1.4,12.8-1.5,19.4-3.8c3.7-1.2,8.9-3.1,14.6-7.2
	c4.9-3.6,7.3-5.4,9.5-8.3c0.7-0.9,1.9-2.6,4.2-4.2c1.5-1,3.5-2.4,5.8-1.9c2.1,0.5,3.6,2.3,4.3,3.9c1,2.7-0.1,6-2.8,9.9
	c-8.4,12.6-18,11.7-20.9,20.7c-2.1,6.3,0.8,12.8-0.9,13.3c-1.8,0.6-4-7.5-9.8-8.3c-2.2-0.3-4.7,0.5-6.2,2.2
	c-2.3,2.5-1.6,6.2-1.4,7.6c1,6.6,6.8,11.5,10.9,15.1c3.2,2.7,4.4,3,5.6,5.2c1.9,3.3,1.5,6.4,1.4,10.9c0,0.9,0.1,5.6,0.4,15.1
	c0.2,7.2,0.7,14.5,0,22.7c0,0.6-0.4,3.7-2,7.4c-1.1,2.6-2.4,5.2-4.7,5.6c-2.2,0.4-4.6-1.7-5.7-3.6c-1.5-2.6-0.9-4.6-0.5-11.7
	c0.2-3.6,0.4-6.2,0.3-9.3c-0.4-8.7-2.5-10.3-0.8-13.4c0.6-1,2.5-2.7,6.2-6.1c2.1-1.9,2.1-1.8,2.8-2.5c0.6-0.7,4.8-5.6,2.9-9.3
	c-0.9-1.5-2.4-2.2-2.7-2.3c-2.7-0.9-5.4,0.6-8.7,2.5c-3.8,2.2-5.7,4.3-6.3,3.8c-0.6-0.5,1.2-2.5,1.3-6.2c0-1.8-0.4-3.2-0.5-3.6
	c-0.9-2.7-3-5.6-6.1-6.7c-4.4-1.7-7.5,1.5-9.4-0.4c-0.8-0.8-0.5-1.6-0.4-7.9c0-1.2,0-3.1,0-6.9c0-7.2-0.3-8-0.8-8.6
	c-1.5-2.2-4.3-2.4-8.9-2.9C160.6,18.7,145.1,16.5,145,14.5z"/>
<path id="XMLID_9_" class="st0" d="M208.2,53.6c0.8,1.6,1,2.9,1.4,10.2c0.4,8.1,0.5,17.2,0.6,23.6c0,0,0,2.1,0.6,9.3
	c0.1,0.9,0.2,2.9,0.9,5.5c0.7,3,1,4.5,2.4,5.5c1.5,1,4.1,1,5.7-0.1c1.8-1.2,2.3-3.7,2.2-13.5c-0.1-8.8-0.7-14-0.1-14.1
	c0.4-0.1,1.1,2.6,1.5,4.6c1,5.2,0.9,10.6,0.9,11.9c-0.1,2.8-0.4,4.7,0.9,6.4c0.3,0.4,1.2,1.6,2.7,1.8c2.6,0.2,4.9-3.8,5.8-6.1
	c0.9-2.1,0.9-3.5,1-8.3c0.4-7.9,0.5-6.8,0.5-9.1c0.2-15.5-4.4-21.6-0.4-29.3c1.2-2.4,1.3-0.9,4.9-5.8c4.9-6.6,6.3-11.1,8.7-19
	c0.5-1.7,1.1-4.1,0-6.2c-0.6-1-1.9-2.6-3.3-2.5c-2.2,0.1-2.8,3.8-5.7,9.1c-1.4,2.6-4.1,7.2-8.7,10.4c-1.4,0.9-5.5,3.9-10.9,3.8
	c-7.7-0.1-15.5-6.2-19.8-12.1c-1.9-2.7-3.3-5.7-6.1-6c-1.8-0.2-4.1,0.9-5,2.7c-2.4,4.5,4.8,13.4,9.8,18
	C203.4,48.8,206.1,49.2,208.2,53.6z"/>

</svg>
