<?xml version="1.0" encoding="utf-8"?>
<!-- Generator: Adobe Illustrator 19.0.0, SVG Export Plug-In . SVG Version: 6.00 Build 0)  -->
<svg version="1.1" id="Слой_1" xmlns="http://www.w3.org/2000/svg" xmlns:xlink="http://www.w3.org/1999/xlink" x="0px" y="0px"
	 viewBox="0 0 100 100" style="enable-background:new 0 0 100 100;" xml:space="preserve">
<style type="text/css">
	.st0{fill:#F4F2F2;stroke:#050505;stroke-width:2;stroke-miterlimit:10;}
	.st1{fill:#E23737;stroke:#050505;stroke-width:2;stroke-miterlimit:10;}
	.st2{fill:none;stroke:#050505;stroke-width:2;stroke-linejoin:round;stroke-miterlimit:10;}
	.st1{
	animation:drawUp 6.5s ease infinite;
	}
	.st2,.st0{
	animation:ZoomLoop 6.5s ease infinite;
	}
	@keyframes drawUp
	{ 
    0% { 
        -moz-transform: translateY(0px); 
        -ms-transform: translateY(0px); 
        transform: translateY(0px); 
    } 
    50% { 
        -moz-transform: translateY(-18px); 
        -ms-transform: translateY(-18px); 
        transform: translateY(-18px);
    } 

    100%{
    	-moz-transform: translateY(0px); 
        -ms-transform: translateY(0px); 
        transform: translateY(0px);
    }
}
	@keyframes ZoomLoop{
	0%{
		-moz-transform: scale(1.0); 
        -ms-transform: scale(1.0); 
        transform: scale(1.0);
	}
	50%{
		-moz-transform: scale(1.03); 
        -ms-transform: scale(1.03); 
        transform: scale(1.03);
	}
	100%{
		-moz-transform: scale(1.0); 
        -ms-transform: scale(1.0); 
        transform: scale(1.0);
	}
	}
</style>
<path class="st0" d="M69.2,80.9H30.8c-8.1,0-14.6-6.5-14.6-14.6V37.4c0-8.1,6.5-14.6,14.6-14.6h38.5c8.1,0,14.6,6.5,14.6,14.6v28.9
	C83.8,74.4,77.3,80.9,69.2,80.9z"/>
<g>
	<path class="st1" d="M79.8,51.1L38.6,74.5c-1.4,0.8-3.1,0.3-3.9-1.1L19.1,46.1c-0.8-1.4-0.3-3.1,1.1-3.9l41.2-23.5
		c1.4-0.8,3.1-0.3,3.9,1.1l15.6,27.4C81.6,48.6,81.2,50.3,79.8,51.1z"/>
	<line class="st1" x1="67.7" y1="24" x2="21.7" y2="50.5"/>
</g>
<path class="st0" d="M69.2,81.6H30.8c-8.1,0-14.6-6.5-14.6-14.6V46.8c0-8.1,6.5-14.6,14.6-14.6h38.5c8.1,0,14.6,6.5,14.6,14.6v20.3
	C83.8,75.1,77.3,81.6,69.2,81.6z"/>
<path class="st2" d="M83.8,48.6H67.1c-0.6,1.3-1.5,3.6-1.6,6.5c-0.1,3.6,1,6.4,1.6,7.8c5.6,0,11.2,0,16.7,0"/>
<circle class="st2" cx="74.6" cy="55.2" r="4.7"/>
</svg>
 