<?xml version="1.0" encoding="utf-8"?>
<!-- Generator: Adobe Illustrator 21.0.1, SVG Export Plug-In . SVG Version: 6.00 Build 0)  -->
<svg version="1.1" id="Слой_1" xmlns="http://www.w3.org/2000/svg" xmlns:xlink="http://www.w3.org/1999/xlink" x="0px" y="0px"
	 viewBox="0 0 150 150" style="enable-background:new 0 0 150 150;" xml:space="preserve">
<g>
	<path d="M75.2,49.7c9,0,16.3-7.3,16.3-16.3c0-9-7.3-16.3-16.3-16.3c-9,0-16.3,7.3-16.3,16.3C58.9,42.4,66.2,49.7,75.2,49.7z"/>
	<path d="M80.1,52.7c-1.5-0.6-3.2-0.9-4.9-0.9c-1.7,0-3.4,0.3-4.9,0.9C66.1,54,49.9,61,47.6,92c-0.2,2.9,1.9,5.3,4.8,5.6
		c0.1,0,0.3,0,0.4,0c2.7,0,5-2.1,5.2-4.8c0.5-7.1,1.8-12.5,3.5-16.6v16c0,1.1,0.1,2.1,0.4,3.2V139c0,3.3,2.7,6,6,6c3.3,0,6-2.7,6-6
		v-33.1c0.4,0,0.9,0.1,1.4,0.1c0.5,0,0.9,0,1.4-0.1V139c0,3.3,2.7,6,6,6c3.3,0,6-2.7,6-6V95.2c0.2-1,0.4-2.1,0.4-3.2v-16
		c1.6,4.2,2.9,9.6,3.5,16.7c0.2,2.7,2.5,4.8,5.2,4.8c0.1,0,0.3,0,0.4,0c2.9-0.2,5-2.7,4.8-5.6C100.6,61,84.4,54,80.1,52.7z"/>
</g>
</svg>
