<?xml version="1.0" encoding="utf-8"?>
<!-- Generator: Adobe Illustrator 19.0.0, SVG Export Plug-In . SVG Version: 6.00 Build 0)  -->
<svg version="1.1" id="Слой_1" xmlns="http://www.w3.org/2000/svg" xmlns:xlink="http://www.w3.org/1999/xlink" x="0px" y="0px"
	 viewBox="0 0 100 100" style="enable-background:new 0 0 100 100;" xml:space="preserve">
<style type="text/css">
	.st0{fill:#FCFBFA;stroke:#0F0F0F;stroke-miterlimit:10;}
	.st1{fill:#FFFFFF;stroke:#0F0F0F;stroke-miterlimit:10;}
</style>
<path id="XMLID_1_" class="st0" d="M85.9,95.3H13.5c-1.6,0-2.9-1.3-2.9-2.9V7.5c0-1.6,1.3-2.9,2.9-2.9h72.4c1.6,0,2.9,1.3,2.9,2.9
	v84.9C88.8,94,87.5,95.3,85.9,95.3z"/>
<rect id="XMLID_2_" x="42.6" y="27" transform="matrix(0.9836 0.1805 -0.1805 0.9836 10.4116 -9.0663)" class="st1" width="24.8" height="51.4"/>
<rect id="XMLID_3_" x="39.6" y="25.8" transform="matrix(0.9985 5.468273e-002 -5.468273e-002 0.9985 2.8946 -2.7658)" class="st1" width="24.8" height="51.4"/>
<rect id="XMLID_4_" x="34.7" y="23.3" transform="matrix(0.9916 -0.1293 0.1293 0.9916 -5.9308 6.499)" class="st1" width="24.8" height="51.4"/>
</svg>
