<?xml version="1.0" encoding="utf-8"?>
<!-- Generator: Adobe Illustrator 19.0.0, SVG Export Plug-In . SVG Version: 6.00 Build 0)  -->
<svg version="1.1" id="Слой_1" xmlns="http://www.w3.org/2000/svg" xmlns:xlink="http://www.w3.org/1999/xlink" x="0px" y="0px"
	 viewBox="-99 101 100 100" style="enable-background:new -99 101 100 100;" xml:space="preserve">
<style type="text/css">
	.st0{fill:#CE3838;}
	.st1{fill:none;stroke:#EDE83A;stroke-miterlimit:10;}
	.st2{fill:#EDE83A;}
	.st3{fill:none;stroke:#1B1B9B;stroke-miterlimit:10;}
	.st4{fill:#1B1B9B;}
	.st5{font-family:'MyriadPro-Regular';}
	.st6{font-size:12px;}
</style>
<g>
	<path id="XMLID_1_" class="st0" d="M-12.4,199.2h-73.4c-2.1,0-3.9-1.7-3.9-3.9V107c0-2.1,1.7-3.9,3.9-3.9h73.4
		c2.1,0,3.9,1.7,3.9,3.9v88.3C-8.5,197.4-10.2,199.2-12.4,199.2z"/>
	<path id="XMLID_2_" class="st1" d="M-16.5,193.8h-64.9c-1.4,0-2.6-1.2-2.6-2.6v-80.4c0-1.4,1.2-2.6,2.6-2.6h64.9
		c1.4,0,2.6,1.2,2.6,2.6v80.4C-13.8,192.6-15,193.8-16.5,193.8z"/>
	<ellipse id="XMLID_3_" class="st1" cx="-48.7" cy="149" rx="30.4" ry="32.4"/>
	<ellipse id="XMLID_4_" class="st2" cx="-49.1" cy="187" rx="2.3" ry="2.5"/>
	<path id="XMLID_5_" class="st2" d="M-47.2,184.5h4.7v5.1h-4.7c0.9-0.5,1.5-1.5,1.5-2.5C-45.8,185.9-46.3,185-47.2,184.5z"/>
	<path id="XMLID_6_" class="st2" d="M-51,184.5h-4.7v5.1h4.7c-0.9-0.5-1.5-1.5-1.5-2.5C-52.5,185.9-51.9,185-51,184.5z"/>
	<path id="XMLID_7_" class="st3" d="M-75.9,183.5L-75.9,183.5c-5.2-4.2-6-11.8-1.8-17l39.3-48.8c4.2-5.2,11.8-6,17-1.8l0,0
		c5.2,4.2,6,11.8,1.8,17l-39.3,48.8C-63.1,186.8-70.7,187.7-75.9,183.5z"/>
	<text id="XMLID_8_" transform="matrix(0.6244 -0.7811 0.7811 0.6244 -67.8495 179.0296)" class="st4 st5 st6">Аннулирован</text>
</g>
</svg>
