<?xml version="1.0" encoding="utf-8"?>
<!-- Generator: Adobe Illustrator 19.0.0, SVG Export Plug-In . SVG Version: 6.00 Build 0)  -->
<svg version="1.1" id="Слой_1" xmlns="http://www.w3.org/2000/svg" xmlns:xlink="http://www.w3.org/1999/xlink" x="0px" y="0px"
	 viewBox="0 0 100 100" style="enable-background:new 0 0 100 100;" xml:space="preserve">
<style type="text/css">
	.st0{fill:#FCFBFA;stroke:#131314;stroke-miterlimit:10;}
	.st1{fill:#EFF0F4;}
	.st2{font-family:'MyriadPro-Regular';}
	.st3{font-size:10px;}
	.st4{font-size:6px;}
	.st5{fill:none;stroke:#000000;stroke-miterlimit:10;}
</style>
<path id="XMLID_1_" class="st0" d="M85.9,95.8H13.5c-1.6,0-2.9-1.3-2.9-2.9V8c0-1.6,1.3-2.9,2.9-2.9h72.4c1.6,0,2.9,1.3,2.9,2.9
	v84.9C88.8,94.5,87.5,95.8,85.9,95.8z"/>
<path id="XMLID_3_" d="M77.9,21H21.5c-1.3,0-2.4-1.1-2.4-2.4v-5.1c0-1.3,1.1-2.4,2.4-2.4h56.5c1.3,0,2.4,1.1,2.4,2.4v5.1
	C80.3,20,79.2,21,77.9,21z"/>
<text id="XMLID_2_" transform="matrix(1 0 0 1 19.9412 20.0117)" class="st1 st2 st3">RESORT INN</text>
<text id="XMLID_4_" transform="matrix(1 0 0 1 35.2963 29.6567)" class="st2 st4">BOOKING</text>
<line id="XMLID_6_" class="st5" x1="23.8" y1="43.7" x2="23.8" y2="76.9"/>
<line id="XMLID_5_" class="st5" x1="44.4" y1="43.7" x2="44.4" y2="76.9"/>
<path id="XMLID_7_" class="st0" d="M35.3,57.4h-1.7c-3.5,0-6.4-2.9-6.4-6.4v0c0-3.5,2.9-6.4,6.4-6.4h1.7c3.5,0,6.4,2.9,6.4,6.4v0
	C41.7,54.5,38.8,57.4,35.3,57.4z"/>
<line id="XMLID_9_" class="st0" x1="23.8" y1="58.4" x2="29.1" y2="55.5"/>
<line id="XMLID_8_" class="st0" x1="44.4" y1="58.7" x2="39" y2="56.1"/>
<line id="XMLID_10_" class="st0" x1="29.1" y1="46.4" x2="23.3" y2="44.5"/>
<line id="XMLID_11_" class="st0" x1="39.9" y1="46.9" x2="45.2" y2="44"/>
<text id="XMLID_12_" transform="matrix(1 0 0 1 29.8811 52.6688)" class="st2 st4">INN</text>
<rect id="XMLID_13_" x="48.5" y="52.7" class="st0" width="37.9" height="24.2"/>
<rect id="XMLID_14_" x="52.9" y="58.4" class="st0" width="9.6" height="10.3"/>
<rect id="XMLID_15_" x="71.8" y="58.7" class="st0" width="10.3" height="17"/>
<polyline id="XMLID_17_" class="st0" points="48.5,51.8 57.7,40.8 78.4,40.8 86.4,51.8 "/>
</svg>
