<?xml version="1.0" encoding="utf-8"?>
<!-- Generator: Adobe Illustrator 19.0.0, SVG Export Plug-In . SVG Version: 6.00 Build 0)  -->
<svg version="1.1" id="Слой_1" xmlns="http://www.w3.org/2000/svg" xmlns:xlink="http://www.w3.org/1999/xlink" x="0px" y="0px"
	 viewBox="0 0 100 100" style="enable-background:new 0 0 100 100;" xml:space="preserve">
<style type="text/css">
	.st0{fill:#FCFBFA;stroke:#0F0F0F;stroke-miterlimit:10;}
	.st1{fill:#FCFBFA;stroke:#0F0F0F;stroke-width:0.25;stroke-miterlimit:10;}
</style>
<g id="XMLID_57_">
	<path id="XMLID_1_" class="st0" d="M85.9,95.3H13.5c-1.6,0-2.9-1.3-2.9-2.9V7.5c0-1.6,1.3-2.9,2.9-2.9h72.4c1.6,0,2.9,1.3,2.9,2.9
		v84.9C88.8,94,87.5,95.3,85.9,95.3z"/>
	<rect id="XMLID_2_" x="63.6" y="43.2" class="st0" width="22" height="14"/>
	<line id="XMLID_4_" class="st0" x1="14.5" y1="15.6" x2="37.2" y2="15.6"/>
	<line id="XMLID_3_" class="st0" x1="14.5" y1="20" x2="37.2" y2="20"/>
	<line id="XMLID_5_" class="st0" x1="14.5" y1="24.1" x2="37.2" y2="24.1"/>
	<line id="XMLID_6_" class="st0" x1="14.5" y1="28.3" x2="50.9" y2="28.3"/>
	<line id="XMLID_7_" class="st0" x1="14.5" y1="64" x2="50.9" y2="64"/>
	<line id="XMLID_8_" class="st0" x1="14.5" y1="68.1" x2="37.2" y2="68.1"/>
	<line id="XMLID_9_" class="st0" x1="14.5" y1="72.3" x2="37.2" y2="72.3"/>
	<g id="XMLID_55_">
		<rect id="XMLID_10_" x="44" y="14.3" class="st1" width="2.7" height="2.7"/>
		<rect id="XMLID_11_" x="48.8" y="14.3" class="st1" width="2.7" height="2.7"/>
		<rect id="XMLID_12_" x="53.2" y="14.3" class="st1" width="2.7" height="2.7"/>
		<rect id="XMLID_15_" x="57.5" y="14.3" class="st1" width="2.7" height="2.7"/>
		<rect id="XMLID_14_" x="62.3" y="14.3" class="st1" width="2.7" height="2.7"/>
		<rect id="XMLID_13_" x="66.7" y="14.3" class="st1" width="2.7" height="2.7"/>
		<rect id="XMLID_18_" x="71.2" y="14.3" class="st1" width="2.7" height="2.7"/>
		<rect id="XMLID_17_" x="76" y="14.3" class="st1" width="2.7" height="2.7"/>
		<rect id="XMLID_16_" x="80.4" y="14.3" class="st1" width="2.7" height="2.7"/>
		<rect id="XMLID_27_" x="44.1" y="18.7" class="st1" width="2.7" height="2.7"/>
		<rect id="XMLID_26_" x="48.8" y="18.7" class="st1" width="2.7" height="2.7"/>
		<rect id="XMLID_25_" x="53.2" y="18.7" class="st1" width="2.7" height="2.7"/>
		<rect id="XMLID_24_" x="57.6" y="18.7" class="st1" width="2.7" height="2.7"/>
		<rect id="XMLID_23_" x="62.3" y="18.7" class="st1" width="2.7" height="2.7"/>
		<rect id="XMLID_22_" x="66.7" y="18.7" class="st1" width="2.7" height="2.7"/>
		<rect id="XMLID_21_" x="71.3" y="18.7" class="st1" width="2.7" height="2.7"/>
		<rect id="XMLID_20_" x="76" y="18.7" class="st1" width="2.7" height="2.7"/>
		<rect id="XMLID_19_" x="80.4" y="18.7" class="st1" width="2.7" height="2.7"/>
		<rect id="XMLID_36_" x="44.1" y="22.7" class="st1" width="2.7" height="2.7"/>
		<rect id="XMLID_35_" x="48.8" y="22.7" class="st1" width="2.7" height="2.7"/>
		<rect id="XMLID_34_" x="53.2" y="22.7" class="st1" width="2.7" height="2.7"/>
		<rect id="XMLID_33_" x="57.6" y="22.7" class="st1" width="2.7" height="2.7"/>
		<rect id="XMLID_32_" x="62.3" y="22.7" class="st1" width="2.7" height="2.7"/>
		<rect id="XMLID_31_" x="66.7" y="22.7" class="st1" width="2.7" height="2.7"/>
		<rect id="XMLID_30_" x="71.3" y="22.7" class="st1" width="2.7" height="2.7"/>
		<rect id="XMLID_29_" x="76" y="22.7" class="st1" width="2.7" height="2.7"/>
		<rect id="XMLID_28_" x="80.4" y="22.7" class="st1" width="2.7" height="2.7"/>
	</g>
	<g id="XMLID_56_">
		<rect id="XMLID_45_" x="44.2" y="66.7" class="st1" width="2.7" height="2.7"/>
		<rect id="XMLID_44_" x="48.9" y="66.7" class="st1" width="2.7" height="2.7"/>
		<rect id="XMLID_43_" x="53.3" y="66.7" class="st1" width="2.7" height="2.7"/>
		<rect id="XMLID_42_" x="57.7" y="66.7" class="st1" width="2.7" height="2.7"/>
		<rect id="XMLID_41_" x="62.4" y="66.7" class="st1" width="2.7" height="2.7"/>
		<rect id="XMLID_40_" x="66.8" y="66.7" class="st1" width="2.7" height="2.7"/>
		<rect id="XMLID_39_" x="71.4" y="66.7" class="st1" width="2.7" height="2.7"/>
		<rect id="XMLID_38_" x="76.1" y="66.7" class="st1" width="2.7" height="2.7"/>
		<rect id="XMLID_37_" x="80.5" y="66.7" class="st1" width="2.7" height="2.7"/>
		<rect id="XMLID_54_" x="44.1" y="70.9" class="st1" width="2.7" height="2.7"/>
		<rect id="XMLID_53_" x="48.8" y="70.9" class="st1" width="2.7" height="2.7"/>
		<rect id="XMLID_52_" x="53.2" y="70.9" class="st1" width="2.7" height="2.7"/>
		<rect id="XMLID_51_" x="57.6" y="70.9" class="st1" width="2.7" height="2.7"/>
		<rect id="XMLID_50_" x="62.3" y="70.9" class="st1" width="2.7" height="2.7"/>
		<rect id="XMLID_49_" x="66.7" y="70.9" class="st1" width="2.7" height="2.7"/>
		<rect id="XMLID_48_" x="71.3" y="70.9" class="st1" width="2.7" height="2.7"/>
		<rect id="XMLID_47_" x="76" y="70.9" class="st1" width="2.7" height="2.7"/>
		<rect id="XMLID_46_" x="80.4" y="70.9" class="st1" width="2.7" height="2.7"/>
	</g>
</g>
</svg>
