<?xml version="1.0" encoding="utf-8"?>
<!-- Generator: Adobe Illustrator 19.0.0, SVG Export Plug-In . SVG Version: 6.00 Build 0)  -->
<svg version="1.1" id="Слой_1" xmlns="http://www.w3.org/2000/svg" xmlns:xlink="http://www.w3.org/1999/xlink" x="0px" y="0px"
	 viewBox="0 0 100 100" style="enable-background:new 0 0 100 100;" xml:space="preserve">
<style type="text/css">
	.st0{fill:#D3E7D7;}
	.st1{fill:none;stroke:#53AC64;stroke-width:3;stroke-miterlimit:10;}
	.st2{fill:none;stroke:#5F6EB0;stroke-width:2;stroke-miterlimit:10;}
	.st3{fill:none;stroke:#5F6EB0;stroke-miterlimit:10;}
	.st4{fill:none;stroke:#111112;stroke-miterlimit:10;}
</style>
<path id="XMLID_1_" class="st0" d="M86.6,95.3H14.2c-1.6,0-2.9-1.3-2.9-2.9V7.5c0-1.6,1.3-2.9,2.9-2.9h72.4c1.6,0,2.9,1.3,2.9,2.9
	v84.9C89.5,94,88.2,95.3,86.6,95.3z"/>
<path id="XMLID_2_" class="st1" d="M82.8,91.4H18.1c-1.5,0-2.8-1.2-2.8-2.8V12c0-1.5,1.2-2.8,2.8-2.8h64.6c1.5,0,2.8,1.2,2.8,2.8
	v76.6C85.5,90.2,84.3,91.4,82.8,91.4z"/>
<circle id="XMLID_3_" class="st2" cx="33" cy="76.1" r="10.6"/>
<circle id="XMLID_4_" class="st3" cx="33" cy="76.1" r="8.4"/>
<line id="XMLID_6_" class="st4" x1="23.3" y1="19.5" x2="77.3" y2="19.5"/>
<line id="XMLID_5_" class="st4" x1="23" y1="27.5" x2="77" y2="27.5"/>
<line id="XMLID_7_" class="st4" x1="23.3" y1="35.2" x2="77.3" y2="35.2"/>
</svg>
