<?xml version="1.0" encoding="utf-8"?>
<!-- Generator: Adobe Illustrator 19.0.0, SVG Export Plug-In . SVG Version: 6.00 Build 0)  -->
<svg version="1.1" id="Слой_1" xmlns="http://www.w3.org/2000/svg" xmlns:xlink="http://www.w3.org/1999/xlink" x="0px" y="0px"
	 viewBox="0 0 100 100" style="enable-background:new 0 0 100 100;" xml:space="preserve">
<style type="text/css">
	.st0{fill:#FCFBFA;stroke:#0F0F0F;stroke-miterlimit:10;}
	.st1{fill:none;stroke:#EF2244;stroke-miterlimit:10;}
</style>
<g id="XMLID_9_">
	<path id="XMLID_1_" class="st0" d="M85.9,95.3H13.5c-1.6,0-2.9-1.3-2.9-2.9V7.5c0-1.6,1.3-2.9,2.9-2.9h72.4c1.6,0,2.9,1.3,2.9,2.9
		v84.9C88.8,94,87.5,95.3,85.9,95.3z"/>
	<path id="XMLID_2_" class="st0" d="M72.2,50H27.1c-1.6,0-2.9-1.3-2.9-2.9V22.9c0-1.6,1.3-2.9,2.9-2.9h45.2c1.6,0,2.9,1.3,2.9,2.9
		v24.1C75.2,48.7,73.9,50,72.2,50z"/>
	<path id="XMLID_3_" class="st0" d="M72.2,81H27.1c-1.6,0-2.9-1.3-2.9-2.9V53.9c0-1.6,1.3-2.9,2.9-2.9h45.2c1.6,0,2.9,1.3,2.9,2.9
		V78C75.2,79.7,73.9,81,72.2,81z"/>
	<rect id="XMLID_4_" x="31.4" y="25.2" class="st0" width="36.6" height="21.2"/>
	<line id="XMLID_6_" class="st0" x1="34.9" y1="30.6" x2="63.8" y2="30.6"/>
	<line id="XMLID_5_" class="st0" x1="34.9" y1="35.8" x2="63.8" y2="35.8"/>
	<line id="XMLID_7_" class="st0" x1="34.9" y1="41.3" x2="63.8" y2="41.3"/>
	<circle id="XMLID_8_" class="st1" cx="37.3" cy="40.3" r="4.5"/>
	<path id="XMLID_10_" class="st1" d="M34.9,38.9c0.4-0.9,1.3-1.6,2.3-1.6c1,0,2,0.6,2.4,1.6"/>
</g>
</svg>
