<?xml version="1.0" encoding="utf-8"?>
<!-- Generator: Adobe Illustrator 19.0.0, SVG Export Plug-In . SVG Version: 6.00 Build 0)  -->
<svg version="1.1" id="Слой_1" xmlns="http://www.w3.org/2000/svg" xmlns:xlink="http://www.w3.org/1999/xlink" x="0px" y="0px"
	 viewBox="0 0 100 100" style="enable-background:new 0 0 100 100;" xml:space="preserve">
<style type="text/css">
	.st0{fill:#FCFBFA;stroke:#B4BAD8;stroke-miterlimit:10;}
	.st1{fill:#F41C36;}
</style>
<path id="XMLID_1_" class="st0" d="M85.9,94.8H13.5c-1.6,0-2.9-1.3-2.9-2.9V7c0-1.6,1.3-2.9,2.9-2.9h72.4c1.6,0,2.9,1.3,2.9,2.9
	v84.9C88.8,93.5,87.5,94.8,85.9,94.8z"/>
<path id="XMLID_2_" class="st1" d="M52.1,70.9h-8.6c-1.7,0-3.1-1.4-3.1-3.1V31.1c0-1.7,1.4-3.1,3.1-3.1h8.6c1.7,0,3.1,1.4,3.1,3.1
	v36.7C55.3,69.5,53.9,70.9,52.1,70.9z"/>
<path id="XMLID_3_" class="st1" d="M25.5,54.6l0-9.9c0-1.4,1.1-2.5,2.5-2.5l39.6-0.1c1.4,0,2.5,1.1,2.5,2.5l0,9.9
	c0,1.4-1.1,2.5-2.5,2.5L28,57.1C26.6,57.1,25.5,56,25.5,54.6z"/>
</svg>
