<?xml version="1.0" encoding="utf-8"?>
<!-- Generator: Adobe Illustrator 19.0.0, SVG Export Plug-In . SVG Version: 6.00 Build 0)  -->
<svg version="1.1" id="Слой_1" xmlns="http://www.w3.org/2000/svg" xmlns:xlink="http://www.w3.org/1999/xlink" x="0px" y="0px"
	 viewBox="100 -100 300 300" style="enable-background:new 100 -100 300 300;" xml:space="preserve">
<style type="text/css">
	.st0{fill:#200C0D;}
	.st1{fill:#BCA07F;}
	.st2{font-family:'MyriadPro-Regular';}
	.st3{font-size:14.4201px;}
	.st4{fill:#AE9381;}
	.st5{font-size:29.7456px;}
	.st6{fill:none;stroke:#AE9381;stroke-width:3;stroke-miterlimit:10;}
</style>
<g>
	<rect id="XMLID_2_" x="141.7" y="-95" class="st0" width="223.9" height="289.3"/>
	<g id="XMLID_3_">
		<text transform="matrix(1.2246 0 0 1 201.9366 -51.1514)" class="st1 st2 st3">РОССИЙСКАЯ</text>
		<text transform="matrix(1.2246 0 0 1 207.5693 -33.8516)" class="st1 st2 st3">ФЕДЕРАЦИЯ</text>
	</g>
	<text id="XMLID_4_" transform="matrix(0.83 0 0 1 202.9873 161.835)" class="st4 st2 st5">ПАСПОРТ</text>
	<g id="XMLID_5_">
		<path id="XMLID_6_" class="st6" d="M253.7,107.6c0.5-0.8,1.4-1.9,2.7-2.3c1.6-0.5,2.3,0.4,4.1,0c2.2-0.4,2.3-1.9,4.7-2.3
			c1.6-0.3,1.8,0.4,3.3,0c2.1-0.5,3.8-2.3,3.8-2.3c3.4-0.7,4.2-2,4.4-2.6c0.3-0.7,0.1-1.4-1.1-4.6c-1.6-4.1-2.1-5-1.6-5.4
			c0.4-0.4,1.2,0.3,5.5,1.8c2.1,0.8,3,1,3.3,1.8c0.3,0.9-0.5,1.4-0.5,2.8c0,1.1,0.5,2.6,1.4,3.1c2.8,1.5,12-5.5,10.9-10.3
			c-0.2-1.1-0.8-1.3-1.1-2.8c-0.4-2.4,0.5-4.3,1.4-6.2c3.3-7.1,0.2-1.1,3.8-8.5c0,0,1.7-3.5,4.7-9.3c3.6-1.8,4.7-3.5,4.9-4.9
			c0,0,0.1-0.4,0-3.9c1.7-1.7,3.1-3.8,2.5-5.4c-0.6-1.5-2.5-1.7-2.5-2.8c0-1.6,4-2.4,3.8-3.6c-0.1-1-3.3-0.9-3.6-2.1
			c-0.3-1.4,4.2-3.1,3.8-4.4c-0.3-1-3-0.4-3.8-1.8c-1.2-2,2.9-5.6,1.9-6.7c-0.6-0.7-2.6,0.7-3.6,0c-1.9-1.4,2-8.4,0.8-9
			c-0.8-0.4-3.3,2.5-3.8,2.1c-0.5-0.3,1.5-2.5,1.4-5.4c-0.1-2.3-1.5-5-3-5.2c-2.1-0.2-2.7,4.6-7.7,11.1c-1.3,1.7-3.9,5.1-8.2,8.2
			c-4.1,3-9,5.3-10.9,8.8c-1,1.7-1.1,3.5-0.8,4.1c0.3,0.8,0.8,1.7,0.8,1.7c0.1,0.1,0.1,0.2,0.1,0.2c0.9,1.5,1.7,2.1,1.8,2.8
			c0.2,1.1-1.2,2.8-3,2.8c-1.3,0-2.7-0.7-2.7-1.5c-0.1-0.8,1.3-1,1.8-2.2c0.3-0.9-0.2-2-1.3-4.3c-1.4-2.9-2.1-3.2-2.4-3.3
			c-1.1-0.3-1.7,0.5-2.6,0.2c-1.3-0.5-1.8-3.3-0.9-5.3c0.9-2.1,3.2-3.7,5.3-3.6c1.8,0.1,2.2,1.4,4.2,1.4c1.3,0,1.3-0.6,3.3-1
			c2.2-0.5,2.6,0.1,4-0.5c1.7-0.7,2.8-2.3,2.6-2.7c-0.2-0.3-1.3,0.3-2-0.2c-0.8-0.5-0.1-1.6-0.5-3.1c-0.7-2.3-3.2-2.7-3.1-3.9
			c0.1-1.2,2.5-1,3.8-2.7c2.2-2.8-1-7.1,0.7-8.2c0.8-0.5,2.1-0.1,2.7,0.5c1.6,1.5,0.2,5.1,0,5.7c-0.6,1.5-1.1,1.8-1.3,3.1
			c-0.1,1.1,0,2.9,0.9,3.3c0.9,0.3,1.5-1,4-1.7c1.5-0.4,1.9-0.1,2.7-0.7c1.1-0.8,1.8-2.3,1.3-2.9c-0.6-0.8-2.5,0.1-2.9-0.5
			c-0.5-0.8,1.9-2.1,2-4.1c0.2-2.7-3.8-6-8-6.4c-1.8-0.2-5.4,0.1-6.4,2.1c-1.2,2.2,2.1,4.7,0.7,7.6c-0.7,1.4-2.1,2.3-2.6,2.1
			c-0.6-0.3,0.8-2.3-0.2-3.6c-0.8-1.1-2.4-0.7-3.1-1.9c-0.1-0.2-0.1-0.9-0.2-2.2c0-1.1,0-2.4,0-2.4l0,0c-0.6-0.3-1.2-0.6-1.8-0.9
			l0,0l0,0c-0.7,0-1.6,0.1-2,0.7c-0.8,1.2,1.2,3.3,0.4,4.3c-0.4,0.5-1,0.1-2.2,0.7c-0.3,0.2-1.4,0.7-1.8,1.5
			c-0.8,1.6,1.4,3.4,0.9,3.9c-0.8,0.9-7.8-2-7.7-4.8c0.1-1.4,1.8-1.6,2.7-3.9c0.2-0.6,1.1-2.9,0-4.5c-1.5-2.2-5.5-0.9-6.6-2.9
			c-0.5-1,0.2-1.7-0.4-3.6c-0.4-1.2-1-2.1-1.5-2.6"/>
		<path id="XMLID_7_" class="st6" d="M253.7,107.6c-0.5-0.8-1.4-1.9-2.7-2.3c-1.6-0.5-2.3,0.4-4.1,0c-2.2-0.4-2.3-1.9-4.7-2.3
			c-1.6-0.3-1.8,0.4-3.3,0c-2.1-0.5-3.8-2.3-3.8-2.3c-3.4-0.7-4.2-2-4.4-2.6c-0.3-0.7-0.1-1.4,1.1-4.6c1.6-4.1,2.1-5,1.6-5.4
			c-0.4-0.4-1.2,0.3-5.5,1.8c-2.1,0.8-3,1-3.3,1.8c-0.3,0.9,0.5,1.4,0.5,2.8c0,1.1-0.5,2.6-1.4,3.1c-2.8,1.5-12-5.5-10.9-10.3
			c0.2-1.1,0.8-1.3,1.1-2.8c0.4-2.4-0.5-4.3-1.4-6.2c-3.3-7.1-0.2-1.1-3.8-8.5c0,0-1.7-3.5-4.7-9.3c-3.6-1.8-4.7-3.5-4.9-4.9
			c0,0-0.1-0.4,0-3.9c-1.7-1.7-3.1-3.8-2.5-5.4c0.6-1.5,2.5-1.7,2.5-2.8c0-1.6-4-2.4-3.8-3.6c0.1-1,3.3-0.9,3.6-2.1
			c0.3-1.4-4.2-3.1-3.8-4.4c0.3-1,3-0.4,3.8-1.8c1.2-2-2.9-5.6-1.9-6.7c0.6-0.7,2.6,0.7,3.6,0c1.9-1.4-2-8.4-0.8-9
			c0.8-0.4,3.3,2.5,3.8,2.1c0.5-0.3-1.5-2.5-1.4-5.4c0.1-2.3,1.5-5,3-5.2c2.1-0.2,2.7,4.6,7.7,11.1c1.3,1.7,3.9,5.1,8.2,8.2
			c4.1,3,9,5.3,10.9,8.8c1,1.7,1.1,3.5,0.8,4.1c-0.3,0.8-0.8,1.7-0.8,1.7c-0.1,0.1-0.1,0.2-0.1,0.2c-0.9,1.5-1.7,2.1-1.8,2.8
			c-0.2,1.1,1.2,2.8,3,2.8c1.3,0,2.7-0.7,2.7-1.5c0.1-0.8-1.3-1-1.8-2.2c-0.3-0.9,0.2-2,1.3-4.3c1.4-2.9,2.1-3.2,2.4-3.3
			c1.1-0.3,1.7,0.5,2.6,0.2c1.3-0.5,1.8-3.3,0.9-5.3c-0.9-2.1-3.2-3.7-5.3-3.6c-1.8,0.1-2.2,1.4-4.2,1.4c-1.3,0-1.3-0.6-3.3-1
			c-2.2-0.5-2.6,0.1-4-0.5c-1.7-0.7-2.8-2.3-2.6-2.7c0.2-0.3,1.3,0.3,2-0.2c0.8-0.5,0.1-1.6,0.5-3.1c0.7-2.3,3.2-2.7,3.1-3.9
			c-0.1-1.2-2.5-1-3.8-2.7c-2.2-2.8,1-7.1-0.7-8.2c-0.8-0.5-2.1-0.1-2.7,0.5c-1.6,1.5-0.2,5.1,0,5.7c0.6,1.5,1.1,1.8,1.3,3.1
			c0.1,1.1,0,2.9-0.9,3.3c-0.9,0.3-1.5-1-4-1.7c-1.5-0.4-1.9-0.1-2.7-0.7c-1.1-0.8-1.8-2.3-1.3-2.9c0.6-0.8,2.5,0.1,2.9-0.5
			c0.5-0.8-1.9-2.1-2-4.1c-0.2-2.7,3.8-6,8-6.4c1.8-0.2,5.4,0.1,6.4,2.1c1.2,2.2-2.1,4.7-0.7,7.6c0.7,1.4,2.1,2.3,2.6,2.1
			c0.6-0.3-0.8-2.3,0.2-3.6c0.8-1.1,2.4-0.7,3.1-1.9c0.1-0.2,0.1-0.9,0.2-2.2c0-1.1,0-2.4,0-2.4l0,0c0.6-0.3,1.2-0.6,1.8-0.9l0,0
			l0,0c0.7,0,1.6,0.1,2,0.7c0.8,1.2-1.2,3.3-0.4,4.3c0.4,0.5,1,0.1,2.2,0.7c0.3,0.2,1.4,0.7,1.8,1.5c0.8,1.6-1.4,3.4-0.9,3.9
			c0.8,0.9,7.8-2,7.7-4.8c-0.1-1.4-1.8-1.6-2.7-3.9c-0.2-0.6-1.1-2.9,0-4.5c1.5-2.2,5.5-0.9,6.6-2.9c0.5-1-0.2-1.7,0.4-3.6
			c0.4-1.2,1-2.1,1.5-2.6"/>
	</g>
	<path id="XMLID_9_" class="st6" d="M240.3,49.7h26.8c0,10,0,19.9,0,29.9c-3.3,0-6.6,0-9.9,0c-1.2,1.4-2.4,2.7-3.6,4.1
		c-1.3-1.4-2.6-2.7-3.8-4.1c-3.2,0-6.4,0-9.6,0V49.7H240.3z"/>
</g>
</svg>
