<?xml version="1.0" encoding="utf-8"?>
<!-- Generator: Adobe Illustrator 19.0.0, SVG Export Plug-In . SVG Version: 6.00 Build 0)  -->
<svg version="1.1" id="Слой_1" xmlns="http://www.w3.org/2000/svg" xmlns:xlink="http://www.w3.org/1999/xlink" x="0px" y="0px"
	 viewBox="0 0 100 100" style="enable-background:new 0 0 100 100;" xml:space="preserve">
<style type="text/css">
	.st0{fill:#FFFFFF;stroke:#000000;stroke-miterlimit:10;}
</style>
<path id="XMLID_1_" class="st0" d="M83.2,96H16c-1.7,0-3-1.4-3-3V7.5c0-1.7,1.4-3,3-3h67.2c1.7,0,3,1.4,3,3v85.4
	C86.2,94.6,84.9,96,83.2,96z"/>
<path id="XMLID_3_" class="st0" d="M17,91.4c0.1-2.5,1.1-19.2,14.9-29.4c7-5.2,14.3-6.4,18.1-6.8"/>
<path id="XMLID_2_" class="st0" d="M82.6,91.4c-0.1-2.5-1.1-19.2-14.9-29.4c-7-5.2-14.3-6.4-18.1-6.8"/>
<circle id="XMLID_4_" class="st0" cx="49.3" cy="36.7" r="19"/>
</svg>
