<?xml version="1.0" encoding="utf-8"?>
<!-- Generator: Adobe Illustrator 21.0.1, SVG Export Plug-In . SVG Version: 6.00 Build 0)  -->
<svg version="1.1" id="Слой_1" xmlns="http://www.w3.org/2000/svg" xmlns:xlink="http://www.w3.org/1999/xlink" x="0px" y="0px"
	 viewBox="0 0 150 150" style="enable-background:new 0 0 150 150;" xml:space="preserve">
<g>
	<path d="M71.4,75.7c6.7,0,12.2-5.5,12.2-12.2s-5.5-12.2-12.2-12.2c-6.7,0-12.2,5.5-12.2,12.2C59.2,70.2,64.7,75.7,71.4,75.7z"/>
	<path d="M92,107.2C90.3,84.1,78.2,78.9,75,78c-1.1-0.4-2.4-0.7-3.7-0.7c-1.3,0-2.5,0.2-3.6,0.7c-3.2,1-15.2,6.1-16.9,29.2
		c-0.2,2.1,1.4,4,3.6,4.1c0.1,0,0.2,0,0.3,0c2,0,3.7-1.5,3.8-3.6c0.4-5.3,1.4-9.3,2.6-12.4v8.6c0,0.8,0.1,1.6,0.3,2.4v26
		c0,2.5,2,4.5,4.5,4.5c2.5,0,4.5-2,4.5-4.5v-18.1c0.3,0,0.7,0.1,1,0.1c0.3,0,0.7,0,1-0.1v18.1c0,2.5,2,4.5,4.5,4.5
		c2.5,0,4.5-2,4.5-4.5v-26c0.2-0.8,0.3-1.5,0.3-2.4v-8.6c1.2,3.1,2.2,7.1,2.6,12.4c0.2,2,1.8,3.6,3.8,3.6c0.1,0,0.2,0,0.3,0
		C90.6,111.2,92.1,109.3,92,107.2z"/>
</g>
</svg>
