<?xml version="1.0" encoding="utf-8"?>
<!-- Generator: Adobe Illustrator 21.0.1, SVG Export Plug-In . SVG Version: 6.00 Build 0)  -->
<svg version="1.1" id="Слой_1" xmlns="http://www.w3.org/2000/svg" xmlns:xlink="http://www.w3.org/1999/xlink" x="0px" y="0px"
	 viewBox="0 0 800 450" style="enable-background:new 0 0 800 450;" xml:space="preserve">
<style type="text/css">
	.st_02{fill:none;stroke:#000000;stroke-miterlimit:10;}
</style>
<path class="st_02" d="M4.7,274.3c2.8,6.6,4.8,14.7,4,24.1c0,0.1,0,0.3,0,0.5c-1.5,18.2-3.8,21.3-2,26c2.1,5.6,8.1,8.1,9.3,8.7
	c8.1,3.4,18.1,0.5,22.7-5.3c4.6-5.9,1.8-12.6,0.7-26c-1.8-20.7,3.7-19,3.3-43.3c-0.3-20.1-4.2-28.4,0.7-44.7
	c0.5-1.6,3.9-13,6.7-12.7c3.1,0.4,1.2,15.2,4.7,40c2.7,19.3,8.8,46.1,7.2,61.6c-0.1,0.6-0.2,2.4-0.5,5.8c-1.6,17.9-1.6,19.6-0.7,20
	c2,1,8.5-4.5,11.3-12c5.2-13.4-4.1-25.4,0-28.7c5-4,20.6,12.2,26.7,8c5.9-4.1-5.3-22.4,2-29.3c5.6-5.3,20.2-2.5,24,4.7
	c3.5,6.6-3.5,13.9,0,18c3.8,4.4,12.8-2.8,22,0c16.4,5,19.9,37.8,22,37.3c2.3-0.5-7.3-37.9,1.3-42c5.2-2.4,15.1,7.8,16.7,9.3
	c9.5,9.7,10.6,19.6,12.7,19.3c5.2-0.6,2.8-61.8,5.3-62c1.5-0.1,1.3,22.3,16,42.7c2.1,2.9,10.4,14.5,16,12.7c5-1.6,5.8-13.3,6.7-24
	c0.9-11.9-0.6-16.5,2.7-24.7c1.8-4.5,5.7-11.7,8.8-11.2c3.3,0.6,4.2,9.8,4.9,17.6c1.8,20-1.2,33.3,0.4,33.6
	c1.3,0.3,5.2-9.6,8.7-21.3c4.7-16,5.8-25.8,8.7-40.7c6.3-32.8,8.9-27.8,8.7-38c-0.6-23.7-14.7-30.4-10.7-50.7
	c2.4-12,9.1-18.5,10.7-20c9-8.4,24.4-13.1,30.7-7.3c4.1,3.8,4.4,12.3,1.3,14.7c-2.1,1.6-4.7-0.3-6.7,1.3c-2.7,2.3-0.2,7.7,0,14
	c0.2,9.5-5.3,12.5-7.3,20.7c-2.5,10.1,4.4,11.5,8.7,30.7c3.5,15.7,1.4,26.5,4.7,48c0.1,0.3,0.3,2,0.9,5.3c3.2,19.2,3.8,21.7,5.1,22
	c2.5,0.5,5.9-7,7.3-10c6.1-13.2,4.5-21.9,7.3-22.7c5.4-1.5,17.2,27.7,20,26.7c3-1.1-12.3-33.2-0.7-44.7c5.6-5.5,16.7-5.6,24-1.3
	c18.8,11.1,13,52,14.7,52c1.9,0,4.4-54.8,4.7-60c1.1-23.6,2-41,5.3-41.3c4.6-0.5,10.3,31.2,17.3,30.7c3.3-0.3,3.4-7.3,7.3-8
	c8.1-1.5,19.6,26.1,20.7,28.7c7.7,18.8,9.1,33.5,10.7,33.3c2.5-0.3-0.9-39.2,4-40c3.1-0.5,7.6,14.6,10,14c3.2-0.8-1.1-28.2,1.3-28.7
	c2-0.4,3.6,17.6,14.7,22c5.1,2,12.4,1.3,15.3-2.7c4.5-6-3.8-15.8,0.7-20.7c2.5-2.7,8.1-2.9,11.3-0.7c4.7,3.2,2.1,10,6,12.7
	c4,2.7,12.8-0.4,17.3-6c6.4-7.9,1-16.9,0-36.7c-0.8-17.2,1.7-42.9,10.7-45.3c6-1.6,13.1,7.5,14,8.7c9.8,12.6,5.8,26.2,5.3,54.7
	c-0.5,27.3-0.6,52.9,12,59.3c6,3.1,14.9,2,20,1.3c5-0.6,11.5-1.4,17.3-5.3c3.9-2.6,6.5-6,14.7-28.7c8.7-24.2,8.5-28,7.3-31.3
	c-2.9-8.6-9.7-10.2-9.3-17.3c0.3-6.3,5.9-11.8,11.3-14c9.4-3.7,20.6,1.7,26,8.7c6.3,8.1,4,17.1,8,18c4.5,1,7.4-10.1,18-12.7
	c6.3-1.5,9.2,1.5,11.3-0.7c5.5-5.5-12.9-27.4-6.7-34.7c2.3-2.6,6.8-2.2,8-2c16.8,2.4,20.9,40.8,26.7,40c3.9-0.5,7.4-18.6,2-34.7
	c-3.3-10-10.1-19.2-12.7-22.7c-6.5-8.8-9.5-9.9-12-16.7c-3.7-10.1-0.3-16.3-4-18.7c-5.5-3.5-14.4,8.9-22.7,6
	c-9.6-3.4-10-24.7-10-26.7c-0.1-7.9,1.7-11.7,8.7-36c2-7.1,3.6-12.9,4.7-16.7"/>
</svg>
