<?xml version="1.0" encoding="utf-8"?>
<!-- Generator: Adobe Illustrator 21.0.1, SVG Export Plug-In . SVG Version: 6.00 Build 0)  -->
<svg version="1.1" id="Слой_1" xmlns="http://www.w3.org/2000/svg" xmlns:xlink="http://www.w3.org/1999/xlink" x="0px" y="0px"
	 viewBox="0 0 800 450" style="enable-background:new 0 0 800 450;" xml:space="preserve">
<style type="text/css">
	.st_03{fill:none;stroke:#000000;stroke-miterlimit:10;}
</style>
<path class="st_03" d="M6.7,367V247.7L14,237l96.7-8.7h176v-46.7L312,165l20.7-8v-34l24.7,9.3l11.3-9.3l6-2.7l3.3-38.7L395.3,63H406
	l18.7,11.3l2.7,40l13.3,17.3l10.7-9.3l21.3,6l8,32.7l20.7,5.3L514,185v19.3V225l128.7,8.7l132-1.3l16.7-1.3v126
	c-25.6,0.8-65,1.7-113.3,1.3c-80.3-0.6-94.5-4.1-187.3-5.3c-97.3-1.3-129.3-1.3-129.3-1.3c-28.1,0-61.1,0.2-100.7-4.7
	c-5.9-0.7-14.9-1.9-28.7-3.3c-23.6-2.4-46.4-4.7-68-4c-14.5,0.5-25,2.2-61.3,10c-25.3,5.4-57.8,12.7-96,22"/>
</svg>
