<?xml version="1.0" encoding="utf-8"?>
<!-- Generator: Adobe Illustrator 21.0.1, SVG Export Plug-In . SVG Version: 6.00 Build 0)  -->
<svg version="1.1" id="Слой_1" xmlns="http://www.w3.org/2000/svg" xmlns:xlink="http://www.w3.org/1999/xlink" x="0px" y="0px"
	 viewBox="0 0 800 450" style="enable-background:new 0 0 800 450;" xml:space="preserve">
<style type="text/css">
	.st0{fill:none;stroke:#000000;stroke-miterlimit:10;}
</style>
<path class="st0" d="M795,393c-9.1-3.2-23-7.8-40-12.5c-29.6-8.1-36.2-7.5-76.5-16.5c-21.5-4.8-18.6-4.8-72-17.5
	c-19.6-4.7-29.4-7-34-8c-49.6-10.7-52.3-6.9-70-15c-8.4-3.8-20.8-10.6-35.5-15c-9.4-2.8-14.2-4.2-19.5-4.5c-6.5-0.3-11,0.6-12-1.5
	c-1.1-2.2,1.9-6.9,6-9c5.5-2.7,9.7,0.9,18.5,1c5.5,0.1,6.5-1.2,17-4c19.1-5,28.2-3.9,28.5-6.5c0.4-2.9-10.4-7.2-20-9.5
	c-17.5-4.2-31.5-2-40-1c-13,1.5-27.9,0.7-57.5-1c-31.2-1.8-41.3-5.1-76.5-5.5c-4,0-7.5,0-14.5,0c-37.4,0.2-48.1,1.5-78.5,2
	c-23.4,0.4-19.9-0.3-53,0c-18.9,0.2-32,0.6-47.5,1c-15.7,0.4-45.6,1.4-81.5,7.5c-9.8,1.7-27.7,4.2-31,14c-1,2.9-1.4,8.5-0.5,13.8
	c0.8,4.8,1.2,7.2,3,8.7c4.9,3.8,12.1-5.9,24-5.5c3.5,0.1,11.6,5.2,28,15c9.9,5.9,10.8,6.7,12,8c4.2,4.7,6.2,12,10,26.5
	c4.6,17.7,4.7,18,5.5,19c9.3,10.9,26.2-0.7,37,9c11.5,10.4,6.5,36.2,1.5,49.5c-1.5,4-3.2,7.2-4.5,9.5H4L2.5,177.5
	c2.3,0.1,6,0.2,10.5,0c6.5-0.3,7.1-1,10-0.5c6.3,1.1,6.8,5,12,5.5c5,0.5,5.5-2.9,11.5-3.5c6-0.6,7.7,2.5,16.5,4.5
	c7.4,1.7,7.1-0.4,15,1c10.8,1.9,11.4,5.7,21,6.5c5.6,0.5,6.1-0.8,12.5,0c6.5,0.8,7.7,2.3,13.5,3.5c8.2,1.7,10-0.5,20.5,0
	c2.2,0.1,7.5,1.1,18,3c16.2,3,18,3.6,24,4c6.7,0.5,10.1,0.7,15,0c4.5-0.6,5.9-1.4,9-1c5.1,0.7,7,3.7,11.5,6.5c4.5,2.8,10.3,3.5,22,5
	c7.7,1,7.4,0.4,18.5,1.5c12.5,1.2,18.8,1.8,22,3.5c6.8,3.6,8.6,8.2,15.5,9c4.9,0.6,8.5-0.5,8.5-0.5c3.9-1.2,4.5-2.8,6.5-2.5
	c3.7,0.6,3.3,6.7,8,10c4.2,3,10.5,2.3,14.5,0.5c8.4-3.7,9.8-13.6,13-13c3,0.6,1.2,9.5,6.5,13.5c4.3,3.3,10,0.9,18.5-0.5
	c6.8-1.1,13.9-0.8,28,0c13.1,0.7,19.1,2.5,45.5,5c8.4,0.8,14.4,1.2,17.5-2.5c3.1-3.7-0.1-7.4,3-17.5c0.8-2.4,2.6-8.1,7-13.5
	c1.7-2.1,4.4-4.9,5.5-6c5.5-5.7,6.4-5.7,6.5-7c0.6-5.7-17.2-8.6-17.5-15.5c-0.2-5.1,9.3-9.6,15.5-12.5c14.2-6.7,18.9-3.3,24-8.5
	c9.1-9.3,2-28,7-29.5c3.7-1.2,7.9,9.3,14,8.5c5.9-0.8,6.7-11.1,11.5-11.5c3.2-0.2,5,4,12.5,16.5c13.6,22.8,16.2,23.9,17.5,32
	c0.6,3.8,0.6,7.3,2.5,8c4.2,1.5,10.4-13.2,16-12c5.4,1.1,6.6,16.2,8,16c1.5-0.2-2.9-19.2,5-24.5c2.2-1.5,5.8-2.2,8.5-1
	c4,1.7,4.3,6.6,6,6.5c2.3-0.1,3.4-9.1,5-17c1.3-6.4,5.9-28.4,12.5-29c5.9-0.6,9.6,16.4,14.5,15.5c4.2-0.7,6.9-14.1,6.5-25
	c-0.3-7.8-2-10.5,0-14.5c3.3-6.4,13.5-10.6,18.5-7.5c9.7,6.1-4.3,37.2,4.5,42c3.9,2.1,10.9-1.5,15-6c12.4-13.4-2.4-33.1,9.5-49.5
	c6.8-9.4,18.2-11.8,21.5-12.5c11.8-2.5,21.2,1.6,38,9c7.7,3.4,18.2,8.8,30,17L795,393z"/>
</svg>
