<?xml version="1.0" encoding="utf-8"?>
<!-- Generator: Adobe Illustrator 19.0.0, SVG Export Plug-In . SVG Version: 6.00 Build 0)  -->
<svg version="1.1" id="Слой_1" xmlns="http://www.w3.org/2000/svg" xmlns:xlink="http://www.w3.org/1999/xlink" x="0px" y="0px"
	 viewBox="235 -235 520 520" style="enable-background:new 235 -235 520 520;" xml:space="preserve">
<style type="text/css">
	.st0,.st1,.st2,.st3,.st4,.st5,.st6,.st7,.st8{
		
        animation:draw 5.5s linear forwards .5s;
        stroke-dasharray: 1000;
        stroke-dashoffset: 1000;
        stroke:black;
        }
	.st0{fill:#FFFFFF;stroke:#0A0909;stroke-miterlimit:10;}
	.st1{fill:none;stroke:#0A0909;stroke-miterlimit:10;}
	.st2{fill:#EF9D26;stroke:#0A0909;stroke-miterlimit:10;}
	.st3{fill:#2F6FAF;stroke:#0A0909;stroke-miterlimit:10;}
	.st4{fill:#F9F7F7;stroke:#0A0909;stroke-miterlimit:10;}
	.st5{fill:#F4EFEF;stroke:#0A0909;stroke-miterlimit:10;}
	.st6{fill:#56AF64;stroke:#0A0909;stroke-miterlimit:10;}
	.st7{fill:#D1D15A;stroke:#0A0909;stroke-miterlimit:10;}
	.st8{fill:#F7F0F0;stroke:#0A0909;stroke-miterlimit:10;}

	@keyframes draw {
	to {
    stroke-dashoffset: 0;
    }
    }


</style>
<path class="st0" d="M429.1,87c-6.2,4.1-5,21.9-4.2,38.9c0.7,14.7,1.3,36.2,1.1,63.2c2.6,0.4,5.3,0.7,8,1.2
	c0.9-21.8,1.7-43.7,2.5-65.4c-0.3-12.6-0.6-25.3-0.9-37.9C433.9,86.2,431.4,85.6,429.1,87z"/>
<path class="st0" d="M454.6,88.2c3.6-0.1,7.4-0.3,11-0.4c0.4,15.1,0.9,30.1,1.4,45.3c-0.4,19.1-0.9,38.2-1.4,57.3h-10.2
	c-0.7-19-1.3-37.9-2-57C453.9,118.4,454.2,103.2,454.6,88.2z"/>
<path class="st0" d="M486.2,88.2c3.6-0.1,7.4-0.3,11-0.4c0.4,15.1,0.9,30.1,1.4,45.3c-0.4,19.1-0.9,38.2-1.4,57.3H487
	c-0.7-19-1.3-37.9-2-57C485.5,118.4,485.9,103.2,486.2,88.2z"/>
<path class="st0" d="M521.8,88.2c3.6-0.1,7.4-0.3,11-0.4c0.4,15.1,0.9,30.1,1.4,45.3c-0.4,19.1-0.9,38.2-1.4,57.3h-10.2
	c-0.7-19-1.3-37.9-2-57C521,118.4,521.4,103.2,521.8,88.2z"/>
<path class="st0" d="M553.4,87.3c3.6-0.1,7.4-0.3,11-0.4c0.4,15.1,0.9,30.1,1.4,45.3c-0.4,19.1-0.9,38.2-1.4,57.3h-10.2
	c-0.7-19-1.3-37.9-2-57C552.7,117.5,553.1,102.3,553.4,87.3z"/>
<path class="st0" d="M591.3,84.1c6.2,4.1,5,21.9,4.2,38.9c-0.7,14.7-1.3,36.2-1.1,63.2c-2.6,0.4-5.3,0.7-8,1.2
	c-0.9-21.8-1.7-43.7-2.5-65.4c0.3-12.6,0.6-25.3,0.9-37.9C586.6,83.2,589.1,82.6,591.3,84.1z"/>
<path class="st0" d="M427.7,85.1c-0.6-0.9,0-1.6-0.6-3.7c-0.4-1.5-0.9-1.5-1.8-3.7c-0.7-1.6-1-2.5-0.9-3.5c0.3-1.5,1.5-2.2,1.7-2.2
	c0.2-0.1,1.2-0.6,1.8,0c0.2,0.3,0.2,0.7,0.4,2.8c0.1,2.1,0.2,2.5,0.4,2.9c0.1,0.4,0.4,1.2,1.1,1.5c0.7,0.3,1.5,0,2.1-0.6
	s0.7-1.6,0.9-3.5c0.2-2.1,0.1-2.5,0.4-2.9c0.6-0.7,1.9-0.9,2.6,0c0.8,0.9,0.6,2.4,0.4,4.3c-0.2,2.1-0.8,3.5-1,4.1
	c-0.4,1-1.2,3.1-2.9,4.3C430.9,85.7,428.6,86.5,427.7,85.1z"/>
<ellipse class="st0" cx="430.4" cy="74.7" rx="1.8" ry="3.4"/>
<path class="st0" d="M456.9,85.4c-0.6-0.9,0-1.6-0.6-3.7c-0.4-1.5-0.9-1.5-1.8-3.7c-0.7-1.6-1-2.5-0.9-3.5c0.3-1.5,1.5-2.2,1.7-2.2
	c0.2-0.1,1.2-0.6,1.8,0c0.2,0.3,0.2,0.7,0.4,2.8c0.1,2.1,0.2,2.5,0.4,2.9c0.1,0.4,0.4,1.2,1.1,1.5c0.7,0.3,1.5,0,2.1-0.6
	s0.7-1.6,0.9-3.5c0.2-2.1,0.1-2.5,0.4-2.9c0.6-0.7,1.9-0.9,2.6,0s0.6,2.4,0.4,4.3c-0.2,2.1-0.8,3.5-1,4.1c-0.4,1-1.2,3.1-2.9,4.3
	C460.2,86,457.9,86.8,456.9,85.4z"/>
<ellipse class="st0" cx="459.9" cy="75.3" rx="1.8" ry="3.4"/>
<path class="st0" d="M487.8,85.1c-0.6-0.9,0-1.6-0.6-3.7c-0.4-1.5-0.9-1.5-1.8-3.7c-0.7-1.6-1-2.5-0.9-3.5c0.3-1.5,1.5-2.2,1.7-2.2
	c0.2-0.1,1.2-0.6,1.8,0c0.2,0.3,0.2,0.7,0.4,2.8c0.1,2.1,0.2,2.5,0.4,2.9c0.1,0.4,0.4,1.2,1.1,1.5s1.5,0,2.1-0.6s0.7-1.6,0.9-3.5
	c0.2-2.1,0.1-2.5,0.4-2.9c0.6-0.7,1.9-0.9,2.6,0c0.8,0.9,0.6,2.4,0.4,4.3c-0.2,2.1-0.8,3.5-1,4.1c-0.4,1-1.2,3.1-2.9,4.3
	C491,85.7,488.7,86.5,487.8,85.1z"/>
<ellipse class="st0" cx="490.6" cy="75" rx="1.8" ry="3.4"/>
<path class="st0" d="M523.9,86.8c-0.6-0.9,0-1.6-0.6-3.7c-0.4-1.5-0.9-1.5-1.8-3.7c-0.7-1.6-1-2.5-0.9-3.5c0.3-1.5,1.5-2.2,1.7-2.2
	c0.2-0.1,1.2-0.6,1.8,0c0.2,0.3,0.2,0.7,0.4,2.8c0.1,2.1,0.2,2.5,0.4,2.9c0.1,0.4,0.4,1.2,1.1,1.5c0.7,0.3,1.5,0,2.1-0.6
	c0.6-0.6,0.7-1.6,0.9-3.5c0.2-2.1,0.1-2.5,0.4-2.9c0.6-0.7,1.9-0.9,2.6,0s0.6,2.4,0.4,4.3c-0.2,2.1-0.8,3.5-1,4.1
	c-0.4,1-1.2,3.1-2.9,4.3C527.1,87.3,524.8,88.1,523.9,86.8z"/>
<ellipse class="st0" cx="526.8" cy="76.6" rx="1.8" ry="3.4"/>
<path class="st0" d="M555.5,85.6c-0.6-0.9,0-1.6-0.6-3.7c-0.4-1.5-0.9-1.5-1.8-3.7c-0.7-1.6-1-2.5-0.9-3.5c0.3-1.5,1.5-2.2,1.7-2.2
	c0.2-0.1,1.2-0.6,1.8,0c0.2,0.3,0.2,0.7,0.4,2.8c0.1,2.1,0.2,2.5,0.4,2.9c0.1,0.4,0.4,1.2,1.1,1.5s1.5,0,2.1-0.6
	c0.6-0.6,0.7-1.6,0.9-3.5c0.2-2.1,0.1-2.5,0.4-2.9c0.6-0.7,1.9-0.9,2.6,0c0.8,0.9,0.6,2.4,0.4,4.3c-0.2,2.1-0.8,3.5-1,4.1
	c-0.4,1-1.2,3.1-2.9,4.3C558.8,86.2,556.5,86.9,555.5,85.6z"/>
<ellipse class="st0" cx="558.5" cy="75.4" rx="1.8" ry="3.4"/>
<path class="st0" d="M585.9,83.8c-0.6-0.9,0-1.6-0.6-3.7c-0.4-1.5-0.9-1.5-1.8-3.7c-0.7-1.6-1-2.5-0.9-3.5c0.3-1.5,1.5-2.2,1.7-2.2
	c0.2-0.1,1.2-0.6,1.8,0c0.2,0.3,0.2,0.7,0.4,2.8c0.1,2.1,0.2,2.5,0.4,2.9c0.1,0.4,0.4,1.2,1.1,1.5c0.7,0.3,1.5,0,2.1-0.6
	c0.6-0.6,0.7-1.6,0.9-3.5c0.2-2.1,0.1-2.5,0.4-2.9c0.6-0.7,1.9-0.9,2.6,0c0.8,0.9,0.6,2.4,0.4,4.3c-0.2,2.1-0.8,3.5-1,4.1
	c-0.4,1-1.2,3.1-2.9,4.3C589.1,84.4,586.8,85.1,585.9,83.8z"/>
<ellipse class="st0" cx="588.8" cy="73.7" rx="1.8" ry="3.4"/>
<path class="st1" d="M424.3,70.3c0.1,0.1,0.4,0.3,1.1,0L590,68.7v-9.3c1.4-2.8,2.9-5.6,4.4-8.4c-27.9-1.5-55.8-2.9-83.7-4.4
	c-30.6,1.6-61.4,3.1-92,4.7c1.9,4.9,3.7,9.8,5.6,14.7C423.6,67.9,423.7,69.9,424.3,70.3z"/>
<polyline class="st1" points="426.5,43.2 505.7,7.7 587.9,40.5 426.5,44.4 "/>
<polygon class="st1" points="415,40.5 506.5,0 600.8,40.5 599.1,46.6 510.7,46.6 417.1,48.4 "/>
<rect x="500.3" y="168.6" class="st2" width="17.5" height="23.1"/>
<rect x="500.3" y="147.6" class="st3" width="16.4" height="15"/>
<path class="st4" d="M403.6,121.3c2.2-1.9,5.1-1.2,6.9-0.4c-0.2,6.6-0.4,16.3,0,27.9c1,26,4.1,40.9-0.6,44.5
	c-2.5,1.9-6.4,0.6-8.6-1.9c-4.6-5.4-0.8-14.6-0.2-36.3C401.8,135.4,399.1,125.1,403.6,121.3z"/>
<path class="st0" d="M403.4,119.5c-0.6-0.6,0-1.3-0.4-2.8c-0.3-1.2-0.8-1.2-1.5-2.8c-0.6-1.3-0.9-1.9-0.8-2.6
	c0.2-1.2,1.3-1.6,1.4-1.8c0.2-0.1,1.1-0.4,1.5,0c0.2,0.3,0.2,0.6,0.3,2.1c0.1,1.6,0.2,1.9,0.3,2.2c0.1,0.3,0.4,0.9,1,1.2
	c0.7,0.3,1.3,0,1.9-0.4c0.4-0.4,0.6-1.2,0.8-2.6c0.1-1.3,0.1-1.8,0.2-2.1l0,0c0,0,0-0.1,0.1-0.1c0.1,0,1.4-0.9,2.3,0
	c0.7,0.7,0.6,1.9,0.3,3.2c-0.2,1.6-0.7,2.8-0.9,3.1c-0.4,0.9-1.1,2.4-2.5,3.2C406.4,120,404.3,120.6,403.4,119.5z"/>
<path class="st0" d="M430.4,74.3"/>
<ellipse class="st0" cx="405.8" cy="111.7" rx="1.5" ry="2.6"/>
<path class="st0" d="M336.2,131.9c1.8-1.3,4.3-1.3,5.8,0.3c3.1,3.2,0.4,11-0.3,24.3c-1.1,20,3.5,29.8-0.8,33.8
	c-2.2,2.1-5.7,1.6-7.7-0.4c-3.5-3.7-0.9-11,0-29.7C334.1,142.9,332.5,134.8,336.2,131.9z"/>
<path class="st0" d="M335.1,130.4c-0.6-0.6,0-1.3-0.4-2.8c-0.3-1.2-0.8-1.2-1.5-2.8c-0.6-1.3-0.9-1.9-0.8-2.6
	c0.2-1.2,1.3-1.6,1.4-1.8c0.2-0.1,1.1-0.4,1.5,0c0.2,0.3,0.2,0.6,0.3,2.1c0.1,1.6,0.2,1.9,0.3,2.2c0.1,0.3,0.4,0.9,1,1.2
	c0.7,0.3,1.3,0,1.9-0.4c0.4-0.4,0.6-1.2,0.8-2.6c0.1-1.3,0.1-1.8,0.2-2.1l0,0c0,0,0-0.1,0.1-0.1c0.1,0,1.4-0.9,2.3,0
	c0.7,0.7,0.6,1.9,0.3,3.2c-0.2,1.6-0.7,2.8-0.9,3.1c-0.4,0.9-1.1,2.4-2.5,3.2C338.1,131,336,131.4,335.1,130.4z"/>
<ellipse class="st0" cx="337.5" cy="122" rx="1.5" ry="2.6"/>
<path class="st0" d="M358,132.3c-3.5,3.2-1.9,10.1-2,27.2c-0.2,19.3-2.4,27,1.7,31.5c1.2,1.3,3.6,2.9,5.4,1.9
	c3.7-2.4,0.7-13.8,2-33.5c1.1-15.6,4.1-23.1,0.9-26.7C363.9,130.3,360.2,130.1,358,132.3z"/>
<path class="st0" d="M359,130.3c-0.4-0.6,0-1-0.4-2.4c-0.3-0.9-0.7-0.9-1.4-2.4c-0.6-1-0.9-1.6-0.7-2.2c0.2-0.9,1.2-1.3,1.3-1.3
	c0.2-0.1,1-0.4,1.4,0c0.2,0.1,0.2,0.4,0.3,1.8c0.1,1.3,0.2,1.5,0.3,1.8c0.1,0.3,0.3,0.7,0.9,0.9c0.6,0.3,1.3,0,1.7-0.3
	c0.4-0.4,0.6-1,0.7-2.2c0.1-1,0.1-1.3,0.2-1.6l0,0c0,0,0,0,0.1-0.1c0.1,0,1.3-0.7,2.2,0c0.7,0.6,0.4,1.5,0.3,2.6
	c-0.1,1.3-0.7,2.2-0.8,2.5c-0.3,0.7-1,1.9-2.4,2.6C361.8,130.7,359.8,131.1,359,130.3z"/>
<ellipse class="st0" cx="361.3" cy="123.9" rx="1.4" ry="2.1"/>
<polygon class="st1" points="400.5,120.1 340.3,119.4 334.6,119.4 334.6,109.2 328,97.8 402.5,97.8 395,85.9 422.4,84.4 
	422.4,119.4 "/>
<path class="st0" d="M314.6,80.1"/>
<polygon class="st1" points="619.4,115.4 679.8,114.7 685.4,114.7 685.4,104.5 692,93.1 617.5,93.1 625,81.2 597.7,79.7 
	597.7,114.7 "/>
<polygon class="st1" points="412.5,0 442.2,0 427.3,-9.2 "/>
<polygon class="st1" points="411.1,-33.8 445.8,-33.8 445.8,-12.5 409.5,-10.4 "/>
<path class="st5" d="M344.5,90.4c0.3-0.6,0.2-1.6,0.1-3.5c-0.1-2.4-0.3-2.8-0.4-4.9c0-1.2,0-1.9,0-3.5c0.1-2.8,0.2-2.8,0.1-4
	c0-0.4-0.3-1.6-0.9-3.8c-0.4-2.1-0.6-2.4-0.9-2.6c-0.7-0.6-1.8-0.4-2.3,0.3c-0.4,0.6-0.1,1.3-0.6,2.6c-0.4,1.5-0.9,1.3-1.3,2.6
	c-0.3,1.2-0.2,2.2,0,4.1c0.1,0.7,0.2,1.6,0.7,3.4c0.4,2.2,0.4,2.1,0.6,2.6c0.1,0.9,0.1,1.9,0,4c-0.1,2.1-0.1,2.2,0,2.5
	C340.3,91.9,343.6,92.2,344.5,90.4z"/>
<path class="st5" d="M362.1,89c0.3-0.6,0.2-1.6,0.1-3.5c-0.1-2.4-0.3-2.8-0.4-4.9c0-1.2,0-1.9,0-3.5c0.1-2.8,0.2-2.8,0.1-4
	c0-0.4-0.3-1.6-0.9-3.8c-0.4-2.1-0.6-2.4-0.9-2.6c-0.7-0.6-1.8-0.4-2.3,0.3c-0.4,0.6-0.1,1.3-0.6,2.6c-0.4,1.5-0.9,1.3-1.3,2.6
	c-0.3,1.2-0.2,2.2,0,4.1c0.1,0.7,0.2,1.6,0.7,3.4c0.4,2.2,0.4,2.1,0.6,2.6c0.1,0.9,0.1,1.9,0,4c-0.1,2.1-0.1,2.2,0,2.5
	C357.9,90.4,361.2,90.7,362.1,89z"/>
<polygon class="st1" points="404.3,76.6 404.3,80.4 394.8,80.4 392.9,87.5 392.9,91.6 362.3,91.6 361.8,77.2 "/>
<path class="st0" d="M273.8,42.1"/>
<path class="st6" d="M411.9-37.9c0.3,1,1.3,2.2,14.1,1.9c11.9-0.3,17.8-0.4,18.7-3.4c1.4-4.9-6.4-14.3-11.3-15.9
	c-2.4-0.7-4.8-0.6-4.8-0.6s-1.9,0.1-3.7,0.9C420.1-52.9,410.3-42.6,411.9-37.9z"/>
<path class="st7" d="M432.8-59.5c3-2.1,0.2-15,0-16.2c-0.3-1.5-0.9-4.1-1.4-4.1c-0.7,0-0.2,4.1-1.4,10.7c-0.8,4.6-1.7,6.5-0.9,8.1
	C430-59.5,431.7-58.8,432.8-59.5z"/>
<polygon class="st1" points="422.4,78.7 407.4,79.7 409.5,11.4 442.2,11.4 443.3,26.1 415,40.5 424.3,66 "/>
<path class="st8" d="M428.9,29.7c-0.8-0.9,0-4.1,0.4-5.9c0.3-1.2,0.4-1.8,0.3-2.4c-0.4-1.2-1.7-0.7-2.2-1.9c-0.8-1.5,0.3-5,2.2-6.8
	c1.2-1.2,2.1-1,2.5-2.2c0.4-1.3-0.4-2.4,0-3.7c0.6-1.5,2.3-2.2,2.9-1.5c0.4,0.4-0.1,1.3,0.1,2.9c0.2,1.9,1.1,2.1,1.7,4.1
	c0.3,1.2,0.1,1.3,0.3,5c0.2,3.8,0.4,4,0.3,5.6c-0.1,0.9-0.4,3.2-1.8,4.9c-0.3,0.4-0.6,0.4-4.8,1.9C429.6,29.9,429.1,30,428.9,29.7z"
	/>
<path class="st4" d="M613,115.6c-2.2-1.9-5.1-1.2-6.9-0.4c0.2,6.6,0.4,16.3,0,27.9c-1,26-4.1,40.9,0.6,44.5c2.5,1.9,6.4,0.6,8.6-1.9
	c4.6-5.4,0.8-14.6,0.2-36.3C614.8,129.7,617.4,119.4,613,115.6z"/>
<path class="st0" d="M657.5,127.5c3.5,3.2,1.9,10.1,2,27.2c0.2,19.3,2.4,27-1.7,31.5c-1.2,1.3-3.6,2.9-5.4,1.9
	c-3.7-2.4-0.7-13.8-2-33.5c-1.1-15.6-4.1-23.1-0.9-26.7C651.7,125.4,655.3,125.4,657.5,127.5z"/>
<path class="st0" d="M679.8,127.9c-1.8-1.3-4.3-1.3-5.8,0.3c-3.1,3.2-0.4,11,0.3,24.3c1.1,20-3.5,29.8,0.8,33.8
	c2.2,2.1,5.7,1.6,7.7-0.4c3.5-3.7,0.9-11,0-29.7C681.9,138.9,683.5,130.8,679.8,127.9z"/>
<path class="st5" d="M662.8,88.2c0.3-0.6,0.2-1.6,0.1-3.5c-0.1-2.4-0.3-2.8-0.4-4.9c0-1.2,0-1.9,0-3.5c0.1-2.8,0.2-2.8,0.1-4
	c0-0.4-0.3-1.6-0.9-3.8c-0.4-2.1-0.6-2.4-0.9-2.6c-0.7-0.6-1.8-0.4-2.3,0.3c-0.4,0.6-0.1,1.3-0.6,2.6c-0.4,1.5-0.9,1.3-1.3,2.6
	c-0.3,1.2-0.2,2.2,0,4.1c0.1,0.7,0.2,1.6,0.7,3.4c0.4,2.2,0.4,2.1,0.6,2.6c0.1,0.9,0.1,1.9,0,4c-0.1,2.1-0.1,2.2,0,2.5
	C658.6,89.7,661.9,90,662.8,88.2z"/>
<path class="st5" d="M675.5,88.2c0.3-0.6,0.2-1.6,0.1-3.5c-0.1-2.4-0.3-2.8-0.4-4.9c0-1.2,0-1.9,0-3.5c0.1-2.8,0.2-2.8,0.1-4
	c0-0.4-0.3-1.6-0.9-3.8c-0.4-2.1-0.6-2.4-0.9-2.6c-0.7-0.6-1.8-0.4-2.3,0.3c-0.4,0.6-0.1,1.3-0.6,2.6c-0.4,1.5-0.9,1.3-1.3,2.6
	c-0.3,1.2-0.2,2.2,0,4.1c0.1,0.7,0.2,1.6,0.7,3.4c0.4,2.2,0.4,2.1,0.6,2.6c0.1,0.9,0.1,1.9,0,4c-0.1,2.1-0.1,2.2,0,2.5
	C671.2,89.7,674.5,90,675.5,88.2z"/>
<polygon class="st1" points="593.5,75.7 608.5,76.8 606.5,8.4 573.7,8.4 572.6,23.1 600.9,37.5 591.5,63.1 "/>
<path class="st8" d="M587.2,29.7c0.8-0.9,0-4.1-0.4-5.9c-0.3-1.2-0.4-1.8-0.3-2.4c0.4-1.2,1.7-0.7,2.2-1.9c0.8-1.5-0.3-5-2.2-6.8
	c-1.2-1.2-2.1-1-2.5-2.2c-0.4-1.3,0.4-2.4,0-3.7c-0.6-1.5-2.3-2.2-2.9-1.5c-0.4,0.4,0.1,1.3-0.1,2.9c-0.2,1.9-1.1,2.1-1.7,4.1
	c-0.3,1.2-0.1,1.3-0.3,5c-0.2,3.8-0.4,4-0.3,5.6c0.1,0.9,0.4,3.2,1.8,4.9c0.3,0.4,0.6,0.4,4.8,1.9C586.5,29.9,587,30,587.2,29.7z"/>
<polygon class="st1" points="614,73.7 614,77.5 623.5,77.5 625.5,84.5 625.5,88.7 656,88.7 656.5,74.3 "/>
<polygon class="st1" points="601.6,-32.3 567,-32.3 567,-11 603.3,-8.9 "/>
<path class="st6" d="M600-36.4c-0.3,1-1.3,2.2-14.1,1.9c-11.9-0.3-17.8-0.4-18.7-3.4c-1.4-4.9,6.4-14.3,11.3-15.9
	c2.4-0.7,4.8-0.6,4.8-0.6s1.9,0.1,3.7,0.9C591.8-51.4,601.6-41.1,600-36.4z"/>
<path class="st7" d="M581.4-59.5c-3-2.1-0.2-15,0-16.2c0.3-1.5,0.9-4.1,1.4-4.1c0.7,0,0.2,4.1,1.4,10.7c0.8,4.6,1.7,6.5,0.9,8.1
	C584.3-59.5,582.5-58.8,581.4-59.5z"/>
<path class="st0" d="M608.3,114.1c-0.6-0.6,0-1.3-0.4-2.8c-0.3-1.2-0.8-1.2-1.5-2.8c-0.6-1.3-0.9-1.9-0.8-2.6
	c0.2-1.2,1.3-1.6,1.4-1.8c0.2-0.1,1.1-0.4,1.5,0c0.2,0.3,0.2,0.6,0.3,2.1c0.1,1.6,0.2,1.9,0.3,2.2c0.1,0.3,0.4,0.9,1,1.2
	c0.7,0.3,1.3,0,1.9-0.4c0.4-0.4,0.6-1.2,0.8-2.6c0.1-1.3,0.1-1.8,0.2-2.1l0,0c0,0,0-0.1,0.1-0.1c0.1,0,1.4-0.9,2.3,0
	c0.7,0.7,0.6,1.9,0.3,3.2c-0.2,1.6-0.7,2.8-0.9,3.1c-0.4,0.9-1.1,2.4-2.5,3.2C611.3,114.5,609.2,115.1,608.3,114.1z"/>
<path class="st0" d="M651,124.2c-0.6-0.6,0-1.3-0.4-2.8c-0.3-1.2-0.8-1.2-1.5-2.8c-0.6-1.3-0.9-1.9-0.8-2.6c0.2-1.2,1.3-1.6,1.4-1.8
	c0.2-0.1,1.1-0.4,1.5,0c0.2,0.3,0.2,0.6,0.3,2.1c0.1,1.6,0.2,1.9,0.3,2.2c0.1,0.3,0.4,0.9,1,1.2c0.7,0.3,1.3,0,1.9-0.4
	c0.4-0.4,0.6-1.2,0.8-2.6c0.1-1.3,0.1-1.8,0.2-2.1l0,0c0,0,0-0.1,0.1-0.1c0.1,0,1.4-0.9,2.3,0c0.7,0.7,0.6,1.9,0.3,3.2
	c-0.2,1.6-0.7,2.8-0.9,3.1c-0.4,0.9-1.1,2.4-2.5,3.2C654,124.7,651.9,125.3,651,124.2z"/>
<path class="st0" d="M674.4,126.7c-0.6-0.6,0-1.3-0.4-2.8c-0.3-1.2-0.8-1.2-1.5-2.8c-0.6-1.3-0.9-1.9-0.8-2.6
	c0.2-1.2,1.3-1.6,1.4-1.8c0.2-0.1,1.1-0.4,1.5,0c0.2,0.3,0.2,0.6,0.3,2.1c0.1,1.6,0.2,1.9,0.3,2.2c0.1,0.3,0.4,0.9,1,1.2
	c0.7,0.3,1.3,0,1.9-0.4c0.4-0.4,0.6-1.2,0.8-2.6c0.1-1.3,0.1-1.8,0.2-2.1l0,0c0,0,0-0.1,0.1-0.1c0.1,0,1.4-0.9,2.3,0
	c0.7,0.7,0.6,1.9,0.3,3.2c-0.2,1.6-0.7,2.8-0.9,3.1c-0.4,0.9-1.1,2.4-2.5,3.2C677.2,127.3,675.1,127.8,674.4,126.7z"/>
<ellipse class="st0" cx="610.7" cy="105.1" rx="1.4" ry="2.1"/>
<ellipse class="st0" cx="654.3" cy="116.4" rx="1.4" ry="2.1"/>
<ellipse class="st0" cx="676.8" cy="118.5" rx="1.4" ry="2.1"/>
<polygon class="st1" points="573.4,-1.4 603,-1.4 588.1,-10.7 "/>
<path class="st6" d="M472.3-92.3c1.1,1.2,4.5-6.5,13.5-10.7c3.2-1.5,7-2.1,14.9-3.4c6.2-0.9,9.3-1.5,12.4-1.2
	c7,0.7,12.6,3.7,13.8,4.4c6.1,3.4,7.7,6.6,8.8,5.6c2-1.9-0.6-15.3-7.5-23.2c-3.2-3.7-6.5-5.1-10.8-7.1c-3.3-1.5-7.9-3.5-14.1-2.9
	c-2.2,0.1-5.9,0.6-10.2,3.4c-3.3,2.1-5.5,4.7-7.2,7.1C478-109.6,470.7-94,472.3-92.3z"/>
<path class="st7" d="M503.3-140.3c-1.2-1.2-0.4-4.3,0-9.6c1-11.6-0.9-18.7,0.3-19.1c0.9-0.3,2.6,3.7,3.3,5.9
	c1.4,4.4,0.4,5.3,1.4,15.4c0.2,2.5,0.4,4.1-0.3,5.6C506.9-140.2,504.5-139.3,503.3-140.3z"/>
<path class="st1" d="M469.5-57.3c1.9,0.7,3.4-7.6,9.7-14.7c5.5-6.2,11.5-7.6,17.1-9.3c11.9-3.1,21.3,0.3,23.5,1.2
	c5.9,2.4,11.6,4.4,16.3,11c3.1,4.3,4.8,9,6.9,8.5c1.7-0.4,2.8-4.3,2.8-7.3c0-7.1-5.7-12.1-9.7-15.4c-7.4-6.5-14.4-8.4-18.7-9.6
	c-4-1-10.6-2.6-19.1-1.2c-9.6,1.8-16.2,6.6-18.5,8.5c-4.6,3.7-8.8,7.2-10.8,14C467.2-65.5,467.7-58,469.5-57.3z"/>
<path class="st8" d="M496.4-18L496.4-18c-2.2,0-4-2.4-4-5.3v-45.3c0-2.9,1.8-5.3,4-5.3l0,0c2.2,0,4,2.4,4,5.3v45.3
	C500.3-20.4,498.6-18,496.4-18z"/>
<path class="st8" d="M516.4-20.7c-2.3,0-4.3-2.5-4.3-5.7v-43.9c0-3.1,1.9-5.7,4.3-5.7c2.4,0,4.3,2.5,4.3,5.7v43.9
	C520.7-23.2,518.7-20.7,516.4-20.7z"/>
<path class="st8" d="M482.4-12.5L482.4-12.5c-1.2,0-2.2-1.3-2.2-2.9v-46.4c0-1.6,1-2.9,2.2-2.9l0,0c1.2,0,2.2,1.3,2.2,2.9v46.4
	C484.5-13.8,483.6-12.5,482.4-12.5z"/>
<path class="st8" d="M530.5-14.7L530.5-14.7c-1.1,0-2-1.2-2-2.6v-46c0-1.5,0.9-2.6,2-2.6l0,0c1.1,0,2,1.2,2,2.6v46
	C532.6-16,531.6-14.7,530.5-14.7z"/>
<path class="st8" d="M510.5-19.8c0,1,0,2.6,0,4.4c0,10.9-0.4,11.8-0.9,12.5c-2.3,3.7-9,2.5-9.9-0.4c-0.3-1.2,0.6-1.8,2-7.3
	c1-4,1-5.3,0.6-6.3c-0.7-1.3-1.7-0.9-2.2-2.2c-0.7-1.6,0.1-3.8,0.9-5.1c0.7-1.2,1-0.7,2.5-2.6c1.4-1.6,1.4-2.2,2.5-2.9
	c0.4-0.3,1.9-1.2,2.8-0.4c0.8,0.7,0.9,2.6,0.3,4.4L510.5-19.8z"/>
</svg>
