<?xml version="1.0" encoding="utf-8"?>
<!-- Generator: Adobe Illustrator 19.0.0, SVG Export Plug-In . SVG Version: 6.00 Build 0)  -->
<svg version="1.1" id="Слой_1" xmlns="http://www.w3.org/2000/svg" xmlns:xlink="http://www.w3.org/1999/xlink" x="0px" y="0px"
	 viewBox="-74 151 200 200" style="enable-background:new -74 151 200 200;" xml:space="preserve">
<style type="text/css">
	.st0{fill:#FFFFFF;stroke:#201600;stroke-width:3;stroke-miterlimit:10;}
	.st1{fill:#201600;stroke:#FFFFFF;stroke-width:3;stroke-miterlimit:10;}
	.st0,.st1{
	stroke-dasharray: 1000;
        stroke-dashoffset: 1000;
        animation:draw 3.5s linear forwards .5s;
	}
	.st2{fill:#FFFFFF;}
	.st3{fill:#201600;}
	@keyframes draw {
	to {
    stroke-dashoffset: 0;
    }
}
</style>
<path id="XMLID_1_" class="st0" d="M106,317.4H-49.8c-6.6,0-12-5.4-12-12v-72.2c0-6.6,5.4-12,12-12H106c6.6,0,12,5.4,12,12v72.2
	C118,312,112.6,317.4,106,317.4z"/>
<ellipse id="XMLID_2_" class="st0" cx="72.6" cy="270.9" rx="26.9" ry="26.6"/>
<ellipse id="XMLID_3_" class="st1" cx="72.8" cy="270.7" rx="19" ry="18.8"/>
<path id="XMLID_4_" class="st0" d="M-21.7,219.8h-26.2c-2.9,0-5.3-2.4-5.3-5.3l0,0c0-2.9,2.4-5.3,5.3-5.3h26.2
	c2.9,0,5.3,2.4,5.3,5.3l0,0C-16.4,217.4-18.8,219.8-21.7,219.8z"/>
<path id="XMLID_5_" class="st0" d="M-0.3,236.6h-46.6c-1.2,0-2.2-1-2.2-2.2l0,0c0-1.2,1-2.2,2.2-2.2h46.6c1.2,0,2.2,1,2.2,2.2l0,0
	C1.9,235.7,0.9,236.6-0.3,236.6z"/>
<ellipse id="XMLID_6_" class="st2" cx="72.6" cy="269.4" rx="3.4" ry="3.2"/>
</svg>
