<?xml version="1.0" encoding="utf-8"?>
<!-- Generator: Adobe Illustrator 19.0.0, SVG Export Plug-In . SVG Version: 6.00 Build 0)  -->
<svg version="1.1" id="Слой_1" xmlns="http://www.w3.org/2000/svg" xmlns:xlink="http://www.w3.org/1999/xlink" x="0px" y="0px"
	 viewBox="0 0 300 300" style="enable-background:new 0 0 300 300;" xml:space="preserve">
<style type="text/css">
	.st0{fill:#FFFFFF;}
	.st1{fill:#EA5757;}
	.st2{fill:#8E71F4;}
	.st3{fill:#EF8EB5;}
	.st4{fill:#F9F7F8;}
	.st5{font-family:'MyriadPro-Regular';}
	.st6{font-size:7px;}
	.st7{font-size:5px;}
	.st8{font-family:'MyriadPro-Bold';}
	.st9{font-size:6px;}
	.st10{fill:none;stroke:#000000;stroke-miterlimit:10;}
	.st11{font-size:8px;}
	.st12{fill:#F4EFF1;}
	.st13{font-family:'LucidaSansUnicode';}
	.st14{fill:none;stroke:#F40C34;stroke-width:3;stroke-miterlimit:10;}
</style>
<g id="XMLID_41_">
	<rect id="XMLID_38_" y="2" class="st0" width="300" height="296.5"/>
	<rect id="XMLID_2_" x="7" y="52" class="st1" width="143" height="98"/>
	<rect id="XMLID_3_" x="6.5" y="153" class="st1" width="143" height="98"/>
	<rect id="XMLID_4_" x="7" y="65.5" class="st2" width="143" height="15"/>
	<rect id="XMLID_5_" x="7" y="80.5" class="st3" width="143" height="55.8"/>
	<rect id="XMLID_6_" x="14.3" y="80.5" class="st4" width="44" height="55.8"/>
	<text id="XMLID_7_" transform="matrix(1 0 0 1 23.6667 60.9998)" class="st5 st6">Федеральная миграционная служба</text>
	<text id="XMLID_8_" transform="matrix(1 0 0 1 85.6668 75.3333)" class="st5 st6">ПАТЕНТ</text>
	<text id="XMLID_9_" transform="matrix(1 0 0 1 60.9998 88.6665)" class="st5 st7">Серия</text>
	<text id="XMLID_10_" transform="matrix(1 0 0 1 94.333 88.6665)" class="st5 st7">№</text>
	<text id="XMLID_11_" transform="matrix(1 0 0 1 60.9998 95.3332)" class="st5 st7">Фамилия</text>
	<text id="XMLID_12_" transform="matrix(1 0 0 1 60.9997 101)" class="st5 st7">Имя</text>
	<text id="XMLID_13_" transform="matrix(1 0 0 1 60.9995 106.75)" class="st5 st7">Отчество</text>
	<text id="XMLID_14_" transform="matrix(1 0 0 1 60.9995 112.3332)" class="st5 st7">Дата рождения</text>
	<text id="XMLID_15_" transform="matrix(1 0 0 1 60.9998 119.6665)" class="st5 st7">Гражданство</text>
	<text id="XMLID_16_" transform="matrix(1 0 0 1 60.9998 127.0002)" class="st5 st7">Документ удост. личность/ИНН</text>
	<text id="XMLID_17_" transform="matrix(1 0 0 1 60.9998 134)" class="st5 st7">Профессия</text>
	<rect id="XMLID_18_" x="6.5" y="166.5" class="st2" width="143" height="15"/>
	<rect id="XMLID_19_" x="6.5" y="181.5" class="st3" width="143" height="55.8"/>
	<text id="XMLID_20_" transform="matrix(1 0 0 1 112.3105 174)"><tspan x="0" y="0" class="st8 st9">ФМС</tspan><tspan x="-1" y="6" class="st5 st7">России</tspan></text>
	<text id="XMLID_21_" transform="matrix(1 0 0 1 13.2588 166.5)" class="st5 st9">Особые отметки</text>
	<text id="XMLID_22_" transform="matrix(1 0 0 1 11.818 178)" class="st5 st9">Территория действия патента</text>
	<text id="XMLID_23_" transform="matrix(1 0 0 1 12.5021 196)" class="st5 st9">Кем выдано</text>
	<text id="XMLID_24_" transform="matrix(1 0 0 1 12.1466 183.6668)" class="st5 st9">Санкт-Петербург и Лен. область</text>
	<text id="XMLID_25_" transform="matrix(1 0 0 1 11.9875 202)" class="st5 st9">УФМС России по СПб и ЛО</text>
	<text id="XMLID_26_" transform="matrix(1 0 0 1 13.6113 226.3333)" class="st5 st9">Дата выдачи</text>
	<circle id="XMLID_27_" class="st10" cx="37" cy="106.7" r="11.3"/>
	<path id="XMLID_28_" class="st10" d="M16,134c0.8-1.9,3.3-7.3,9.3-11c4.8-3,9.5-3.3,11.7-3.3c2.3,0.3,6.8,1.2,11.3,4.3
		c5.1,3.5,7.6,7.9,8.7,10"/>
	<path id="XMLID_30_" d="M246.3,14.3h-30.8c-1.6,0-2.9-1.3-2.9-2.9v0c0-1.6,1.3-2.9,2.9-2.9h30.8c1.6,0,2.9,1.3,2.9,2.9v0
		C249.3,13,247.9,14.3,246.3,14.3z"/>
	<text id="XMLID_29_" transform="matrix(1 0 0 1 7 13.3332)"><tspan x="0" y="0" class="st5 st11">В справке с работы/трудовом договоре должность должна </tspan><tspan x="207" y="0" class="st12 st5 st11">совпадать</tspan><tspan x="242.5" y="0" class="st5 st11"> с категорией</tspan><tspan x="0" y="9.6" class="st5 st11">«Профессия» в патенте. Например, если в патенте в поле «Профессия» указано</tspan><tspan x="0" y="19.2" class="st5 st11">«разнорабочий», то и в справке  с работы/трудовом договоре должность должна</tspan><tspan x="0" y="28.8" class="st5 st11"> быть указана как «разнорабочий»</tspan></text>
	<path id="XMLID_32_" class="st10" d="M143.3,40c50.5,0,101,0,151.5,0c0,31.3-0.1,62.7-0.1,94c-68.9,0-137.8,0-206.7,0"/>
	<text id="XMLID_31_" transform="matrix(1 0 0 1 155.6667 181.5)"><tspan x="0" y="0" class="st5 st11">Территория должна входить в Северо-</tspan><tspan x="0" y="9.6" class="st5 st11">Западный консульский округ (СЗКО)</tspan></text>
	<line id="XMLID_34_" class="st10" x1="153.7" y1="181.5" x2="100" y2="181.5"/>
	<text id="XMLID_33_" transform="matrix(1 0 0 1 155.6664 224.6667)"><tspan x="0" y="0" class="st5 st11">Патент должен подтверждать полугодо-</tspan><tspan x="0" y="9.6" class="st5 st11">вое пребывание заявителя на террито-</tspan><tspan x="0" y="19.2" class="st5 st11">рии СЗКО</tspan></text>
	<line id="XMLID_36_" class="st10" x1="153.7" y1="226.3" x2="49.7" y2="226.3"/>
	<text id="XMLID_35_" transform="matrix(1 0 0 1 13.6665 268)" class="st13 st9">Помимо самого патента нужно предоставить квитанции об уплате платежей по патенту</text>
	<path id="XMLID_37_" class="st14" d="M275.8,272.3H16.2c-3.8,0-6.8-3.1-6.8-6.8l0,0c0-3.8,3.1-6.8,6.8-6.8h259.7
		c3.8,0,6.8,3.1,6.8,6.8l0,0C282.7,269.3,279.6,272.3,275.8,272.3z"/>
	<circle id="XMLID_1_" cx="49.7" cy="226.3" r="1.9"/>
	<circle id="XMLID_39_" cx="88" cy="134" r="1.9"/>
	<circle id="XMLID_40_" cx="100" cy="181.5" r="1.9"/>
</g>
</svg>
