<?xml version="1.0" encoding="utf-8"?>
<!-- Generator: Adobe Illustrator 19.0.0, SVG Export Plug-In . SVG Version: 6.00 Build 0)  -->
<svg version="1.1" id="Слой_1" xmlns="http://www.w3.org/2000/svg" xmlns:xlink="http://www.w3.org/1999/xlink" x="0px" y="0px"
	 viewBox="0 0 300 300" style="enable-background:new 0 0 300 300;" xml:space="preserve">
<style type="text/css">
	.st0{fill:#FFFFFF;}
	.st1{fill:#F9F4F5;stroke:#050505;stroke-miterlimit:10;}
	.st2{font-family:'MyriadPro-Regular';}
	.st3{font-size:12px;}
	.st4{fill:#FFFFFF;stroke:#050505;stroke-miterlimit:10;}
</style>
<g id="XMLID_44_">
	<rect id="XMLID_1_" x="1.8" class="st0" width="295.4" height="300"/>
	<g id="XMLID_42_">
		<g id="XMLID_28_">
			
				<rect id="XMLID_40_" x="37.6" y="57.1" transform="matrix(0.9835 -0.1807 0.1807 0.9835 -26.095 18.9795)" class="st1" width="107.1" height="191.4"/>
			<text id="XMLID_39_" transform="matrix(0.9835 -0.1807 0.1807 0.9835 57.2273 87.4961)" class="st2 st3">Платеж</text>
			<line id="XMLID_38_" class="st4" x1="42.9" y1="105.1" x2="117.8" y2="91.3"/>
			<line id="XMLID_37_" class="st4" x1="45.1" y1="117.1" x2="120" y2="103.3"/>
			<line id="XMLID_36_" class="st4" x1="47.4" y1="129.5" x2="122.3" y2="115.7"/>
			<line id="XMLID_35_" class="st4" x1="49.6" y1="141.5" x2="124.5" y2="127.8"/>
			<line id="XMLID_34_" class="st4" x1="52" y1="154.5" x2="126.9" y2="140.8"/>
			<line id="XMLID_33_" class="st4" x1="55.2" y1="167.8" x2="130.1" y2="154"/>
			<line id="XMLID_32_" class="st4" x1="56.9" y1="181" x2="131.7" y2="167.2"/>
			<line id="XMLID_31_" class="st4" x1="59.4" y1="194.9" x2="134.3" y2="181.1"/>
			<text id="XMLID_30_" transform="matrix(0.9835 -0.1807 0.1807 0.9835 58.6952 221.9306)"><tspan x="0" y="0" class="st2 st3">Итого </tspan><tspan x="33.2" y="0" class="st2 st3">	</tspan><tspan x="36" y="0" class="st2 st3">     3500 руб</tspan></text>
			<text id="XMLID_29_" transform="matrix(0.9835 -0.1807 0.1807 0.9835 66.1332 242.7564)" class="st2 st3">Дата 02.12.2018</text>
		</g>
		<g id="XMLID_14_">
			<rect id="XMLID_2_" x="87.1" y="48.8" class="st1" width="107.1" height="191.4"/>
			<text id="XMLID_3_" transform="matrix(1 0 0 1 119.0862 74.1471)" class="st2 st3">Платеж</text>
			<line id="XMLID_5_" class="st4" x1="101.8" y1="88.9" x2="178" y2="88.9"/>
			<line id="XMLID_4_" class="st4" x1="101.8" y1="101.1" x2="178" y2="101.1"/>
			<line id="XMLID_6_" class="st4" x1="101.8" y1="113.7" x2="178" y2="113.7"/>
			<line id="XMLID_7_" class="st4" x1="101.8" y1="125.9" x2="178" y2="125.9"/>
			<line id="XMLID_8_" class="st4" x1="101.8" y1="139.1" x2="178" y2="139.1"/>
			<line id="XMLID_9_" class="st4" x1="102.6" y1="152.7" x2="178.7" y2="152.7"/>
			<line id="XMLID_10_" class="st4" x1="101.8" y1="166" x2="178" y2="166"/>
			<line id="XMLID_11_" class="st4" x1="101.8" y1="180.2" x2="178" y2="180.2"/>
			<text id="XMLID_12_" transform="matrix(1 0 0 1 96.2437 206.6349)"><tspan x="0" y="0" class="st2 st3">Итого </tspan><tspan x="33.2" y="0" class="st2 st3">	</tspan><tspan x="36" y="0" class="st2 st3">     3500 руб</tspan></text>
			<text id="XMLID_13_" transform="matrix(1 0 0 1 99.7969 228.462)" class="st2 st3">Дата 02.12.2018</text>
		</g>
		<g id="XMLID_15_">
			
				<rect id="XMLID_27_" x="151.5" y="57.5" transform="matrix(0.9893 0.1462 -0.1462 0.9893 24.5994 -28.3344)" class="st1" width="107.1" height="191.4"/>
			<text id="XMLID_26_" transform="matrix(0.9893 0.1462 -0.1462 0.9893 193.9632 80.449)" class="st2 st3">Платеж</text>
			<line id="XMLID_25_" class="st4" x1="174.7" y1="92.5" x2="250.1" y2="103.6"/>
			<line id="XMLID_24_" class="st4" x1="173" y1="104.5" x2="248.3" y2="115.7"/>
			<line id="XMLID_23_" class="st4" x1="171.1" y1="117" x2="246.4" y2="128.1"/>
			<line id="XMLID_22_" class="st4" x1="169.3" y1="129.1" x2="244.6" y2="140.3"/>
			<line id="XMLID_21_" class="st4" x1="167.4" y1="142.2" x2="242.7" y2="153.3"/>
			<line id="XMLID_20_" class="st4" x1="166.1" y1="155.8" x2="241.5" y2="166.9"/>
			<line id="XMLID_19_" class="st4" x1="163.5" y1="168.8" x2="238.8" y2="180"/>
			<line id="XMLID_18_" class="st4" x1="161.4" y1="182.8" x2="236.7" y2="193.9"/>
			<text id="XMLID_17_" transform="matrix(0.9893 0.1462 -0.1462 0.9893 151.9923 208.1722)"><tspan x="0" y="0" class="st2 st3">Итого </tspan><tspan x="33.2" y="0" class="st2 st3">	</tspan><tspan x="36" y="0" class="st2 st3">     3500 руб</tspan></text>
			<text id="XMLID_16_" transform="matrix(0.9893 0.1462 -0.1462 0.9893 152.3155 230.2842)" class="st2 st3">Дата 02.12.2018</text>
		</g>
	</g>
	<text id="XMLID_41_" transform="matrix(1 0 0 1 20.1495 15.873)"><tspan x="0" y="0" class="st2 st3">Своевременное внесение авансовых платежей по </tspan><tspan x="6.8" y="14.4" class="st2 st3">патенту является основанием для продлевания </tspan><tspan x="21.4" y="28.8" class="st2 st3">законного нахождения на территории РФ!</tspan></text>
	<text id="XMLID_43_" transform="matrix(1 0 0 1 28.6141 274.7566)"><tspan x="0" y="0" class="st2 st3">Для подтверждения законного полугодового</tspan><tspan x="-16.5" y="14.4" class="st2 st3">пребывания нужны чеки за предыдущие 6 месяцев!</tspan></text>
</g>
</svg>
