<?xml version="1.0" encoding="utf-8"?>
<!-- Generator: Adobe Illustrator 19.0.0, SVG Export Plug-In . SVG Version: 6.00 Build 0)  -->
<svg version="1.1" id="Слой_1" xmlns="http://www.w3.org/2000/svg" xmlns:xlink="http://www.w3.org/1999/xlink" x="0px" y="0px"
	 viewBox="0 0 300 300" style="enable-background:new 0 0 300 300;" xml:space="preserve">
<style type="text/css">
	.st0{fill:#FFFFFF;}
	.st1{fill:#FFFFFF;stroke:#201600;stroke-miterlimit:10;}
	.st2{fill:#FFFFFF;stroke:#070707;stroke-width:2;stroke-miterlimit:10;}
	.st3{fill:#FFFFFF;stroke:#070707;stroke-miterlimit:10;}
	.st4{fill:#FFFFFF;stroke:#020202;stroke-miterlimit:10;}
	.st5{fill:none;stroke:#F21621;stroke-miterlimit:10;}
	.st6{fill:none;stroke:#F21621;stroke-width:0.5;stroke-miterlimit:10;}
	.st7{font-family:'MyriadPro-Bold';}
	.st8{font-size:12px;}
	.st9{font-family:'MyriadPro-Regular';}
	.st10{fill:#F7F7F9;}
	.st11{fill:#FFFFFF;stroke:#0707AA;stroke-width:2;stroke-miterlimit:10;}
	.st12{fill:none;stroke:#0707AA;stroke-width:2;stroke-miterlimit:10;}
	.st13{fill:none;stroke:#000000;stroke-miterlimit:10;}
</style>
<rect id="XMLID_1_" class="st0" width="300" height="300"/>
<rect id="XMLID_26_" x="33" y="20" width="102.5" height="11"/>
<rect id="XMLID_27_" x="160.9" y="35.2" width="86" height="11"/>
<path id="XMLID_2_" class="st1" d="M121.3,277.3c0.6-16.7,0.9-33.9,1-51.5c0-16.7-0.2-33-0.6-48.8c49.8,0.2,99.5,0.3,149.3,0.5
	c-0.4,15.9-0.6,32-0.7,48.4c-0.1,17.6,0,34.9,0.3,51.9C220.8,277.7,171,277.5,121.3,277.3z"/>
<path id="XMLID_3_" class="st1" d="M121.1,172.3c0.6-16.7,0.9-33.9,1-51.5c0-16.7-0.2-33-0.6-48.8c49.8,0.2,99.5,0.3,149.3,0.5
	c-0.4,15.9-0.6,32-0.7,48.4c-0.1,17.6,0,34.9,0.3,51.9C220.7,172.6,170.9,172.4,121.1,172.3z"/>
<rect id="XMLID_4_" x="129.1" y="186.4" class="st2" width="132.5" height="81.2"/>
<line id="XMLID_6_" class="st3" x1="138.8" y1="196.6" x2="251.5" y2="196.6"/>
<line id="XMLID_5_" class="st3" x1="138.8" y1="210.8" x2="251.5" y2="210.8"/>
<line id="XMLID_7_" class="st3" x1="138.8" y1="224.5" x2="251.5" y2="224.5"/>
<line id="XMLID_9_" class="st3" x1="138.8" y1="235.2" x2="167.2" y2="235.2"/>
<line id="XMLID_8_" class="st3" x1="138.8" y1="245.3" x2="167.2" y2="245.3"/>
<line id="XMLID_10_" class="st3" x1="138.8" y1="255.5" x2="167.2" y2="255.5"/>
<line id="XMLID_12_" class="st4" x1="186.5" y1="235.2" x2="251.5" y2="235.2"/>
<line id="XMLID_11_" class="st4" x1="186.5" y1="245.3" x2="251.5" y2="245.3"/>
<line id="XMLID_13_" class="st4" x1="186.5" y1="255.5" x2="251.5" y2="255.5"/>
<circle id="XMLID_14_" class="st5" cx="232.6" cy="249.7" r="16.9"/>
<circle id="XMLID_15_" class="st6" cx="232.6" cy="249.7" r="14.3"/>
<text id="XMLID_24_" transform="matrix(1 0 0 1 5.0457 13.9162)"><tspan x="0" y="0" class="st7 st8">РВП </tspan><tspan x="24.8" y="0" class="st9 st8">должно подтверждать нахождение на территории</tspan><tspan x="0" y="14.4" class="st9 st8">СЗКО </tspan><tspan x="30.2" y="14.4" class="st10 st9 st8">не менее полугода</tspan><tspan x="0" y="28.8" class="st7 st8">РВП </tspan><tspan x="24.8" y="28.8" class="st9 st8">должно действовать еще </tspan><tspan x="158.2" y="28.8" class="st10 st9 st8">минимум месяц</tspan><tspan x="240.8" y="28.8" class="st9 st8"> со дня </tspan><tspan x="0" y="43.2" class="st9 st8">подачи документов на визу</tspan></text>
<rect id="XMLID_28_" x="20.1" y="125.3" width="93.5" height="16.8"/>
<text id="XMLID_25_" transform="matrix(1 0 0 1 5.0457 107.4289)"><tspan x="0" y="0" class="st7 st8">Регистрация</tspan><tspan x="70.8" y="0" class="st9 st8"> должна </tspan><tspan x="0" y="14.4" class="st9 st8">быть</tspan><tspan x="0" y="28.8" class="st9 st8">на </tspan><tspan x="14.9" y="28.8" class="st10 st9 st8">территории СЗКО</tspan></text>
<line id="XMLID_23_" class="st11" x1="219.9" y1="91.2" x2="219.1" y2="149.7"/>
<line id="XMLID_22_" class="st11" x1="208.7" y1="91.1" x2="208" y2="149.6"/>
<path id="XMLID_16_" class="st12" d="M214.4,159.7L214.4,159.7c-10.1,0-18.3-8.2-18.3-18.3V99.8c0-10.1,8.2-18.3,18.3-18.3h0
	c10.1,0,18.3,8.2,18.3,18.3v41.6C232.6,151.5,224.4,159.7,214.4,159.7z"/>
<line id="XMLID_18_" class="st13" x1="113.5" y1="116.1" x2="191.2" y2="116.1"/>
<circle id="XMLID_17_" cx="191.2" cy="116.1" r="2.9"/>
<text id="XMLID_19_" transform="matrix(1 0 0 1 20.0551 292.7208)" class="st9 st8">СЗКО  - Северо-западный консульский округ</text>
</svg>
