<?xml version="1.0" encoding="utf-8"?>
<!-- Generator: Adobe Illustrator 19.0.0, SVG Export Plug-In . SVG Version: 6.00 Build 0)  -->
<svg version="1.1" id="Слой_1" xmlns="http://www.w3.org/2000/svg" xmlns:xlink="http://www.w3.org/1999/xlink" x="0px" y="0px"
	 viewBox="0 0 300 300" style="enable-background:new 0 0 300 300;" xml:space="preserve">
<style type="text/css">
	.st0{fill:#FFFFFF;}
	.st1{fill:#FFFFFF;stroke:#020202;stroke-miterlimit:10;}
	.st2{font-family:'MyriadPro-Regular';}
	.st3{font-size:12px;}
	.st4{font-size:8px;}
	.st5{font-size:10px;}
	.st6{letter-spacing:9;}
	.st7{letter-spacing:33;}
	.st8{letter-spacing:13;}
	.st9{fill:none;stroke:#1B1BE2;stroke-width:2;stroke-miterlimit:10;}
	.st10{fill:none;stroke:#1B1BE2;stroke-miterlimit:10;}
	.st11{fill:none;stroke:#5592FF;stroke-miterlimit:10;}
	.st12{fill:#1B91CC;}
	.st13{fill:none;stroke:#000000;stroke-miterlimit:10;}
</style>
<rect id="XMLID_1_" class="st0" width="300" height="300"/>
<rect id="XMLID_2_" x="12.5" y="57.5" class="st1" width="140" height="180.2"/>
<text id="XMLID_3_" transform="matrix(1 0 0 1 27.2083 69.1724)" class="st2 st3">ООО Компания</text>
<text id="XMLID_4_" transform="matrix(1 0 0 1 56.6824 76.2793)"><tspan x="0" y="0" class="st2 st4">адрес</tspan><tspan x="4.4" y="6.6" class="st2 st4">тел</tspan><tspan x="-17" y="13.2" class="st2 st4">ИНН/ОГРН/КПП</tspan></text>
<text id="XMLID_5_" transform="matrix(1 0 0 1 59.8048 113.8425)" class="st2 st5">Справка</text>
<line id="XMLID_7_" class="st1" x1="32.3" y1="133.6" x2="130.3" y2="133.6"/>
<line id="XMLID_6_" class="st1" x1="32.3" y1="150" x2="130.3" y2="150"/>
<line id="XMLID_8_" class="st1" x1="32.3" y1="167.1" x2="130.3" y2="167.1"/>
<line id="XMLID_9_" class="st1" x1="32.3" y1="183.9" x2="130.3" y2="183.9"/>
<text id="XMLID_10_" transform="matrix(1 0 0 1 15.4534 229.5785)" class="st2 st5">ДАТА</text>
<text id="XMLID_11_" transform="matrix(1 0 0 1 14.5179 205.2136)"><tspan x="0" y="0" class="st2 st5">Ген. директор</tspan><tspan x="60.6" y="0" class="st2 st5 st6">	</tspan><tspan x="72" y="0" class="st2 st5 st7">	</tspan><tspan x="108" y="0" class="st2 st5">ФИО</tspan><tspan x="0" y="9" class="st2 st5">Гл. бухгалтер</tspan><tspan x="56.8" y="9" class="st2 st5 st8">	</tspan><tspan x="72" y="9" class="st2 st5 st7">	</tspan><tspan x="108" y="9" class="st2 st5">ФИО</tspan></text>
<circle id="XMLID_12_" class="st9" cx="98.5" cy="216" r="20.5"/>
<circle id="XMLID_13_" class="st10" cx="98.5" cy="216" r="17.3"/>
<text id="XMLID_14_" transform="matrix(1 0 0 1 12.4873 18.5)" class="st2 st5">Справка должна быть на фирменном бланке</text>
<path id="XMLID_15_" class="st11" d="M115.7,80.7c3.7,6.6,18.8,6.5,22.3,0c3.5-6.3-3.6-18.7-11.3-18.7
	C119.1,62.1,112.2,74.4,115.7,80.7z"/>
<text id="XMLID_16_" transform="matrix(1 0 0 1 117.3333 77.6665)" class="st12 st2 st5">logo</text>
<text id="XMLID_17_" transform="matrix(1 0 0 1 11 37.3335)" class="st2 st5">Должны содержатся данные компании</text>
<text id="XMLID_18_" transform="matrix(1 0 0 1 171.667 114.6665)"><tspan x="0" y="0" class="st2 st5">Должны быть указаны ФИО</tspan><tspan x="0" y="9" class="st2 st5">сотрудника, его должность, </tspan><tspan x="0" y="18" class="st2 st5">дата с которой он работает и, </tspan><tspan x="0" y="27" class="st2 st5">желательно, среднемесяч-</tspan><tspan x="0" y="36" class="st2 st5">ная заработная плата     </tspan></text>
<text id="XMLID_19_" transform="matrix(1 0 0 1 171.667 182.6663)"><tspan x="0" y="0" class="st2 st5">Должны быть подписи</tspan><tspan x="0" y="9" class="st2 st5">ответственных лиц</tspan></text>
<text id="XMLID_20_" transform="matrix(1 0 0 1 12.4873 257.6664)" class="st2 st5">Справка не должна быть старше месяца</text>
<text id="XMLID_21_" transform="matrix(1 0 0 1 172 222)" class="st2 st5">Печать</text>
<polyline id="XMLID_23_" class="st13" points="143,77.7 238.5,77.7 238.5,15 210,15 "/>
<circle id="XMLID_22_" cx="143" cy="77.6" r="1.4"/>
<polyline id="XMLID_25_" class="st13" points="8,34 3,34 3,79 46.5,79 "/>
<circle id="XMLID_24_" cx="46.5" cy="79" r="1.4"/>
<polyline id="XMLID_27_" class="st13" points="167.3,123.7 138.9,123.7 138.9,158.7 138.9,179 126.8,179 "/>
<line id="XMLID_28_" class="st13" x1="126.8" y1="158.7" x2="138.9" y2="158.7"/>
<line id="XMLID_29_" class="st13" x1="138.9" y1="141.7" x2="126.8" y2="141.7"/>
<circle id="XMLID_26_" cx="126.8" cy="141.7" r="1.4"/>
<circle id="XMLID_30_" cx="126.8" cy="158.7" r="1.4"/>
<circle id="XMLID_31_" cx="126.8" cy="179" r="1.4"/>
<polyline id="XMLID_33_" class="st13" points="171.7,218 161,218 161,229.6 119,229.6 "/>
<polyline id="XMLID_32_" class="st13" points="167.3,183.9 147.1,183.9 147.1,222 132.9,222 132.9,216 "/>
<circle id="XMLID_34_" cx="132.9" cy="216" r="1.4"/>
<circle id="XMLID_35_" cx="119" cy="229.6" r="1.4"/>
<polyline id="XMLID_37_" class="st13" points="11,254.5 6,254.5 6,218 47.9,218 47.9,229.6 40.5,229.6 "/>
<circle id="XMLID_36_" cx="40.5" cy="229.6" r="1.4"/>
</svg>
