<?xml version="1.0" encoding="utf-8"?>
<!-- Generator: Adobe Illustrator 19.0.0, SVG Export Plug-In . SVG Version: 6.00 Build 0)  -->
<svg version="1.1" id="Слой_1" xmlns="http://www.w3.org/2000/svg" xmlns:xlink="http://www.w3.org/1999/xlink" x="0px" y="0px"
	 viewBox="0 0 300 300" style="enable-background:new 0 0 300 300;" xml:space="preserve">
<style type="text/css">
	.st0{fill:#FFFFFF;}
	.st1{fill:#FFFFFF;stroke:#201600;stroke-miterlimit:10;}
	.st2{font-family:'MyriadPro-Regular';}
	.st3{font-size:12px;}
	.st4{fill:none;stroke:#000000;stroke-miterlimit:10;}
	.st5{font-family:'MyriadPro-Bold';}
	.st6{fill:#FCFAFB;}
	.st7{fill:#F9F7F8;}
	.st8{fill:#F9F4F7;}
	.st9{fill:#F7F2F5;}
	.st10{font-size:10px;}
	.st11{fill:#EA0F48;}
</style>
<g>
	<rect y="4" class="st0" width="300" height="296"/>
	<path id="XMLID_1_" class="st1" d="M161.7,249.9H27.2c-4.5,0-8.1-3.6-8.1-8.1V35.7c0-4.5,3.6-8.1,8.1-8.1h134.5
		c4.5,0,8.1,3.6,8.1,8.1v206.1C169.8,246.2,166.2,249.9,161.7,249.9z"/>
	<rect id="XMLID_2_" x="130.3" y="39.7" class="st1" width="29.9" height="41.6"/>
	<rect id="XMLID_15_" x="169.8" y="173.7" width="64" height="9.1"/>
	<rect id="XMLID_16_" x="169.8" y="211.3" width="72.1" height="10.2"/>
	<rect id="XMLID_14_" x="207.9" y="110.5" width="59.4" height="10.7"/>
	<rect id="XMLID_13_" x="171.9" y="86.9" width="43.7" height="12.2"/>
	<text id="XMLID_3_" transform="matrix(1 0 0 1 48.5278 59.5278)" class="st2 st3">Application</text>
	<line id="XMLID_5_" class="st4" x1="41.4" y1="99.1" x2="137.4" y2="99.1"/>
	<line id="XMLID_4_" class="st4" x1="41.4" y1="115.9" x2="137.4" y2="115.9"/>
	<line id="XMLID_6_" class="st4" x1="41.4" y1="131.1" x2="137.4" y2="131.1"/>
	<line id="XMLID_7_" class="st4" x1="41.4" y1="147.3" x2="137.4" y2="147.3"/>
	<line id="XMLID_8_" class="st4" x1="41.4" y1="165.1" x2="137.4" y2="165.1"/>
	<line id="XMLID_9_" class="st4" x1="41.4" y1="182.9" x2="137.4" y2="182.9"/>
	<line id="XMLID_10_" class="st4" x1="41.4" y1="199.6" x2="137.4" y2="199.6"/>
	<text transform="matrix(1 0 0 1 171.8786 71.7104)" class="st5 st3">Анкета </text>
	<text transform="matrix(1 0 0 1 213.6786 71.7104)" class="st2 st3">должна быть</text>
	<text transform="matrix(1 0 0 1 171.8786 84.1104)" class="st2 st3">установленного</text>
	<text transform="matrix(1 0 0 1 171.8786 96.5104)" class="st6 st2 st3">образца</text>
	<text transform="matrix(0.9819 0 0 1 171.8789 107.2437)" class="st5 st3">Анкета</text>
	<text transform="matrix(0.9819 0 0 1 210.5654 107.2437)" class="st2 st3"> заполняется</text>
	<text transform="matrix(0.9819 0 0 1 171.8789 119.6436)" class="st2 st3">строго </text>
	<text transform="matrix(0.9819 0 0 1 208.7002 119.6436)" class="st7 st2 st3">печатными</text>
	<text transform="matrix(0.9819 0 0 1 171.8789 132.0439)" class="st2 st3">буквами (если вручную)/</text>
	<text transform="matrix(0.9819 0 0 1 171.8789 144.4438)" class="st2 st3">либо на сайте Визового</text>
	<text transform="matrix(0.9819 0 0 1 171.8789 156.8438)" class="st2 st3">центра</text>
	<text transform="matrix(0.9819 0 0 1 171.8789 169.2441)" class="st5 st3">Заполнение </text>
	<text transform="matrix(0.9819 0 0 1 240.0224 169.2441)" class="st2 st3">только</text>
	<text transform="matrix(0.9819 0 0 1 171.8789 181.6436)" class="st8 st2 st3">латинскими</text>
	<text transform="matrix(0.9819 0 0 1 232.8545 181.6436)" class="st2 st3"> буквами</text>
	<text transform="matrix(0.9819 0 0 1 171.8789 194.0439)" class="st5 st3">Фотография</text>
	<text transform="matrix(0.9819 0 0 1 240.415 194.0439)" class="st2 st3"> должна</text>
	<text transform="matrix(0.9819 0 0 1 171.8789 206.4434)" class="st2 st3">соответствовать</text>
	<text transform="matrix(0.9819 0 0 1 171.8789 218.8438)" class="st9 st2 st3">требованиям</text>
	<text transform="matrix(1 0 0 1 19.0863 257.4973)" class="st5 st10">В Зале повышенной комфортности наши специалисты</text>
	<text transform="matrix(1 0 0 1 19.0863 267.4973)" class="st5 st10">заполняют анкету согласно правилам </text>
	<text transform="matrix(1 0 0 1 19.0863 283.8933)" class="st5 st10">Фотографирование также входит в стоимость сбора</text>
	<text transform="matrix(1 0 0 1 19.0863 293.8933)" class="st5 st10">Зала повышенной комфортности</text>
	<path id="XMLID_19_" class="st11" d="M6,253.2c0.4-1.4,1.7-2.5,3.2-2.7c1.6-0.2,3.1,0.6,3.8,2c0,9,0,18,0,27
		c-0.3,0.3-1.6,1.4-3.7,1.3c-1.8-0.1-3-1-3.3-1.3C6,270.7,6,261.9,6,253.2z"/>
	<circle id="XMLID_20_" class="st11" cx="9.4" cy="286.6" r="3.9"/>
	<path id="XMLID_21_" d="M25,316.8"/>
</g>
</svg>
