<?xml version="1.0" encoding="utf-8"?>
<!-- Generator: Adobe Illustrator 19.0.0, SVG Export Plug-In . SVG Version: 6.00 Build 0)  -->
<svg version="1.1" id="Слой_1" xmlns="http://www.w3.org/2000/svg" xmlns:xlink="http://www.w3.org/1999/xlink" x="0px" y="0px"
	 viewBox="0 0 300 300" style="enable-background:new 0 0 300 300;" xml:space="preserve">
<style type="text/css">
	.st0{fill:#FFFFFF;}
	.st1{fill:none;}
	.st2{fill:#FFFFFF;stroke:#020202;stroke-miterlimit:10;}
	.st3{fill:#FFFFFF;stroke:#0C0C0C;stroke-miterlimit:10;}
	.st4{font-family:'MyriadPro-Regular';}
	.st5{font-size:12px;}
	.st6{fill:none;stroke:#070707;stroke-miterlimit:10;}
	.st7{fill:none;stroke:#1E1EE0;stroke-width:2;stroke-miterlimit:10;}
	.st8{fill:none;stroke:#1E1EE0;stroke-miterlimit:10;}
	.st9{font-size:9px;}
	.st10{fill:none;stroke:#020202;stroke-miterlimit:10;}
	.st11{font-size:13px;}
	.st12{font-size:10px;}
	.st13{fill:#F7F7F9;}
	.st14{font-family:'MyriadPro-BoldIt';}
	.st15{font-size:11px;}
</style>
<rect class="st0" width="300" height="300"/>
<rect id="XMLID_1_" class="st1" width="300" height="300"/>
<rect id="XMLID_2_" x="6.4" y="85.4" class="st2" width="139.1" height="80.7"/>
<rect id="XMLID_3_" x="150.4" y="85.4" class="st2" width="139.1" height="80.7"/>
<rect id="XMLID_4_" x="14.5" y="104.2" class="st2" width="36.5" height="51.8"/>
<path id="XMLID_5_" class="st2" d="M17,153c-0.1-1.9,0-8.9,5-15c3.3-4.1,7.3-5.9,9.3-6.7c2,0.7,5.2,2.3,8,5.3
	c5.9,6.5,5.5,14.6,5.3,16.3"/>
<ellipse id="XMLID_6_" class="st3" cx="32" cy="119.7" rx="8.7" ry="10.4"/>
<text id="XMLID_7_" transform="matrix(1 0 0 1 25.6667 96.3335)" class="st4 st5">Студенческий билет</text>
<line id="XMLID_9_" class="st6" x1="60" y1="113.7" x2="124.3" y2="113.7"/>
<line id="XMLID_8_" class="st6" x1="60" y1="126.7" x2="124.3" y2="126.7"/>
<line id="XMLID_10_" class="st6" x1="60" y1="139.3" x2="124.3" y2="139.3"/>
<circle id="XMLID_11_" class="st7" cx="55.8" cy="146.5" r="15.2"/>
<circle id="XMLID_12_" class="st8" cx="55.8" cy="146.5" r="12.8"/>
<rect id="XMLID_24_" x="182" y="196.5" width="109.5" height="10.5"/>
<rect id="XMLID_25_" x="2" y="203" width="78" height="10.5"/>
<text transform="matrix(1 0 0 1 156.333 93.6665)" class="st4 st9">в 2017/18 уч.г. является</text>
<text transform="matrix(1 0 0 1 156.333 100.4665)" class="st4 st9">студентом ... курса</text>
<text transform="matrix(1 0 0 1 156.333 107.2665)" class="st4 st9">декан</text>
<text transform="matrix(1 0 0 1 156.333 114.9998)" class="st4 st9">в 2018/19 уч.г. является</text>
<text transform="matrix(1 0 0 1 156.333 121.7998)" class="st4 st9">студентом ... курса</text>
<text transform="matrix(1 0 0 1 156.333 128.5998)" class="st4 st9">декан</text>
<text transform="matrix(1 0 0 1 156.333 136.6665)" class="st4 st9">в 2019/20 уч.г. является</text>
<text transform="matrix(1 0 0 1 156.333 143.4665)" class="st4 st9">студентом ... курса</text>
<text transform="matrix(1 0 0 1 156.333 150.2665)" class="st4 st9">декан</text>
<circle id="XMLID_17_" class="st7" cx="207.1" cy="100.6" r="15.2"/>
<circle id="XMLID_16_" class="st8" cx="207.1" cy="100.6" r="12.8"/>
<circle id="XMLID_19_" class="st7" cx="211.7" cy="119.7" r="15.2"/>
<circle id="XMLID_18_" class="st8" cx="211.7" cy="119.7" r="12.8"/>
<path id="XMLID_20_" class="st10" d="M186.2,109.2c1.8-2.2,2.7-4.1,3.1-5.5c0.3-0.9,0.6-2.4,1.3-2.5c0.3,0,0.6,0.3,0.9,0.7
	c0.9,1,0.8,2.3,0.8,2.6c0,0.2,0,0.4-0.1,0.6c-0.4,1.5-1.8,2.4-1.8,2.3c-0.1-0.1,5.1-5.8,5.8-5.3c0.6,0.4-2.4,6.7-3.4,6.4
	c-1-0.3-1.2-7.1,1.6-8.4c3-1.4,8.8,3.7,7.9,6.4c-0.7,2.1-5.3,2.4-6,2.5"/>
<path id="XMLID_21_" class="st10" d="M185,130.4c1.8-2.2,2.7-4.1,3.1-5.5c0.3-0.9,0.6-2.4,1.3-2.5c0.3,0,0.6,0.3,0.9,0.7
	c0.9,1,0.8,2.3,0.8,2.6c0,0.2,0,0.4-0.1,0.6c-0.4,1.5-1.8,2.4-1.8,2.3c-0.1-0.1,5.1-5.8,5.8-5.3c0.6,0.4-2.4,6.7-3.4,6.4
	s-1.2-7.1,1.6-8.4c3-1.4,8.8,3.7,7.9,6.4c-0.7,2.1-5.3,2.4-6,2.5"/>
<text id="XMLID_22_" transform="matrix(1 0 0 1 44.7297 42)" class="st4 st11">Форма обучения - «дневная - очная»*</text>
<text transform="matrix(1 0 0 1 2 203)" class="st4 st12">Каждый учебный год студенческий билет</text>
<text transform="matrix(1 0 0 1 181.9 203)" class="st13 st4 st12"> продлевается печатью и</text>
<text transform="matrix(1 0 0 1 2 211)" class="st13 st4 st12">подписью декана</text>
<text transform="matrix(1 0 0 1 2 227)" class="st4 st12">Например у студента 2 курса должно быть две печати и две </text>
<text transform="matrix(1 0 0 1 2 235)" class="st4 st12">подписи декана</text>
<text transform="matrix(1 0 0 1 18 253.5)" class="st14 st15">*Если форма обучения отличается, основанием</text>
<text transform="matrix(1 0 0 1 18 262.7)" class="st14 st15">для подачи может являться  работа на терри-</text>
<text transform="matrix(1 0 0 1 18 271.9)" class="st14 st15">тории СЗКО (соответственно справка с работы</text>
<text transform="matrix(1 0 0 1 18 281.1)" class="st14 st15">требуется)</text>
<text transform="matrix(1 0 0 1 39.8639 57.5)" class="st14 st5">Для школьников вместо студенческого</text>
<text transform="matrix(1 0 0 1 65.4639 71.9)" class="st14 st5">билета нужна справка с учебы</text>
</svg>
