<?xml version="1.0" encoding="utf-8"?>
<!-- Generator: Adobe Illustrator 19.0.0, SVG Export Plug-In . SVG Version: 6.00 Build 0)  -->
<svg version="1.1" id="Слой_1" xmlns="http://www.w3.org/2000/svg" xmlns:xlink="http://www.w3.org/1999/xlink" x="0px" y="0px"
	 viewBox="0 0 300 300" style="enable-background:new 0 0 300 300;" xml:space="preserve">
<style type="text/css">
	.st0{fill:#F9F7F7;}
	.st1{fill:none;}
	.st2{font-family:'MyriadPro-Regular';}
	.st3{font-size:9px;}
	.st4{fill:none;stroke:#201600;stroke-miterlimit:10;}
	.st5{font-size:5.5836px;}
	.st6{fill:none;stroke:#000000;stroke-miterlimit:10;}
	.st7{font-family:'MyriadPro-Bold';}
</style>
<rect id="XMLID_24_" class="st0" width="300" height="300"/>
<path id="XMLID_1_" class="st1" d="M100.1,108.3H64.9c-1.9,0-3.4-2.1-3.4-4.6v-1.9c0-2.6,1.6-4.6,3.4-4.6h35.2
	c1.9,0,3.4,2.1,3.4,4.6v1.9C103.5,106.2,102,108.3,100.1,108.3z"/>
<text id="XMLID_31_" transform="matrix(1.3228 0 0 1 57.5283 101.1323)" class="st2 st3">Приглашение</text>
<path id="XMLID_2_" class="st4" d="M64.3,273.8H12.9c-3.2,0-5.9-2.5-5.9-5.6v-12.8c0-3.1,2.7-5.6,5.9-5.6h51.5
	c3.2,0,5.9,2.5,5.9,5.6v12.8C70.2,271.2,67.6,273.8,64.3,273.8z"/>
<path id="XMLID_4_" class="st4" d="M165.3,85.8h-54.8c-3.2,0-5.9-2.5-5.9-5.6v-9.8c0-3.1,2.7-5.6,5.9-5.6h54.8
	c3.2,0,5.9,2.5,5.9,5.6v9.8C171.2,83.3,168.5,85.8,165.3,85.8z"/>
<line id="XMLID_6_" class="st4" x1="33.6" y1="147.2" x2="131.4" y2="147.2"/>
<line id="XMLID_5_" class="st4" x1="33.6" y1="159.8" x2="131.4" y2="159.8"/>
<line id="XMLID_7_" class="st4" x1="33.6" y1="174.6" x2="131.4" y2="174.6"/>
<text id="XMLID_10_" transform="matrix(1.0557 0 0 1 15.4536 256.0693)" class="st2 st5">Ville Lukkonen</text>
<text id="XMLID_30_" transform="matrix(1.0557 0 0 1 15.4536 261.6074)" class="st2 st5">tel</text>
<text id="XMLID_29_" transform="matrix(1.0557 0 0 1 15.4536 268.3076)" class="st2 st5">fax</text>
<text id="XMLID_28_" transform="matrix(1.0557 0 0 1 122.5425 71.1113)" class="st2 st5">ABCDE OY</text>
<text id="XMLID_27_" transform="matrix(1.0557 0 0 1 122.5425 77.8115)" class="st2 st5">address</text>
<text id="XMLID_26_" transform="matrix(1.0557 0 0 1 122.5425 84.5121)" class="st2 st5">tel/fax</text>
<path id="XMLID_23_" class="st6" d="M167,291H9.3c-3.2,0-5.9-2.5-5.9-5.6V67.6c0-3.1,2.7-5.6,5.9-5.6H167c3.2,0,5.9,2.5,5.9,5.6
	v217.8C172.9,288.5,170.2,291,167,291z"/>
<text id="XMLID_22_" transform="matrix(1.0557 0 0 1 37.8047 124.853)" class="st2 st3">We invite </text>
<text id="XMLID_21_" transform="matrix(1.0557 0 0 1 76.9923 124.8528)" class="st7 st3">Ivan Petrov</text>
<text id="XMLID_20_" transform="matrix(1.0557 0 0 1 126.5367 124.8529)" class="st2 st3"> for ...</text>
<text id="XMLID_19_" transform="matrix(1.0557 0 0 1 124.1372 123.3334)" class="st2 st5"> </text>
<text id="XMLID_8_" transform="matrix(1.0557 0 0 1 93.773 269.2529)" class="st2 st5"> </text>
<text id="XMLID_3_" transform="matrix(1 0 0 1 122.5426 20.4414)" class="st2 st3">Данные приглашающей стороны</text>
<text id="XMLID_9_" transform="matrix(1 0 0 1 184.0605 256.0692)"><tspan x="0" y="0" class="st2 st3">Контактное лицо</tspan><tspan x="0" y="10.8" class="st2 st3">приглашающей</tspan><tspan x="0" y="21.6" class="st2 st3">стороны</tspan></text>
<text id="XMLID_11_" transform="matrix(1 0 0 1 184.0605 101.1322)"><tspan x="0" y="0" class="st2 st3">Содержание приглашения</tspan><tspan x="0" y="10.8" class="st2 st3">(ФИО приглашенного, его</tspan><tspan x="0" y="21.6" class="st2 st3">должность, запланирован-</tspan><tspan x="0" y="32.4" class="st2 st3">ное мероприятие)</tspan></text>
<polyline id="XMLID_13_" class="st6" points="112,17.4 62,17.4 61.5,75.3 97.3,75.3 "/>
<polyline id="XMLID_14_" class="st6" points="181,111.3 175.9,111.3 175.9,157 141.4,157 "/>
<line id="XMLID_15_" class="st6" x1="181" y1="261.8" x2="79.5" y2="261.6"/>
<circle id="XMLID_12_" cx="96.3" cy="75.3" r="2.5"/>
<circle id="XMLID_16_" cx="141.4" cy="157" r="2.5"/>
<circle id="XMLID_17_" cx="79.5" cy="261.6" r="2.5"/>
</svg>
