<?xml version="1.0" encoding="utf-8"?>
<!-- Generator: Adobe Illustrator 19.0.0, SVG Export Plug-In . SVG Version: 6.00 Build 0)  -->
<svg version="1.1" id="Слой_1" xmlns="http://www.w3.org/2000/svg" xmlns:xlink="http://www.w3.org/1999/xlink" x="0px" y="0px"
	 viewBox="0 0 300 300" style="enable-background:new 0 0 300 300;" xml:space="preserve">
<style type="text/css">
	.st0{fill:#FFFFFF;}
	.st1{fill:#CE3838;stroke:#000000;stroke-miterlimit:10;}
	.st2{fill:none;stroke:#EDE83A;stroke-miterlimit:10;}
	.st3{fill:#EDE83A;}
	.st4{font-family:'MyriadPro-Regular';}
	.st5{font-size:12px;}
	.st6{fill:none;stroke:#1B1B9B;stroke-miterlimit:10;}
	.st7{fill:#1B1B9B;}
	.st8{font-size:6.5786px;}
	.st9{font-family:'ArialMT';}
	.st10{font-size:11px;}
	.st11{font-size:11.6856px;}
	.st12{fill:#E6C1B7;}
	.st13{fill:#F4EDED;stroke:#070707;stroke-miterlimit:10;}
	.st14{fill:#BAABAB;}
	.st15{fill:none;stroke:#070707;stroke-miterlimit:10;}
	.st16{fill:#6D562E;}
	.st17{fill:none;stroke:#0A0909;stroke-miterlimit:10;}
	.st18{fill:none;stroke:#070707;stroke-width:2;stroke-miterlimit:10;}
	.st19{fill:#070707;}
	.st20{fill:none;stroke:#070707;stroke-width:3;stroke-miterlimit:10;}
	.st21{fill:none;stroke:#000000;stroke-miterlimit:10;}
	.st22{fill:#CE3838;}
</style>
<rect id="XMLID_1_" class="st0" width="300" height="300"/>
<path id="XMLID_7_" class="st1" d="M53,70.4H12.5c-1.2,0-2.2-0.9-2.2-2.2V19.5c0-1.2,0.9-2.2,2.2-2.2H53c1.2,0,2.2,0.9,2.2,2.2v48.8
	C55.2,69.4,54.2,70.4,53,70.4z"/>
<path id="XMLID_2_" class="st2" d="M50.7,67.4H14.9c-0.8,0-1.4-0.7-1.4-1.4V21.6c0-0.8,0.7-1.4,1.4-1.4h35.8c0.8,0,1.4,0.7,1.4,1.4
	V66C52.2,66.8,51.6,67.4,50.7,67.4z"/>
<ellipse id="XMLID_3_" class="st2" cx="33" cy="42.7" rx="16.8" ry="17.9"/>
<ellipse id="XMLID_4_" class="st3" cx="32.7" cy="63.7" rx="1.3" ry="1.4"/>
<path id="XMLID_5_" class="st3" d="M33.8,62.3h2.6v2.8h-2.6c0.5-0.3,0.8-0.8,0.8-1.4S34.3,62.6,33.8,62.3z"/>
<path id="XMLID_6_" class="st3" d="M31.7,62.3h-2.6v2.8h2.6c-0.5-0.3-0.8-0.8-0.8-1.4C30.9,63.1,31.2,62.6,31.7,62.3z"/>
<path id="XMLID_15_" class="st1" d="M76.5,77.9H35.9c-1.2,0-2.2-0.9-2.2-2.2V26.9c0-1.2,0.9-2.2,2.2-2.2h40.5c1.2,0,2.2,0.9,2.2,2.2
	v48.8C78.6,76.9,77.7,77.9,76.5,77.9z"/>
<path id="XMLID_14_" class="st2" d="M74.2,74.9H38.4c-0.8,0-1.4-0.7-1.4-1.4V29c0-0.8,0.7-1.4,1.4-1.4h35.8c0.8,0,1.4,0.7,1.4,1.4
	v44.4C75.7,74.2,75,74.9,74.2,74.9z"/>
<ellipse id="XMLID_13_" class="st2" cx="56.4" cy="50.1" rx="16.8" ry="17.9"/>
<ellipse id="XMLID_12_" class="st3" cx="56.2" cy="71.1" rx="1.3" ry="1.4"/>
<path id="XMLID_11_" class="st3" d="M57.3,69.7h2.6v2.8h-2.6c0.5-0.3,0.8-0.8,0.8-1.4C58,70.5,57.8,70,57.3,69.7z"/>
<path id="XMLID_10_" class="st3" d="M55.2,69.7h-2.6v2.8h2.6c-0.5-0.3-0.8-0.8-0.8-1.4C54.3,70.5,54.7,70,55.2,69.7z"/>
<text transform="matrix(1 0 0 1 83.0458 20.1454)" class="st4 st5">Сдаются все действующие загранич-</text>
<text transform="matrix(1 0 0 1 83.0458 34.5454)" class="st4 st5">ные паспорта (при наличии второго </text>
<text transform="matrix(1 0 0 1 83.0458 48.9454)" class="st4 st5">действующего)</text>
<path id="XMLID_21_" class="st1" d="M51.7,141.4H11.2c-1.2,0-2.2-0.9-2.2-2.2V90.5c0-1.2,0.9-2.2,2.2-2.2h40.5
	c1.2,0,2.2,0.9,2.2,2.2v48.8C53.9,140.4,53,141.4,51.7,141.4z"/>
<path id="XMLID_20_" class="st2" d="M49.5,138.4H13.6c-0.8,0-1.4-0.7-1.4-1.4V92.6c0-0.8,0.7-1.4,1.4-1.4h35.8
	c0.8,0,1.4,0.7,1.4,1.4V137C51,137.7,50.3,138.4,49.5,138.4z"/>
<ellipse id="XMLID_19_" class="st2" cx="31.7" cy="113.7" rx="16.8" ry="17.9"/>
<ellipse id="XMLID_18_" class="st3" cx="31.5" cy="134.6" rx="1.3" ry="1.4"/>
<path id="XMLID_17_" class="st3" d="M32.5,133.3h2.6v2.8h-2.6c0.5-0.3,0.8-0.8,0.8-1.4C33.3,134,33,133.5,32.5,133.3z"/>
<path id="XMLID_16_" class="st3" d="M30.4,133.3h-2.6v2.8h2.6c-0.5-0.3-0.8-0.8-0.8-1.4C29.6,134,29.9,133.5,30.4,133.3z"/>
<g id="XMLID_30_">
	<path id="XMLID_29_" class="st1" d="M79.3,146.9H39.1c-1.2,0-2.1-0.9-2.1-2.1V96.4c0-1.2,0.9-2.1,2.1-2.1h40.2
		c1.2,0,2.1,0.9,2.1,2.1v48.4C81.5,145.9,80.5,146.9,79.3,146.9z"/>
	<path id="XMLID_28_" class="st2" d="M77.1,143.9H41.5c-0.8,0-1.4-0.7-1.4-1.4V98.4c0-0.8,0.7-1.4,1.4-1.4h35.6
		c0.8,0,1.4,0.7,1.4,1.4v44.1C78.5,143.3,77.9,143.9,77.1,143.9z"/>
	<ellipse id="XMLID_27_" class="st2" cx="59.4" cy="119.4" rx="16.7" ry="17.8"/>
	<ellipse id="XMLID_26_" class="st3" cx="59.2" cy="140.2" rx="1.3" ry="1.4"/>
	<path id="XMLID_25_" class="st3" d="M60.2,138.8h2.6v2.8h-2.6c0.5-0.3,0.8-0.8,0.8-1.4C61,139.6,60.7,139.1,60.2,138.8z"/>
	<path id="XMLID_24_" class="st3" d="M58.2,138.8h-2.6v2.8h2.6c-0.5-0.3-0.8-0.8-0.8-1.4C57.3,139.6,57.7,139.1,58.2,138.8z"/>
	<path id="XMLID_23_" class="st6" d="M44.5,138.3L44.5,138.3c-2.9-2.3-3.3-6.5-1-9.3L65,102.2c2.3-2.9,6.5-3.3,9.3-1l0,0
		c2.9,2.3,3.3,6.5,1,9.3l-21.5,26.8C51.5,140.1,47.4,140.6,44.5,138.3z"/>
	<text id="XMLID_22_" transform="matrix(0.6244 -0.7811 0.7811 0.6244 48.8861 135.8167)" class="st7 st4 st8">Аннулирован</text>
</g>
<rect id="XMLID_34_" x="182.3" y="108.1" width="103.7" height="11.1"/>
<text transform="matrix(1 0 0 1 90.6597 117.2294)" class="st9 st10">в новом паспорте </text>
<text transform="matrix(1 0 0 1 184.3597 117.2294)" class="st0 st9 st10">нет шенгенских виз,</text>
<text transform="matrix(1 0 0 1 90.6597 127.4294)" class="st9 st10">а в старом - есть (за последние 5 лет !)</text>
<text transform="matrix(1.0269 0 0 1 90.6597 88.0396)" class="st4 st11">Старый паспорт (при наличии) сдается </text>
<text transform="matrix(1.0269 0 0 1 90.6597 102.0396)" class="st4 st11">на рассмотрение когда</text>
<g id="XMLID_51_">
	<rect id="XMLID_49_" x="9" y="158" class="st12" width="107.7" height="75.5"/>
	<rect id="XMLID_48_" x="11.6" y="170.4" class="st13" width="29.9" height="38.4"/>
	<circle id="XMLID_47_" class="st14" cx="44.5" cy="203.7" r="8"/>
	<ellipse id="XMLID_46_" class="st15" cx="27.7" cy="189.3" rx="9.6" ry="15.3"/>
	<path id="XMLID_45_" class="st16" d="M17.5,188.6c-1.2-0.3-1-6-1-6.4c0.1-1.7,0.1-2.8,0.7-4.2c1.5-3.4,4.9-4.7,5.7-5
		c4.6-1.8,8.7,0.1,9.7,0.5c1,0.5,3.7,1.8,5.1,4.8c0.6,1.4,0.7,2.6,0.8,4.3c0.1,1.3,0.4,5.5-0.6,5.8c-1.9,0.6-5.7-13.9-10.6-13.7
		C22.4,174.7,19.5,189.2,17.5,188.6z"/>
	<ellipse id="XMLID_44_" class="st17" cx="23.6" cy="188.2" rx="2.5" ry="1.9"/>
	<ellipse id="XMLID_43_" class="st17" cx="31.8" cy="187.7" rx="2.5" ry="1.9"/>
	<path id="XMLID_42_" class="st18" d="M24.2,198c0.3,0.3,1.5,1.3,3.3,1.4c2.5,0.1,4-1.8,4.1-2"/>
	<ellipse id="XMLID_41_" class="st19" cx="23.5" cy="188.1" rx="0.6" ry="0.4"/>
	<ellipse id="XMLID_40_" class="st19" cx="31.8" cy="187.7" rx="0.6" ry="0.4"/>
	<line id="XMLID_39_" class="st20" x1="49.9" y1="174" x2="65.1" y2="174"/>
	<line id="XMLID_38_" class="st20" x1="49.9" y1="181.4" x2="62.8" y2="181.4"/>
	<line id="XMLID_37_" class="st20" x1="66.3" y1="181.4" x2="91.4" y2="181.4"/>
	<line id="XMLID_36_" class="st20" x1="79.8" y1="195.7" x2="104.7" y2="195.7"/>
	<rect id="XMLID_32_" x="9" y="219.6" class="st13" width="107.7" height="13.8"/>
</g>
<text transform="matrix(1 0 0 1 120.6665 183.0003)" class="st4 st5">Голограмма не должна закрывать</text>
<text transform="matrix(1 0 0 1 120.6665 197.4003)" class="st4 st5">лицо на фотографии (паспорт ста-</text>
<text transform="matrix(1 0 0 1 120.6665 211.8003)" class="st4 st5">рого образца)</text>
<line id="XMLID_53_" class="st21" x1="118.3" y1="203.7" x2="48.5" y2="203.7"/>
<circle id="XMLID_52_" cx="48.5" cy="203.7" r="1.6"/>
<path id="XMLID_54_" class="st22" d="M286,47.6L286,47.6c-2.2,0-4-1.8-4-4V24.1c0-2.2,1.8-4,4-4l0,0c2.2,0,4,1.8,4,4v19.5
	C290,45.8,288.2,47.6,286,47.6z"/>
<path id="XMLID_55_" class="st22" d="M286.6,50.7h-1.2c-1.9,0-3.4,1.5-3.4,3.4l0,0c0,1.9,1.5,3.4,3.4,3.4h1.2c1.9,0,3.4-1.5,3.4-3.4
	l0,0C290,52.3,288.5,50.7,286.6,50.7z"/>
<text transform="matrix(1 0 0 1 42.3 267.5)" class="st4 st10">ДОПОЛНИТЕЛЬНУЮ ИНФОРМАЦИЮ ВЫ </text>
<text transform="matrix(1 0 0 1 9.9 281.9)" class="st4 st10">МОЖЕТЕ НАЙТИ В РАЗДЕЛЕ «ГАЛЕРЕЯ ДОКУМЕНТОВ»</text>
</svg>
