<?xml version="1.0" encoding="utf-8"?>
<!-- Generator: Adobe Illustrator 19.0.0, SVG Export Plug-In . SVG Version: 6.00 Build 0)  -->
<svg version="1.1" id="Слой_1" xmlns="http://www.w3.org/2000/svg" xmlns:xlink="http://www.w3.org/1999/xlink" x="0px" y="0px"
	 viewBox="0 0 300 300" style="enable-background:new 0 0 300 300;" xml:space="preserve">
<style type="text/css">
	.st0{fill:#FFFFFF;}
	.st1{fill:#FFFFFF;stroke:#201600;stroke-miterlimit:10;}
	.st2{font-family:'MyriadPro-Regular';}
	.st3{font-size:9.1918px;}
	.st4{fill:none;stroke:#201600;stroke-miterlimit:10;}
	.st5{fill:none;stroke:#F21621;stroke-miterlimit:10;}
	.st6{fill:none;stroke:#F21621;stroke-width:0.5;stroke-miterlimit:10;}
	.st7{fill:#F40F21;}
	.st8{font-family:'MyriadPro-BoldCond';}
	.st9{font-size:5.6678px;}
	.st10{font-size:6.3769px;}
	.st11{fill:#FFFFFF;stroke:#0707AA;stroke-width:2;stroke-miterlimit:10;}
	.st12{fill:none;stroke:#0707AA;stroke-width:2;stroke-miterlimit:10;}
	.st13{font-family:'MyriadPro-Bold';}
	.st14{font-size:12px;}
	.st15{fill:#F7F7F9;}
	.st16{font-family:'MyriadPro-It';}
</style>
<rect class="st0" width="300" height="300"/>
<path id="XMLID_18_" class="st1" d="M73.9,87.2c16.3,1.1,33.7,1.7,52.1,1.6c17-0.1,33.1-0.7,48.2-1.8c0.1,49.8,0.2,99.5,0.3,149.3
	c-15.9-0.3-32-0.4-48.4-0.4c-17.6,0-34.9,0.2-51.9,0.6C74.1,186.7,74,137,73.9,87.2z"/>
<path id="XMLID_1_" class="st1" d="M6,164c0.6-16.7,0.9-33.9,1-51.5c0-16.7-0.2-33-0.6-48.8c49.8,0.2,99.5,0.3,149.3,0.5
	c-0.4,15.9-0.6,32-0.7,48.4c-0.1,17.6,0,34.9,0.3,51.9C105.6,164.3,55.8,164.2,6,164z"/>
<path id="XMLID_2_" class="st1" d="M5.7,267.8C5.9,250.4,6,232.9,6,215.3c0-16,0-31.9,0-47.8c49.8,0.2,99.5,0.3,149.3,0.5
	c-0.4,17.1-0.6,34.5-0.7,52.2c0,16.3,0.1,32.3,0.3,48.1C105.2,268.2,55.4,268,5.7,267.8z"/>
<path id="XMLID_6_" class="st1" d="M180.3,220.3"/>
<rect id="XMLID_26_" x="35" y="15" width="102.5" height="11"/>
<rect id="XMLID_27_" x="168" y="31" width="86" height="11"/>
<rect id="XMLID_28_" x="174.5" y="251.5" width="93.5" height="16.8"/>
<text transform="matrix(1 0 0 1 43.3608 78.1772)" class="st2 st3">вид на жительство</text>
<text transform="matrix(1 0 0 1 27.2608 89.1772)" class="st2 st3">иностранного гражданина</text>
<path id="XMLID_3_" class="st1" d="M181.1,231.4"/>
<line id="XMLID_5_" class="st4" x1="23.7" y1="111.9" x2="93" y2="111.9"/>
<line id="XMLID_4_" class="st4" x1="23.7" y1="124.5" x2="93" y2="124.5"/>
<line id="XMLID_8_" class="st4" x1="23.7" y1="137.5" x2="93" y2="137.5"/>
<rect id="XMLID_9_" x="19.1" y="182" class="st1" width="39.3" height="49.4"/>
<circle id="XMLID_10_" class="st5" cx="66.6" cy="147.5" r="16.9"/>
<circle id="XMLID_11_" class="st5" cx="59.7" cy="231.4" r="16.9"/>
<circle id="XMLID_12_" class="st6" cx="66.6" cy="147.5" r="14.3"/>
<circle id="XMLID_13_" class="st6" cx="59.7" cy="231.4" r="14.3"/>
<text id="XMLID_14_" transform="matrix(1.346 0 0 1 92.8008 175.1875)" class="st7 st8 st9">82 № XXXXXXX</text>
<text transform="matrix(1 0 0 1 63.8691 191.1592)" class="st8 st3">Имя</text>
<text transform="matrix(1 0 0 1 63.8691 202.1592)" class="st8 st3">Фамилия</text>
<text transform="matrix(1 0 0 1 63.8691 213.2592)" class="st8 st3">Гражданство</text>
<text id="XMLID_16_" transform="matrix(-6.186190e-003 1.1563 -1 -5.350028e-003 11.2272 89.9693)" class="st7 st8 st10">82 № XXXXXXX</text>
<path id="XMLID_17_" class="st1" d="M178,87.2c16.3,1.1,33.7,1.7,52.1,1.6c17-0.1,33.1-0.7,48.2-1.8c0.1,49.8,0.2,99.5,0.3,149.3
	c-15.7-1.7-33.2-2.8-52.3-2.6c-17.4,0.1-33.5,1.2-48,2.8C178.2,186.7,178.1,137,178,87.2z"/>
<path id="XMLID_19_" class="st1" d="M179,238.3c12.9-1.3,24.2-1.9,33.5-2.3c7.3-0.2,18.6-0.6,33.5,0c12.3,0.5,23,1.5,31.5,2.5"/>
<path id="XMLID_20_" class="st1" d="M178,241.1c12.9-1.3,24.2-1.9,33.5-2.3c7.3-0.2,18.6-0.6,33.5,0c12.3,0.5,23,1.5,31.5,2.5"/>
<rect id="XMLID_21_" x="188" y="109" class="st11" width="77.5" height="38.5"/>
<line id="XMLID_23_" class="st12" x1="195.5" y1="119.5" x2="254" y2="119.5"/>
<line id="XMLID_22_" class="st12" x1="195.5" y1="130.6" x2="254" y2="130.6"/>
<text transform="matrix(1 0 0 1 7 9.5)" class="st13 st14">ВНЖ </text>
<text transform="matrix(1 0 0 1 35.4 9.5)" class="st2 st14">должно подтверждать нахождение на территории</text>
<text transform="matrix(1 0 0 1 7 23.9)" class="st2 st14">СЗКО </text>
<text transform="matrix(1 0 0 1 37.2 23.9)" class="st15 st2 st14">не менее полугода</text>
<text transform="matrix(1 0 0 1 7 38.3)" class="st13 st14">ВНЖ</text>
<text transform="matrix(1 0 0 1 33 38.3)" class="st2 st14"> должно действовать еще </text>
<text transform="matrix(1 0 0 1 169 38.3)" class="st15 st2 st14">минимум месяц</text>
<text transform="matrix(1 0 0 1 251.6 38.3)" class="st2 st14"> со дня </text>
<text transform="matrix(1 0 0 1 7 52.7)" class="st2 st14">подачи документов на визу</text>
<text transform="matrix(1 0 0 1 159.5 248.5)" class="st13 st14">Регистрация</text>
<text transform="matrix(1 0 0 1 230.3 248.5)" class="st2 st14"> должна быть</text>
<text transform="matrix(1 0 0 1 159.5 262.9)" class="st2 st14">на </text>
<text transform="matrix(1 0 0 1 174.4 262.9)" class="st15 st2 st14">территории СЗКО</text>
<text id="XMLID_29_" transform="matrix(1 0 0 1 7 285.5)" class="st16 st14">СЗКО - Северо-западный консульский округ</text>
</svg>
