<?xml version="1.0" encoding="utf-8"?>
<!-- Generator: Adobe Illustrator 19.0.0, SVG Export Plug-In . SVG Version: 6.00 Build 0)  -->
<svg version="1.1" id="Слой_1" xmlns="http://www.w3.org/2000/svg" xmlns:xlink="http://www.w3.org/1999/xlink" x="0px" y="0px"
	 viewBox="0 0 300 300" style="enable-background:new 0 0 300 300;" xml:space="preserve">
<style type="text/css">
	.st0{fill:#FFFFFF;}
	.st1{fill:#D8368F;}
	.st2{font-family:'MyriadPro-Regular';}
	.st3{font-size:12px;}
	.st4{fill:none;stroke:#D836C9;stroke-miterlimit:10;}
	.st5{fill:#C97D75;}
	.st6{font-size:10px;}
	.st7{font-size:7px;}
	.st8{fill:#B4A591;}
	.st9{fill:none;stroke:#000000;stroke-miterlimit:10;}
	.st10{font-size:9px;}
	.st11{fill:none;stroke:#D836C9;stroke-width:2;stroke-linejoin:round;stroke-miterlimit:10;}
</style>
<rect class="st0" width="300" height="300"/>
<g>
	<text transform="matrix(1 0 0 1 60 96)" class="st1 st2 st3">ВИЗА</text>
	<text transform="matrix(1 0 0 1 60 96)" class="st4 st2 st3">ВИЗА</text>
	<g>
		<text transform="matrix(1 0 0 1 165 93.5)" class="st5 st2 st3">00 000000</text>
	</g>
	<text transform="matrix(1 0 0 1 137.25 99.5)" class="st2 st6">многократная «м»</text>
	<text transform="matrix(1 0 0 1 103.75 111.25)" class="st2 st7">05.01.2019/04.01.2020</text>
	<path class="st8" d="M87.3,82.8c1.7,6,3.3,12,5,18c7.1-0.1,14.2-0.2,21.3-0.3l-3.8-17.8H87.3V82.8z"/>
	<text transform="matrix(1 0 0 1 181.25 111.25)" class="st2 st7">365</text>
	<text transform="matrix(1 0 0 1 91.25 94.75)" class="st0 st2 st3">visa</text>
	<g>
		<text transform="matrix(1 0 0 1 12.5 205)" class="st2 st3">00 000000</text>
	</g>
	<polyline class="st9" points="82.4,199.3 79.1,201.3 82.4,203 	"/>
	<polyline class="st9" points="87.1,199.3 83.9,201.3 87.1,203 	"/>
	<polyline class="st9" points="90.5,199.3 87.3,201.3 90.5,203 	"/>
	<polyline class="st9" points="94.5,199.3 91.3,201.3 94.5,203 	"/>
	<polyline class="st9" points="99.3,199.3 96,201.3 99.3,203 	"/>
	<polyline class="st9" points="104.3,199.3 101,201.3 104.3,203 	"/>
	<polyline class="st9" points="107.9,199.3 104.6,201.3 107.9,203 	"/>
	<polyline class="st9" points="112.6,199.3 109.4,201.3 112.6,203 	"/>
	<polyline class="st9" points="117.6,199.3 114.4,201.3 117.6,203 	"/>
	<polyline class="st9" points="121.3,199.3 118,201.3 121.3,203 	"/>
	<polyline class="st9" points="126,199.3 122.8,201.3 126,203 	"/>
	<polyline class="st9" points="129.4,199.3 126.1,201.3 129.4,203 	"/>
	<polyline class="st9" points="133.4,199.3 130.1,201.3 133.4,203 	"/>
	<polyline class="st9" points="138.1,199.3 134.9,201.3 138.1,203 	"/>
	<polyline class="st9" points="143.1,199.3 139.9,201.3 143.1,203 	"/>
	<polyline class="st9" points="146.8,199.3 143.5,201.3 146.8,203 	"/>
	<polyline class="st9" points="151.5,199.3 148.3,201.3 151.5,203 	"/>
	<polyline class="st9" points="156.5,199.3 153.3,201.3 156.5,203 	"/>
	<polyline class="st9" points="159.8,199.3 156.5,201.3 159.8,203 	"/>
	<polyline class="st9" points="164.5,199.3 161.3,201.3 164.5,203 	"/>
	<polyline class="st9" points="167.9,199.3 164.6,201.3 167.9,203 	"/>
	<polyline class="st9" points="171.9,199.3 168.6,201.3 171.9,203 	"/>
	<polyline class="st9" points="176.6,199.3 173.4,201.3 176.6,203 	"/>
	<polyline class="st9" points="181.6,199.3 178.4,201.3 181.6,203 	"/>
	<polyline class="st9" points="185.3,199.3 182,201.3 185.3,203 	"/>
	<polyline class="st9" points="190,199.3 186.8,201.3 190,203 	"/>
	<polyline class="st9" points="195,199.3 191.8,201.3 195,203 	"/>
	<text transform="matrix(1 0 0 1 73.3335 119.3333)" class="st2 st10">США</text>
	<rect x="154.9" y="244.3" width="76.1" height="11"/>
	<rect x="176.6" y="16.3" width="46.7" height="12.7"/>
	<text transform="matrix(1 0 0 1 73.3335 129.0002)" class="st2 st10">ДЖОН ДОУ</text>
	<text transform="matrix(1 0 0 1 73.3335 139.8002)" class="st2 st10">JOHN DOW</text>
	<text transform="matrix(1 0 0 1 73.3335 150)" class="st2 st10">ДЕЛОВАЯ</text>
	<line class="st4" x1="104.6" y1="121" x2="212" y2="121"/>
	<line class="st4" x1="104.6" y1="142" x2="212" y2="142"/>
	<line class="st4" x1="104.6" y1="151.3" x2="212" y2="151.3"/>
	<rect x="8" y="80.3" class="st11" width="211" height="139.3"/>
	<text transform="matrix(1 0 0 1 60 252)" class="st2 st3">Виза должна быть </text>
	<text transform="matrix(1 0 0 1 156.3 252)" class="st0 st2 st3">многократной</text>
	<text transform="matrix(1 0 0 1 17.6665 26.9998)" class="st2 st3">Виза должна действовать ещё </text>
	<text transform="matrix(1 0 0 1 176.9665 26.9998)" class="st0 st2 st3">3 месяца</text>
	<text transform="matrix(1 0 0 1 223.0665 26.9998)" class="st2 st3"> со дня даты </text>
	<text transform="matrix(1 0 0 1 17.6665 41.3998)" class="st2 st3">выезда с территории Шенгенского соглашения </text>
	<polyline class="st9" points="232.3,249.7 250.7,249.7 250.7,93.5 223.3,93.5 	"/>
	<circle cx="223.3" cy="93.5" r="2"/>
	<polyline class="st9" points="15.7,29 5.3,29 5.3,71.3 31.3,71.3 31.3,106.7 101,106.7 	"/>
	<circle cx="101" cy="106.7" r="2"/>
	<text transform="matrix(1 0 0 1 17.6663 56.6667)" class="st2 st6">Например, если просится виза до 27.07.2019, то дата</text>
	<text transform="matrix(1 0 0 1 17.6663 68.6667)" class="st2 st6">окончания визы должна быть не ранее 27.10.2019</text>
</g>
</svg>
