<?xml version="1.0" encoding="utf-8"?>
<!-- Generator: Adobe Illustrator 19.0.0, SVG Export Plug-In . SVG Version: 6.00 Build 0)  -->
<svg version="1.1" id="Слой_1" xmlns="http://www.w3.org/2000/svg" xmlns:xlink="http://www.w3.org/1999/xlink" x="0px" y="0px"
	 viewBox="0 0 300 300" style="enable-background:new 0 0 300 300;" xml:space="preserve">
<style type="text/css">
	.st0{fill:#F9F7F7;}
	.st1{fill:#E8D6D6;}
	.st2{font-family:'MyriadPro-Regular';}
	.st3{font-size:12px;}
</style>
<rect id="XMLID_9_" class="st0" width="300" height="300"/>
<g id="XMLID_8_">
	<rect id="XMLID_1_" x="22.6" y="66.6" class="st1" width="136.5" height="170.6"/>
	
		<image style="overflow:visible;" width="1202" height="1529" id="XMLID_2_" xlink:href="../../../bobi.png"  transform="matrix(0.1035 0 0 0.1035 22.6396 72.7615)">
	</image>
	<text id="XMLID_3_" transform="matrix(1 0 0 1 164.2635 80.9646)"><tspan x="0" y="0" class="st2 st3">Фотография не должна</tspan><tspan x="0" y="14.4" class="st2 st3">быть старшее 6 месяцев</tspan></text>
	<text id="XMLID_4_" transform="matrix(1 0 0 1 164.2627 119.5435)"><tspan x="0" y="0" class="st2 st3">Фон нейтрального свет-</tspan><tspan x="0" y="14.4" class="st2 st3"> лого цвета</tspan></text>
	<text id="XMLID_5_" transform="matrix(1 0 0 1 164.2628 153.0461)"><tspan x="0" y="0" class="st2 st3">Взгляд направлен в ка-</tspan><tspan x="0" y="14.4" class="st2 st3">меру</tspan></text>
	<text id="XMLID_6_" transform="matrix(1 0 0 1 164.2631 186.5484)"><tspan x="0" y="0" class="st2 st3">Лицо занимает 70-80%</tspan><tspan x="0" y="14.4" class="st2 st3">фотографии</tspan></text>
	<text id="XMLID_7_" transform="matrix(1 0 0 1 164.2634 219.0355)"><tspan x="0" y="0" class="st2 st3">Освещение равномер-</tspan><tspan x="0" y="14.4" class="st2 st3">ное</tspan></text>
</g>
</svg>
