<?xml version="1.0" encoding="utf-8"?>
<!-- Generator: Adobe Illustrator 19.0.0, SVG Export Plug-In . SVG Version: 6.00 Build 0)  -->
<svg version="1.1" id="Слой_1" xmlns="http://www.w3.org/2000/svg" xmlns:xlink="http://www.w3.org/1999/xlink" x="0px" y="0px"
	 viewBox="0 0 300 300" style="enable-background:new 0 0 300 300;" xml:space="preserve">
<style type="text/css">
	.st0{fill:#FFFFFF;}
	.st1{fill:none;}
	.st2{fill:#FFFFFF;stroke:#020202;stroke-miterlimit:10;}
	.st3{font-family:'MyriadPro-Regular';}
	.st4{font-size:6px;}
	.st5{fill:none;stroke:#000000;stroke-miterlimit:10;}
	.st6{font-size:10px;}
	.st7{fill:none;stroke:#020202;stroke-miterlimit:10;}
	.st8{font-size:8px;}
	.st9{fill:#FFFFFF;stroke:#301EE0;stroke-miterlimit:10;}
	.st10{fill:none;stroke:#301EE0;stroke-miterlimit:10;}
	.st11{fill:#020202;}
</style>
<rect class="st0" width="302" height="300"/>
<g id="XMLID_43_">
	<rect id="XMLID_1_" y="2.2" class="st1" width="298.3" height="297.8"/>
	<rect id="XMLID_2_" x="18.1" y="69.7" class="st2" width="140" height="180.2"/>
	<text transform="matrix(1 0 0 1 48.9454 78.8172)" class="st3 st4">Министерство образования</text>
	<text transform="matrix(1 0 0 1 54.6454 86.0172)" class="st3 st4">Российской Федерации</text>
	<line id="XMLID_5_" class="st5" x1="26.2" y1="90" x2="149.1" y2="90"/>
	<text id="XMLID_4_" transform="matrix(1 0 0 1 46.0533 98.1068)" class="st3 st4">Название учебного заведения</text>
	<text id="XMLID_6_" transform="matrix(1 0 0 1 22.2309 112.3199)" class="st3 st4">21.02.2016  №179/18</text>
	<text id="XMLID_7_" transform="matrix(1 0 0 1 92.7422 112.3199)" class="st3 st4">по месту требования</text>
	<text id="XMLID_8_" transform="matrix(1 0 0 1 63.8655 128.5637)" class="st3 st6">Справка</text>
	<line id="XMLID_10_" class="st7" x1="40.4" y1="145.8" x2="128.2" y2="145.8"/>
	<line id="XMLID_9_" class="st7" x1="40.4" y1="159.8" x2="128.2" y2="159.8"/>
	<line id="XMLID_11_" class="st7" x1="40.4" y1="174.2" x2="128.2" y2="174.2"/>
	<line id="XMLID_12_" class="st7" x1="40.4" y1="188" x2="128.2" y2="188"/>
	<text transform="matrix(1 0 0 1 21.6244 198.6145)" class="st3 st8">Приказ</text>
	<text transform="matrix(1 0 0 1 21.6244 208.2145)" class="st3 st8">Начало занятий</text>
	<text transform="matrix(1 0 0 1 21.6244 217.8145)" class="st3 st8">Срок окончания</text>
	<text id="XMLID_16_" transform="matrix(1 0 0 1 96.2435 208.2585)" class="st3 st8">01.09.2015</text>
	<text id="XMLID_15_" transform="matrix(1 0 0 1 96.2437 198.6144)" class="st3 st8">№</text>
	<text id="XMLID_17_" transform="matrix(1 0 0 1 96.2433 217.3959)" class="st3 st8">30.06.2020</text>
	<text id="XMLID_18_" transform="matrix(1 0 0 1 21.6245 231.6093)" class="st3 st8">Декан</text>
	<text id="XMLID_19_" transform="matrix(1 0 0 1 21.6245 242.2692)" class="st3 st8">Секретарь</text>
	<path id="XMLID_20_" class="st9" d="M125.7,221.8c0,2.8,0,5.7,0,8.5c-0.2,0.1-1.2,0.3-2.2-0.3c-0.7-0.4-1-1-1.2-1.3
		c2-1.7,4.1-3.4,6.1-5.1c0.2-0.6,0.5-1.7,0.2-3.2c-0.3-1.6-1.2-2.7-1.5-3.1c-0.6,0.2-2.3,1-3.5,2.9c-1.5,2.4-0.9,4.9-0.8,5.4
		c2.6,1.4,5.2,2.7,7.8,4.1c0.5-0.7,0.9-1.6,1.3-2.6c1.4-4,0.4-7.7-0.2-9.4c-0.4,0.7-2.6,5.1-0.6,9.7c0.9,2,2.2,3.3,3.1,4"/>
	<path id="XMLID_21_" class="st9" d="M123.5,244.8c-0.5-0.8-2.8-4.7-1.6-9.6c0.7-2.9,2.4-4.8,3.2-5.6c0.5,5.3,1,10.5,1.6,15.8
		c1.1-1.1,2.2-2.2,3.2-3.4c1.2-2.7,0.7-5.1-0.5-5.8c-0.2-0.1-0.8-0.4-2,0c-2.3,0.5-3.8,2.6-3.6,4.7c0.2,2.4,2.6,4.3,5.3,3.8
		c1.9-1.7,3.8-3.4,5.6-5.2"/>
	<circle id="XMLID_22_" class="st10" cx="85.5" cy="224.4" r="24.7"/>
	<circle id="XMLID_23_" class="st10" cx="85.5" cy="224.4" r="21.3"/>
	<line id="XMLID_25_" class="st10" x1="70.9" y1="220" x2="95.8" y2="220"/>
	<line id="XMLID_24_" class="st10" x1="70.9" y1="229.1" x2="95.8" y2="229.1"/>
	<text transform="matrix(1 0 0 1 4.3656 40.746)" class="st3 st6">Указание данных образовательного учреждения</text>
	<text transform="matrix(1 0 0 1 4.3656 52.746)" class="st3 st6">(название, адрес, контактные данные,реквизиты)</text>
	<text transform="matrix(1 0 0 1 159.6954 92.0153)" class="st3 st6">ФИО студента, форма обучения, </text>
	<text transform="matrix(1 0 0 1 159.6954 104.0153)" class="st3 st6">факультет, курс обучения</text>
	<text id="XMLID_28_" transform="matrix(1 0 0 1 159.6957 208.2588)" class="st3 st6">Приказ о зачислении</text>
	<text id="XMLID_29_" transform="matrix(1 0 0 1 18.0508 276.7864)" class="st3 st6">Начало и предполагаемый срок окончания обучения</text>
	<text id="XMLID_30_" transform="matrix(1 0 0 1 159.6953 146.8374)" class="st3 st6">Подписи уполномоченных лиц</text>
	<polyline id="XMLID_31_" class="st5" points="96.2,56 96.2,63.1 7.4,63.1 7.4,96.1 35.3,96.1 	"/>
	<polyline id="XMLID_32_" class="st5" points="207.9,198.6 207.9,190.5 207.9,183.4 29.7,183.4 29.7,188 	"/>
	<line id="XMLID_36_" class="st7" x1="145.5" y1="152.9" x2="134.8" y2="152.9"/>
	<polyline id="XMLID_33_" class="st7" points="273,100.5 286.5,100.5 286.5,121 145.5,121 145.5,163.8 134.8,163.8 	"/>
	<polyline id="XMLID_34_" class="st7" points="277.5,151.1 277.5,231.5 149.1,231.5 	"/>
	<polyline id="XMLID_35_" class="st7" points="131.5,269 131.5,261 9.5,261 9.5,208.3 14.5,208.3 	"/>
	<circle id="XMLID_37_" class="st11" cx="34.8" cy="96.1" r="2.5"/>
	<circle id="XMLID_38_" class="st11" cx="134.8" cy="152.9" r="2.5"/>
	<circle id="XMLID_39_" class="st11" cx="134.8" cy="163.8" r="2.5"/>
	<circle id="XMLID_40_" class="st11" cx="29.7" cy="188" r="2.5"/>
	<circle id="XMLID_41_" class="st11" cx="14.5" cy="208.3" r="2.5"/>
	<circle id="XMLID_42_" class="st11" cx="151.6" cy="231.6" r="2.5"/>
</g>
</svg>
