<?xml version="1.0" encoding="utf-8"?>
<!-- Generator: Adobe Illustrator 19.0.0, SVG Export Plug-In . SVG Version: 6.00 Build 0)  -->
<svg version="1.1" id="Слой_1" xmlns="http://www.w3.org/2000/svg" xmlns:xlink="http://www.w3.org/1999/xlink" x="0px" y="0px"
	 viewBox="0 0 450 450" style="enable-background:new 0 0 450 450;" xml:space="preserve">
<style type="text/css">
	.st0{fill:#FFFFFF;}
	.st1{font-family:'MyriadPro-Bold';}
	.st2{font-size:23px;}
	.st3{font-family:'MyriadPro-Regular';}
	.st4{font-size:17px;}
	.st5{letter-spacing:32;}
	.st6{stroke:#201600;stroke-width:5;stroke-linecap:round;stroke-miterlimit:10;}
</style>
<rect id="XMLID_1_" class="st0" width="450" height="450"/>
<text id="XMLID_2_" transform="matrix(1 0 0 1 146.9999 85.7274)" class="st1 st2">План поездки</text>
<text id="XMLID_3_" transform="matrix(1 0 0 1 56.8486 133.4546)" class="st3 st2">Дата</text>
<text id="XMLID_4_" transform="matrix(1 0 0 1 168.9697 133.4546)" class="st3 st2">Город</text>
<text id="XMLID_5_" transform="matrix(1 0 0 1 290.9394 133.4546)" class="st3 st2">Комментарий</text>
<text id="XMLID_6_" transform="matrix(1 0 0 1 27.3032 160.7271)"><tspan x="0" y="0" class="st3 st4">25/05/2019</tspan><tspan x="0" y="20.4" class="st3 st4 st5">	</tspan><tspan x="36" y="20.4" class="st3 st4">-</tspan><tspan x="0" y="40.8" class="st3 st4">26/05/2019</tspan></text>
<text id="XMLID_7_" transform="matrix(1 0 0 1 168.9695 180.4242)" class="st3 st4">Хельсинки</text>
<text id="XMLID_8_" transform="matrix(1 0 0 1 295.484 153.909)"><tspan x="0" y="0" class="st3 st4">Пешая прогулка</tspan><tspan x="0" y="20.4" class="st3 st4">по городу</tspan><tspan x="0" y="40.8" class="st3 st4">Hotel Inn</tspan><tspan x="0" y="61.2" class="st3 st4">Отъезд в Оулу</tspan></text>
<text id="XMLID_9_" transform="matrix(1 0 0 1 27.3032 253.5755)"><tspan x="0" y="0" class="st3 st4">26/05/2019</tspan><tspan x="0" y="20.4" class="st3 st4 st5">	</tspan><tspan x="36" y="20.4" class="st3 st4">-</tspan><tspan x="0" y="40.8" class="st3 st4">27/05/2019</tspan></text>
<text id="XMLID_11_" transform="matrix(1 0 0 1 184.1214 272.0917)" class="st3 st4">Оулу</text>
<text id="XMLID_12_" transform="matrix(1 0 0 1 295.4844 253.5755)"><tspan x="0" y="0" class="st3 st4">Осмотр достопри-</tspan><tspan x="0" y="20.4" class="st3 st4">мечательностей</tspan><tspan x="0" y="40.8" class="st3 st4">Hotel Inn Oulu</tspan></text>
<text id="XMLID_13_" transform="matrix(1 0 0 1 27.3032 358.4541)" class="st3 st4">27/05/2019</text>
<text id="XMLID_14_" transform="matrix(1 0 0 1 183.3726 342.545)"><tspan x="0" y="0" class="st3 st4">Оулу</tspan><tspan x="15.6" y="20.4" class="st3 st4">-</tspan><tspan x="-44.5" y="40.8" class="st3 st4">Санкт-Петербург</tspan></text>
<text id="XMLID_15_" transform="matrix(1 0 0 1 298.9276 354.6671)"><tspan x="0" y="0" class="st3 st4">Возвращение в</tspan><tspan x="-6.3" y="20.4" class="st3 st4">Санкт-Петербург</tspan></text>
<line id="XMLID_17_" class="st6" x1="201.5" y1="200.4" x2="201.5" y2="249.6"/>
<line id="XMLID_16_" class="st6" x1="201.5" y1="280.7" x2="201.5" y2="330"/>
<text id="XMLID_18_" transform="matrix(1 0 0 1 103.8176 28.1514)" class="st3 st4">Заполняется в свободной форме</text>
<text id="XMLID_19_" transform="matrix(1 0 0 1 148.8413 52.3941)" class="st3 st4">примерный образец</text>
</svg>
