<?xml version="1.0" encoding="utf-8"?>
<!-- Generator: Adobe Illustrator 19.0.0, SVG Export Plug-In . SVG Version: 6.00 Build 0)  -->
<svg version="1.1" id="Слой_1" xmlns="http://www.w3.org/2000/svg" xmlns:xlink="http://www.w3.org/1999/xlink" x="0px" y="0px"
	 viewBox="0 0 100 100" style="enable-background:new 0 0 100 100;" xml:space="preserve">
<style type="text/css">
	.st0{fill:#FFFFFF;stroke:#201600;stroke-miterlimit:10;}
	.st1{fill:#FFFFFF;}
	.st2{fill:none;stroke:#000000;stroke-miterlimit:10;}
</style>
<g id="XMLID_7_">
	<path id="XMLID_1_" class="st0" d="M84,95.6H15.8c-1.9,0-3.4-1.5-3.4-3.4V7.8c0-1.9,1.5-3.4,3.4-3.4H84c1.9,0,3.4,1.5,3.4,3.4v84.4
		C87.4,94.1,85.9,95.6,84,95.6z"/>
	<path id="XMLID_2_" d="M21.5,57.4c-0.7-6.5,4.4-12,10.3-12c5.9,0,11.1,5.6,10.3,12.2c-3.4,6.9-6.7,13.8-10.1,20.6
		C28.5,71.3,25,64.4,21.5,57.4z"/>
	<path id="XMLID_3_" class="st1" d="M44.6,68.5"/>
	<circle id="XMLID_4_" class="st1" cx="31.9" cy="55.1" r="4.4"/>
	<path id="XMLID_6_" d="M60.2,21.9c-0.7-6.5,4.4-12,10.3-12c5.9,0,11.1,5.6,10.3,12.2C77.3,29,74,35.8,70.6,42.7
		C67.1,35.8,63.7,28.9,60.2,21.9z"/>
	<circle id="XMLID_5_" class="st1" cx="70.6" cy="19.6" r="4.4"/>
	<path id="XMLID_8_" class="st2" d="M32.3,77.6c6.1-5.4,12.3-10.7,18.4-16.1c1.5-2.7,1.5-4.7,1.2-6.1c-1-4.4-5.7-6.2-5.2-9.1
		c0.1-0.8,0.7-1.8,2.5-2.9c1.2-0.2,2.4-0.2,3.7,0.2c3.3,1.1,3.9,4.2,7.6,6.3c1.5,0.8,3,1.2,4.2,1.4c1,0,2.3-0.1,3.7-0.5
		c1.2-0.3,2.3-0.8,3-1.2c3.1-1.4,4.2-4.2,3.4-5.6c-0.6-1-2.4-1.5-4.3-1.1"/>
</g>
</svg>
