<?xml version="1.0" encoding="utf-8"?>
<!-- Generator: Adobe Illustrator 19.0.0, SVG Export Plug-In . SVG Version: 6.00 Build 0)  -->
<svg version="1.1" id="Слой_1" xmlns="http://www.w3.org/2000/svg" xmlns:xlink="http://www.w3.org/1999/xlink" x="0px" y="0px"
	 viewBox="0 0 100 100" style="enable-background:new 0 0 100 100;" xml:space="preserve">
<style type="text/css">
	.st0{fill:#FCFBFA;stroke:#0F0F0F;stroke-miterlimit:10;}
	.st1{fill:#7284CC;stroke:#070707;stroke-width:0.5;stroke-miterlimit:10;}
	.st2{fill:#7284CC;}
	.st3{fill:#F4EFF2;}
	.st4{fill:#F7F2F5;stroke:#020202;stroke-width:0.5;stroke-miterlimit:10;}
	.st5{fill:none;stroke:#0C0B0C;stroke-miterlimit:10;}
</style>
<path id="XMLID_1_" class="st0" d="M85.9,95.3H13.5c-1.6,0-2.9-1.3-2.9-2.9V7.5c0-1.6,1.3-2.9,2.9-2.9h72.4c1.6,0,2.9,1.3,2.9,2.9
	v84.9C88.8,94,87.5,95.3,85.9,95.3z"/>
<rect id="XMLID_2_" x="15" y="26.7" class="st1" width="69.3" height="39.8"/>
<rect id="XMLID_3_" x="15.3" y="33.6" class="st2" width="68.7" height="5.9"/>
<rect id="XMLID_4_" x="15.3" y="39.4" class="st3" width="68.7" height="19.3"/>
<rect id="XMLID_5_" x="21.2" y="37.7" class="st4" width="17.2" height="22.1"/>
<path id="XMLID_6_" class="st5" d="M22.6,55.9c0-0.4,0.1-3.6,2.8-5.7c1.8-1.4,3.8-1.5,4.5-1.5c0.8,0,2.3,0,3.8,0.8
	c3.4,1.9,3.8,5.9,3.8,6.3"/>
<circle id="XMLID_7_" class="st5" cx="29.9" cy="43.8" r="4"/>
</svg>
