<?xml version="1.0" encoding="utf-8"?>
<!-- Generator: Adobe Illustrator 19.0.0, SVG Export Plug-In . SVG Version: 6.00 Build 0)  -->
<svg version="1.1" id="Слой_1" xmlns="http://www.w3.org/2000/svg" xmlns:xlink="http://www.w3.org/1999/xlink" x="0px" y="0px"
	 viewBox="0 0 100 100" style="enable-background:new 0 0 100 100;" xml:space="preserve">
<style type="text/css">
	.st0{fill:#FFFFFF;stroke:#201600;stroke-miterlimit:10;}
	.st1{font-family:'MyriadPro-Regular';}
	.st2{font-size:10px;}
	.st3{fill:none;stroke:#AE9381;stroke-miterlimit:10;}
</style>
<path id="XMLID_1_" class="st0" d="M84,95.6H15.8c-1.9,0-3.4-1.5-3.4-3.4V7.8c0-1.9,1.5-3.4,3.4-3.4H84c1.9,0,3.4,1.5,3.4,3.4v84.4
	C87.4,94.1,85.9,95.6,84,95.6z"/>
<rect id="XMLID_2_" x="16.6" y="32.5" class="st0" width="66.8" height="40.3"/>
<path id="XMLID_3_" class="st0" d="M79,71.1H21.8c-1.6,0-2.9-1.3-2.9-2.9V36.6c0-1.6,1.3-2.9,2.9-2.9H79c1.6,0,2.9,1.3,2.9,2.9v31.6
	C81.8,69.8,80.5,71.1,79,71.1z"/>
<text id="XMLID_4_" transform="matrix(1 0 0 1 20.0677 40.8242)" class="st1 st2">виза</text>
<g id="XMLID_5_">
	<path id="XMLID_6_" class="st3" d="M56,69.7c0.1-0.2,0.4-0.6,0.8-0.7c0.5-0.1,0.7,0.1,1.2,0c0.7-0.1,0.7-0.6,1.4-0.7
		c0.5-0.1,0.5,0.1,1,0c0.6-0.1,1.1-0.7,1.1-0.7c1-0.2,1.3-0.6,1.3-0.8c0.1-0.2,0-0.4-0.3-1.4c-0.5-1.2-0.6-1.5-0.5-1.6
		c0.1-0.1,0.4,0.1,1.6,0.5c0.6,0.2,0.9,0.3,1,0.5c0.1,0.3-0.1,0.4-0.1,0.8c0,0.3,0.1,0.8,0.4,0.9c0.8,0.4,3.6-1.6,3.3-3.1
		c-0.1-0.3-0.2-0.4-0.3-0.8c-0.1-0.7,0.1-1.3,0.4-1.9c1-2.1,0.1-0.3,1.1-2.5c0,0,0.5-1,1.4-2.8c1.1-0.5,1.4-1,1.5-1.5
		c0,0,0-0.1,0-1.2c0.5-0.5,0.9-1.1,0.7-1.6c-0.2-0.4-0.7-0.5-0.7-0.8c0-0.5,1.2-0.7,1.1-1.1c0-0.3-1-0.3-1.1-0.6
		c-0.1-0.4,1.3-0.9,1.1-1.3c-0.1-0.3-0.9-0.1-1.1-0.5c-0.4-0.6,0.9-1.7,0.6-2c-0.2-0.2-0.8,0.2-1.1,0c-0.6-0.4,0.6-2.5,0.2-2.7
		c-0.2-0.1-1,0.7-1.1,0.6c-0.1-0.1,0.4-0.7,0.4-1.6c0-0.7-0.4-1.5-0.9-1.6c-0.6-0.1-0.8,1.4-2.3,3.3c-0.4,0.5-1.2,1.5-2.5,2.5
		c-1.2,0.9-2.7,1.6-3.3,2.6c-0.3,0.5-0.3,1-0.2,1.2c0.1,0.2,0.2,0.5,0.2,0.5c0,0,0,0.1,0,0.1c0.3,0.4,0.5,0.6,0.5,0.8
		c0.1,0.3-0.4,0.8-0.9,0.8c-0.4,0-0.8-0.2-0.8-0.4c0-0.2,0.4-0.3,0.5-0.7c0.1-0.3-0.1-0.6-0.4-1.3c-0.4-0.9-0.6-1-0.7-1
		c-0.3-0.1-0.5,0.1-0.8,0.1c-0.4-0.1-0.5-1-0.3-1.6c0.3-0.6,1-1.1,1.6-1.1c0.5,0,0.7,0.4,1.3,0.4c0.4,0,0.4-0.2,1-0.3
		c0.7-0.1,0.8,0,1.2-0.1c0.5-0.2,0.8-0.7,0.8-0.8c-0.1-0.1-0.4,0.1-0.6-0.1c-0.2-0.1,0-0.5-0.1-0.9c-0.2-0.7-1-0.8-0.9-1.2
		c0-0.4,0.7-0.3,1.1-0.8c0.7-0.8-0.3-2.1,0.2-2.5c0.2-0.1,0.6,0,0.8,0.1c0.5,0.4,0.1,1.5,0,1.7c-0.2,0.4-0.3,0.5-0.4,0.9
		c0,0.3,0,0.9,0.3,1c0.3,0.1,0.4-0.3,1.2-0.5c0.4-0.1,0.6,0,0.8-0.2c0.3-0.2,0.5-0.7,0.4-0.9c-0.2-0.2-0.7,0-0.9-0.1
		c-0.1-0.2,0.6-0.6,0.6-1.2c0.1-0.8-1.1-1.8-2.4-1.9c-0.5-0.1-1.6,0-1.9,0.6c-0.4,0.7,0.6,1.4,0.2,2.3c-0.2,0.4-0.6,0.7-0.8,0.6
		c-0.2-0.1,0.2-0.7-0.1-1.1c-0.2-0.3-0.7-0.2-0.9-0.6c0-0.1,0-0.3-0.1-0.7c0-0.3,0-0.7,0-0.7l0,0c-0.2-0.1-0.4-0.2-0.5-0.3l0,0l0,0
		c-0.2,0-0.5,0-0.6,0.2c-0.2,0.4,0.4,1,0.1,1.3c-0.1,0.1-0.3,0-0.7,0.2c-0.1,0.1-0.4,0.2-0.5,0.4c-0.2,0.5,0.4,1,0.3,1.2
		c-0.2,0.3-2.3-0.6-2.3-1.4c0-0.4,0.5-0.5,0.8-1.2c0.1-0.2,0.3-0.9,0-1.3c-0.4-0.7-1.6-0.3-2-0.9c-0.1-0.3,0.1-0.5-0.1-1.1
		c-0.1-0.4-0.3-0.6-0.4-0.8"/>
	<path id="XMLID_7_" class="st3" d="M56,69.7c-0.1-0.2-0.4-0.6-0.8-0.7c-0.5-0.1-0.7,0.1-1.2,0c-0.7-0.1-0.7-0.6-1.4-0.7
		c-0.5-0.1-0.5,0.1-1,0c-0.6-0.1-1.1-0.7-1.1-0.7c-1-0.2-1.3-0.6-1.3-0.8c-0.1-0.2,0-0.4,0.3-1.4c0.5-1.2,0.6-1.5,0.5-1.6
		c-0.1-0.1-0.4,0.1-1.6,0.5c-0.6,0.2-0.9,0.3-1,0.5c-0.1,0.3,0.1,0.4,0.1,0.8c0,0.3-0.1,0.8-0.4,0.9c-0.8,0.4-3.6-1.6-3.3-3.1
		c0.1-0.3,0.2-0.4,0.3-0.8c0.1-0.7-0.1-1.3-0.4-1.9c-1-2.1-0.1-0.3-1.1-2.5c0,0-0.5-1-1.4-2.8c-1.1-0.5-1.4-1-1.5-1.5
		c0,0,0-0.1,0-1.2c-0.5-0.5-0.9-1.1-0.7-1.6c0.2-0.4,0.7-0.5,0.7-0.8c0-0.5-1.2-0.7-1.1-1.1c0-0.3,1-0.3,1.1-0.6
		c0.1-0.4-1.3-0.9-1.1-1.3c0.1-0.3,0.9-0.1,1.1-0.5c0.4-0.6-0.9-1.7-0.6-2c0.2-0.2,0.8,0.2,1.1,0c0.6-0.4-0.6-2.5-0.2-2.7
		c0.2-0.1,1,0.7,1.1,0.6c0.1-0.1-0.4-0.7-0.4-1.6c0-0.7,0.4-1.5,0.9-1.6c0.6-0.1,0.8,1.4,2.3,3.3c0.4,0.5,1.2,1.5,2.5,2.5
		c1.2,0.9,2.7,1.6,3.3,2.6c0.3,0.5,0.3,1,0.2,1.2c-0.1,0.2-0.2,0.5-0.2,0.5c0,0,0,0.1,0,0.1c-0.3,0.4-0.5,0.6-0.5,0.8
		c-0.1,0.3,0.4,0.8,0.9,0.8c0.4,0,0.8-0.2,0.8-0.4c0-0.2-0.4-0.3-0.5-0.7c-0.1-0.3,0.1-0.6,0.4-1.3c0.4-0.9,0.6-1,0.7-1
		c0.3-0.1,0.5,0.1,0.8,0.1c0.4-0.1,0.5-1,0.3-1.6c-0.3-0.6-1-1.1-1.6-1.1c-0.5,0-0.7,0.4-1.3,0.4c-0.4,0-0.4-0.2-1-0.3
		c-0.7-0.1-0.8,0-1.2-0.1c-0.5-0.2-0.8-0.7-0.8-0.8c0.1-0.1,0.4,0.1,0.6-0.1c0.2-0.1,0-0.5,0.1-0.9c0.2-0.7,1-0.8,0.9-1.2
		c0-0.4-0.7-0.3-1.1-0.8c-0.7-0.8,0.3-2.1-0.2-2.5c-0.2-0.1-0.6,0-0.8,0.1C45.5,40,46,41,46,41.2c0.2,0.4,0.3,0.5,0.4,0.9
		c0,0.3,0,0.9-0.3,1c-0.3,0.1-0.4-0.3-1.2-0.5c-0.4-0.1-0.6,0-0.8-0.2c-0.3-0.2-0.5-0.7-0.4-0.9c0.2-0.2,0.7,0,0.9-0.1
		c0.1-0.2-0.6-0.6-0.6-1.2c-0.1-0.8,1.1-1.8,2.4-1.9c0.5-0.1,1.6,0,1.9,0.6c0.4,0.7-0.6,1.4-0.2,2.3c0.2,0.4,0.6,0.7,0.8,0.6
		c0.2-0.1-0.2-0.7,0.1-1.1c0.2-0.3,0.7-0.2,0.9-0.6c0-0.1,0-0.3,0.1-0.7c0-0.3,0-0.7,0-0.7l0,0c0.2-0.1,0.4-0.2,0.5-0.3l0,0l0,0
		c0.2,0,0.5,0,0.6,0.2c0.2,0.4-0.4,1-0.1,1.3c0.1,0.1,0.3,0,0.7,0.2c0.1,0.1,0.4,0.2,0.5,0.4c0.2,0.5-0.4,1-0.3,1.2
		c0.2,0.3,2.3-0.6,2.3-1.4c0-0.4-0.5-0.5-0.8-1.2c-0.1-0.2-0.3-0.9,0-1.3c0.4-0.7,1.6-0.3,2-0.9c0.1-0.3-0.1-0.5,0.1-1.1
		c0.1-0.4,0.3-0.6,0.4-0.8"/>
</g>
</svg>
