<?xml version="1.0" encoding="utf-8"?>
<!-- Generator: Adobe Illustrator 19.0.0, SVG Export Plug-In . SVG Version: 6.00 Build 0)  -->
<svg version="1.1" id="Слой_1" xmlns="http://www.w3.org/2000/svg" xmlns:xlink="http://www.w3.org/1999/xlink" x="0px" y="0px"
	 viewBox="0 0 100 100" style="enable-background:new 0 0 100 100;" xml:space="preserve">
<style type="text/css">
	.st0{fill:#FCFBFA;stroke:#0F0F0F;stroke-miterlimit:10;}
	.st1{fill:none;stroke:#070707;stroke-width:0.5;stroke-miterlimit:10;}
	.st2{fill:none;stroke:#0F0F0F;stroke-width:0.5;stroke-miterlimit:10;}
</style>
<path id="XMLID_1_" class="st0" d="M86.6,95.3H14.2c-1.6,0-2.9-1.3-2.9-2.9V7.5c0-1.6,1.3-2.9,2.9-2.9h72.4c1.6,0,2.9,1.3,2.9,2.9
	v84.9C89.5,94,88.2,95.3,86.6,95.3z"/>
<rect x="31.8" y="19.9" class="st1" width="40.1" height="59.9"/>
<rect x="31.8" y="25.5" class="st2" width="40.1" height="3.5"/>
<line class="st2" x1="31.8" y1="64.4" x2="71.9" y2="64.4"/>
<g>
	<rect x="43.9" y="30.1" class="st2" width="2.1" height="2.1"/>
	<rect x="46.7" y="30.1" class="st2" width="2.1" height="2.1"/>
	<rect x="49.5" y="30.1" class="st2" width="2.1" height="2.1"/>
	<rect x="52.3" y="30.1" class="st2" width="2.1" height="2.1"/>
	<rect x="55.1" y="30.1" class="st2" width="2.1" height="2.1"/>
	<rect x="57.9" y="30.1" class="st2" width="2.1" height="2.1"/>
	<rect x="60.6" y="30.1" class="st2" width="2.1" height="2.1"/>
	<rect x="63.4" y="30.1" class="st2" width="2.1" height="2.1"/>
	<rect x="66.3" y="30.1" class="st2" width="2.1" height="2.1"/>
</g>
<g>
	<rect x="43.9" y="33.1" class="st2" width="2.1" height="2.1"/>
	<rect x="46.7" y="33.1" class="st2" width="2.1" height="2.1"/>
	<rect x="49.5" y="33.1" class="st2" width="2.1" height="2.1"/>
	<rect x="52.3" y="33.1" class="st2" width="2.1" height="2.1"/>
	<rect x="55.1" y="33.1" class="st2" width="2.1" height="2.1"/>
	<rect x="57.9" y="33.1" class="st2" width="2.1" height="2.1"/>
	<rect x="60.6" y="33.1" class="st2" width="2.1" height="2.1"/>
	<rect x="63.4" y="33.1" class="st2" width="2.1" height="2.1"/>
	<rect x="66.3" y="33.1" class="st2" width="2.1" height="2.1"/>
</g>
<g>
	<rect x="43.9" y="36" class="st2" width="2.1" height="2.1"/>
	<rect x="46.7" y="36" class="st2" width="2.1" height="2.1"/>
	<rect x="49.5" y="36" class="st2" width="2.1" height="2.1"/>
	<rect x="52.3" y="36" class="st2" width="2.1" height="2.1"/>
	<rect x="55.1" y="36" class="st2" width="2.1" height="2.1"/>
	<rect x="57.9" y="36" class="st2" width="2.1" height="2.1"/>
	<rect x="60.6" y="36" class="st2" width="2.1" height="2.1"/>
	<rect x="63.4" y="36" class="st2" width="2.1" height="2.1"/>
	<rect x="66.3" y="36" class="st2" width="2.1" height="2.1"/>
</g>
<g>
	<rect x="46.5" y="41.7" class="st2" width="2.1" height="2.1"/>
	<rect x="49.3" y="41.7" class="st2" width="2.1" height="2.1"/>
	<rect x="52.1" y="41.7" class="st2" width="2.1" height="2.1"/>
	<rect x="54.9" y="41.7" class="st2" width="2.1" height="2.1"/>
	<rect x="57.7" y="41.7" class="st2" width="2.1" height="2.1"/>
	<rect x="60.5" y="41.7" class="st2" width="2.1" height="2.1"/>
	<rect x="63.3" y="41.7" class="st2" width="2.1" height="2.1"/>
	<rect x="66.1" y="41.7" class="st2" width="2.1" height="2.1"/>
	<rect x="68.9" y="41.7" class="st2" width="2.1" height="2.1"/>
</g>
</svg>
