<?xml version="1.0" encoding="utf-8"?>
<!-- Generator: Adobe Illustrator 19.0.0, SVG Export Plug-In . SVG Version: 6.00 Build 0)  -->
<svg version="1.1" id="Слой_1" xmlns="http://www.w3.org/2000/svg" xmlns:xlink="http://www.w3.org/1999/xlink" x="0px" y="0px"
	 viewBox="0 0 100 100" style="enable-background:new 0 0 100 100;" xml:space="preserve">
<style type="text/css">
	.st0{fill:#FCFBFA;stroke:#070707;stroke-miterlimit:10;}
	.st1{fill:#070707;}
	.st2{fill:#F2F2F4;}
	.st3{fill:#0A0A0A;stroke:#070707;stroke-width:2;stroke-linecap:round;stroke-miterlimit:10;}
	.st4{fill:none;stroke:#070707;stroke-miterlimit:10;}
	.st5{fill:#F5F5F7;}
	.st6{fill:#F2F2F4;stroke:#070707;stroke-miterlimit:10;}
	.st7{fill:#F2F2F4;stroke:#070707;stroke-linecap:round;stroke-linejoin:round;stroke-miterlimit:10;}
</style>
<g id="XMLID_23_">
	<path id="XMLID_1_" class="st0" d="M85.9,95.8H13.5c-1.6,0-2.9-1.3-2.9-2.9V8c0-1.6,1.3-2.9,2.9-2.9h72.4c1.6,0,2.9,1.3,2.9,2.9
		v84.9C88.8,94.5,87.5,95.8,85.9,95.8z"/>
	<path id="XMLID_7_" class="st1" d="M61.4,74.9H40.8c-3,0-5.4-2.4-5.4-5.4V55.3c0-3,2.4-5.4,5.4-5.4h20.6c3,0,5.4,2.4,5.4,5.4v14.3
		C66.8,72.5,64.4,74.9,61.4,74.9z"/>
	<rect id="XMLID_8_" x="40.6" y="55.7" class="st2" width="8.4" height="4.8"/>
	<rect id="XMLID_9_" x="53.5" y="55.7" class="st2" width="8.4" height="4.8"/>
	<circle id="XMLID_10_" class="st2" cx="43.1" cy="68.2" r="2.5"/>
	<circle id="XMLID_11_" class="st2" cx="58.9" cy="68.2" r="2.5"/>
	<line id="XMLID_13_" class="st3" x1="40.6" y1="73.1" x2="34.5" y2="85.5"/>
	<line id="XMLID_12_" class="st3" x1="61.4" y1="73.1" x2="67.5" y2="85.5"/>
	<polygon id="XMLID_2_" class="st4" points="55.3,44.3 51.1,49.9 47,44.3 49.1,42 53.5,42 	"/>
	<path id="XMLID_3_" class="st1" d="M58.3,26.4c0,0.5,0,1.8-0.6,3.4c-1,2.4-3.6,5-6.7,5c-4,0-7.3-4.2-7.3-8.4c0-4.6,3.3-8.4,7.3-8.4
		S58.3,21.8,58.3,26.4z"/>
	<polygon id="XMLID_4_" class="st5" points="46,24.4 49.7,24.4 49.7,22.4 47.2,22.4 	"/>
	<polygon id="XMLID_5_" class="st5" points="55.7,24.4 52,24.4 52,22.4 54.5,22.4 	"/>
	<circle id="XMLID_6_" class="st5" cx="51" cy="27.8" r="0.6"/>
	<circle id="XMLID_14_" class="st5" cx="48.4" cy="27.3" r="0.6"/>
	<circle id="XMLID_15_" class="st5" cx="45.7" cy="26.4" r="0.6"/>
	<circle id="XMLID_16_" class="st5" cx="53.5" cy="27.3" r="0.6"/>
	<circle id="XMLID_17_" class="st5" cx="55.7" cy="26.4" r="0.6"/>
	<path id="XMLID_18_" class="st1" d="M57.9,29.3c3.1,0.2,6.3,0.4,9.7,0.4c4.5,0,8.8-0.1,12.8-0.4c0.5-0.1,0.9,0.3,0.9,0.7
		c0,0.4-0.4,0.8-0.9,0.7c-1.7,0.3-3.9,0.7-6.7,1.1c-2.6,0.4-5.1,0.7-8.3,0.9c-2.4,0.2-5.7,0.3-9.7,0C56.4,31.5,57.1,30.4,57.9,29.3z
		"/>
	<path id="XMLID_19_" class="st1" d="M69.8,47.8"/>
	<path id="XMLID_20_" class="st1" d="M45.7,29.3c-3.1,0.2-6.3,0.4-9.7,0.4c-4.5,0-8.8-0.1-12.7-0.4c-0.5-0.1-0.9,0.3-0.9,0.7
		c0,0.4,0.4,0.8,0.9,0.7c1.7,0.3,3.9,0.7,6.7,1.1c2.6,0.4,5.1,0.7,8.2,0.9c2.4,0.2,5.7,0.3,9.7,0C47.1,31.5,46.4,30.4,45.7,29.3z"/>
	<circle id="XMLID_21_" class="st6" cx="65.6" cy="32.9" r="2.8"/>
	<circle id="XMLID_22_" class="st6" cx="37.4" cy="32.9" r="2.8"/>
	<polygon id="XMLID_24_" class="st7" points="49,18.3 51,11 52.9,18.3 	"/>
	<line id="XMLID_25_" class="st7" x1="44.3" y1="18" x2="57.8" y2="18.3"/>
</g>
</svg>
