<?xml version="1.0" encoding="utf-8"?>
<!-- Generator: Adobe Illustrator 19.0.0, SVG Export Plug-In . SVG Version: 6.00 Build 0)  -->
<svg version="1.1" id="Слой_1" xmlns="http://www.w3.org/2000/svg" xmlns:xlink="http://www.w3.org/1999/xlink" x="0px" y="0px"
	 viewBox="0 0 100 100" style="enable-background:new 0 0 100 100;" xml:space="preserve">
<style type="text/css">
	.st0{fill:#FCFBFA;stroke:#0F0F0F;stroke-miterlimit:10;}
	.st1{fill:#061989;}
	.st2{fill:#DEE25A;}
	.st3{font-family:'MyriadPro-Regular';}
	.st4{font-size:6px;}
</style>
<path id="XMLID_1_" class="st0" d="M85.9,95.3H13.5c-1.6,0-2.9-1.3-2.9-2.9V7.5c0-1.6,1.3-2.9,2.9-2.9h72.4c1.6,0,2.9,1.3,2.9,2.9
	v84.9C88.8,94,87.5,95.3,85.9,95.3z"/>
<path id="XMLID_2_" class="st1" d="M79.9,64.4H20.2c-1.1,0-2.1-0.9-2.1-2.1V33.9c0-1.1,0.9-2.1,2.1-2.1h59.7c1.1,0,2.1,0.9,2.1,2.1
	v28.4C81.9,63.5,81,64.4,79.9,64.4z"/>
<text id="XMLID_3_" transform="matrix(1 0 0 1 32.276 40.276)" class="st2 st3 st4">студенческий</text>
<g id="XMLID_4_">
	<text id="XMLID_19_" transform="matrix(1 0 0 1 42.6206 46.1377)" class="st2 st3 st4">билет</text>
</g>
</svg>
