<?xml version="1.0" encoding="utf-8"?>
<!-- Generator: Adobe Illustrator 19.0.0, SVG Export Plug-In . SVG Version: 6.00 Build 0)  -->
<svg version="1.1" id="Слой_1" xmlns="http://www.w3.org/2000/svg" xmlns:xlink="http://www.w3.org/1999/xlink" x="0px" y="0px"
	 viewBox="0 0 100 100" style="enable-background:new 0 0 100 100;" xml:space="preserve">
<style type="text/css">
	.st0{fill:#CE3838;}
	.st1{fill:none;stroke:#EDE83A;stroke-miterlimit:10;}
	.st2{fill:#EDE83A;}
</style>
<path id="XMLID_1_" class="st0" d="M86.6,98.2H13.2c-2.1,0-3.9-1.7-3.9-3.9V6c0-2.1,1.7-3.9,3.9-3.9h73.4c2.1,0,3.9,1.7,3.9,3.9
	v88.3C90.5,96.4,88.8,98.2,86.6,98.2z"/>
<path id="XMLID_2_" class="st1" d="M82.5,92.8H17.6c-1.4,0-2.6-1.2-2.6-2.6V9.8c0-1.4,1.2-2.6,2.6-2.6h64.9c1.4,0,2.6,1.2,2.6,2.6
	v80.4C85.2,91.6,84,92.8,82.5,92.8z"/>
<ellipse id="XMLID_3_" class="st1" cx="50.3" cy="48" rx="30.4" ry="32.4"/>
<ellipse id="XMLID_4_" class="st2" cx="49.9" cy="86" rx="2.3" ry="2.5"/>
<path id="XMLID_5_" class="st2" d="M51.8,83.5h4.7v5.1h-4.7c0.9-0.5,1.5-1.5,1.5-2.5C53.2,84.9,52.7,84,51.8,83.5z"/>
<path id="XMLID_6_" class="st2" d="M48,83.5h-4.7l0,5.1H48c-0.9-0.5-1.5-1.5-1.5-2.5C46.5,84.9,47.1,84,48,83.5z"/>
</svg>
