<?xml version="1.0" encoding="utf-8"?>
<!-- Generator: Adobe Illustrator 19.0.0, SVG Export Plug-In . SVG Version: 6.00 Build 0)  -->
<svg version="1.1" id="Слой_1" xmlns="http://www.w3.org/2000/svg" xmlns:xlink="http://www.w3.org/1999/xlink" x="0px" y="0px"
	 viewBox="0 0 100 100" style="enable-background:new 0 0 100 100;" xml:space="preserve">
<style type="text/css">
	.st0{fill:#F4EDED;stroke:#201600;stroke-miterlimit:10;}
	.st1{fill:#201600;}
	.st2{fill:#F4EDED;stroke:#201600;stroke-width:0.5;stroke-miterlimit:10;}
</style>
<path id="XMLID_1_" class="st0" d="M84,95.6H15.8c-1.9,0-3.4-1.5-3.4-3.4V7.8c0-1.9,1.5-3.4,3.4-3.4H84c1.9,0,3.4,1.5,3.4,3.4v84.4
	C87.4,94.1,85.9,95.6,84,95.6z"/>
<line id="XMLID_3_" class="st0" x1="18.5" y1="24.7" x2="77.9" y2="24.7"/>
<line id="XMLID_2_" class="st0" x1="18.5" y1="31.9" x2="77.9" y2="31.9"/>
<line id="XMLID_4_" class="st0" x1="18.5" y1="38.5" x2="77.9" y2="38.5"/>
<line id="XMLID_5_" class="st0" x1="18.5" y1="45.1" x2="77.9" y2="45.1"/>
<line id="XMLID_7_" class="st0" x1="18.5" y1="84.3" x2="38.2" y2="84.3"/>
<path id="XMLID_6_" class="st0" d="M44.1,85c0.5-2.5,1.7-6.3,4.7-10c1.3-1.6,4.4-5.3,6.4-4.6c2.6,0.9,3.5,9.2,0.2,11
	c-1.9,1-5.2,0-5.6-1.5c-0.6-2.2,4-7.1,8.5-5.9c4.5,1.1,5.9,7.7,4.9,8.5c-0.9,0.7-5.3-2.3-4.9-4.2c0.2-0.9,1.4-1.4,3.7-2
	c2.9-0.8,7.1-1.6,12.7-1.5"/>
<path id="XMLID_9_" class="st1" d="M75.5,74.5c-0.4-0.9-0.8-1.8-1.2-2.7l3.1,0.7C76.8,73.1,76.1,73.8,75.5,74.5z"/>
<rect id="XMLID_8_" x="75.5" y="60.8" transform="matrix(0.9778 0.2094 -0.2094 0.9778 15.5886 -14.6806)" class="st1" width="3.2" height="11"/>
<rect id="XMLID_10_" x="76.9" y="51.9" transform="matrix(0.9778 0.2094 -0.2094 0.9778 13.5376 -15.3522)" class="st1" width="4.8" height="8.7"/>
<path id="XMLID_11_" class="st2" d="M82.9,53.5c0.1,0,1.1,0.4,1.2,1.4c0.2,0.8-0.4,1.5-0.5,1.7c-0.5,0.7-1,0.6-1.3,1.1
	c-0.2,0.4-0.3,1,0.4,2.3"/>
</svg>
