<?xml version="1.0" encoding="utf-8"?>
<!-- Generator: Adobe Illustrator 19.0.0, SVG Export Plug-In . SVG Version: 6.00 Build 0)  -->
<svg version="1.1" id="Слой_1" xmlns="http://www.w3.org/2000/svg" xmlns:xlink="http://www.w3.org/1999/xlink" x="0px" y="0px"
	 viewBox="0 0 100 100" style="enable-background:new 0 0 100 100;" xml:space="preserve">
<style type="text/css">
	.st0{fill:#FCFBFA;stroke:#0F0F0F;stroke-miterlimit:10;}
	.st1{font-family:'MyriadPro-Regular';}
	.st2{font-size:10px;}
	.st3{fill:none;stroke:#000000;stroke-miterlimit:10;}
	.st4{fill:none;stroke:#2C63DD;stroke-miterlimit:10;}
	.st5{fill:#0F0F0F;stroke:#FCFBFA;stroke-miterlimit:10;}
</style>
<path id="XMLID_1_" class="st0" d="M85.9,95.3H13.5c-1.6,0-2.9-1.3-2.9-2.9V7.5c0-1.6,1.3-2.9,2.9-2.9h72.4c1.6,0,2.9,1.3,2.9,2.9
	v84.9C88.8,94,87.5,95.3,85.9,95.3z"/>
<text id="XMLID_2_" transform="matrix(1 0 0 1 30.8965 29.9312)" class="st1 st2">Справка</text>
<line id="XMLID_4_" class="st3" x1="23.5" y1="18.6" x2="73.5" y2="18.6"/>
<line id="XMLID_5_" class="st3" x1="33.7" y1="9.1" x2="63.1" y2="9.1"/>
<circle id="XMLID_3_" class="st4" cx="53.5" cy="78" r="10.9"/>
<circle id="XMLID_6_" class="st4" cx="53.5" cy="78" r="9.6"/>
<polygon id="XMLID_7_" points="34.8,44.5 48.3,50 61,44.5 47.9,39.3 "/>
<path id="XMLID_9_" class="st5" d="M38.8,47l9.7,4.2L58,47V55c-2.3,0.7-5.5,1.3-9.4,1.4c-4,0-7.4-0.7-9.7-1.4
	C38.8,52.3,38.8,49.6,38.8,47z"/>
</svg>
