<?xml version="1.0" encoding="utf-8"?>
<!-- Generator: Adobe Illustrator 19.0.0, SVG Export Plug-In . SVG Version: 6.00 Build 0)  -->
<svg version="1.1" id="Слой_1" xmlns="http://www.w3.org/2000/svg" xmlns:xlink="http://www.w3.org/1999/xlink" x="0px" y="0px"
	 viewBox="0 0 100 100" style="enable-background:new 0 0 100 100;" xml:space="preserve">
<style type="text/css">
	.st0{fill:#FCFBFA;stroke:#0F0F0F;stroke-miterlimit:10;}
	.st1{font-family:'MyriadPro-Regular';}
	.st2{font-size:10px;}
	.st3{fill:none;stroke:#000000;stroke-miterlimit:10;}
	.st4{fill:none;stroke:#2C63DD;stroke-miterlimit:10;}
	.st5{fill:#0A0A0A;}
</style>
<path id="XMLID_1_" class="st0" d="M85.9,95.3H13.5c-1.6,0-2.9-1.3-2.9-2.9V7.5c0-1.6,1.3-2.9,2.9-2.9h72.4c1.6,0,2.9,1.3,2.9,2.9
	v84.9C88.8,94,87.5,95.3,85.9,95.3z"/>
<text id="XMLID_2_" transform="matrix(1 0 0 1 30.8965 29.9312)" class="st1 st2">Справка</text>
<line id="XMLID_4_" class="st3" x1="23.5" y1="18.6" x2="73.5" y2="18.6"/>
<line id="XMLID_5_" class="st3" x1="33.7" y1="9.1" x2="63.1" y2="9.1"/>
<circle id="XMLID_3_" class="st4" cx="53.5" cy="78" r="10.9"/>
<circle id="XMLID_6_" class="st4" cx="53.5" cy="78" r="9.6"/>
<path class="st5" d="M48.4,54.2c3.3,3.3,6.6,6.5,9.8,9.8c0.1,0.1,0.4,0.2,0.7,0.3c0.5,0.1,0.9-0.3,2.3-1.5c0.8-0.7,1-0.8,1.1-1.1
	c0.2-0.6,0.1-1.1,0-1.5l-9.9-10l5.7-5.8h1.4l1.3,2.2c0.9,2.4,1.5,4,1.6,4.7c0,0.1,0.1,0.5,0.4,0.7c0.4,0.2,0.9-0.1,1.1-0.1
	c1.3-0.7,1.5-3.9,1.4-6c-0.1-1.3-0.2-2.9-1.3-4.8c-0.6-1.1-1.3-1.9-1.8-2.4l-6.1-6.3h-0.7l-5.7,5.3l0.2,0.9l1.2,1.3l1.6,0.6h0.5
	l0.6,1.1l-5.1,4.9l-6.9-6.8l4-4l-4.4-4.5c-3.3,3.3-6.6,6.6-9.8,9.8c0,1.2-0.1,2.2-0.1,2.9c0,0.3-0.2,2.3-0.1,4.6
	c0,0.3,0.1,0.8,0.3,0.9c0.4,0.2,1.2-0.9,1.4-1.1l4.7-4.7l6.9,6.9c-5.7,5.9-8.7,8.9-9.4,9.4c-0.1,0.1-0.4,0.3-0.6,0.7
	c-0.4,0.8,0,1.6,0.1,1.8c0.1,0.1,0.6,1.3,1.8,1.6c1.2,0.3,2.7-0.4,3.4-1.7L48.4,54.2z"/>
</svg>
