<?xml version="1.0" encoding="utf-8"?>
<!-- Generator: Adobe Illustrator 19.0.0, SVG Export Plug-In . SVG Version: 6.00 Build 0)  -->
<svg version="1.1" id="Слой_1" xmlns="http://www.w3.org/2000/svg" xmlns:xlink="http://www.w3.org/1999/xlink" x="0px" y="0px"
	 viewBox="0 0 100 100" style="enable-background:new 0 0 100 100;" xml:space="preserve">
<style type="text/css">
	.st0{fill:#F4EDED;stroke:#201600;stroke-miterlimit:10;}
	.st1{fill:none;stroke:#201600;stroke-miterlimit:10;}
	.st2{fill:none;stroke:#201600;stroke-linecap:round;stroke-miterlimit:10;}
</style>
<path id="XMLID_1_" class="st0" d="M84,95.6H15.8c-1.9,0-3.4-1.5-3.4-3.4V7.8c0-1.9,1.5-3.4,3.4-3.4H84c1.9,0,3.4,1.5,3.4,3.4v84.4
	C87.4,94.1,85.9,95.6,84,95.6z"/>
<path id="XMLID_2_" class="st1" d="M79.5,32.2h-14c-1.3,0-2.4-1.1-2.4-2.4V10.4C63,9.1,64.1,8,65.4,8h14c1.3,0,2.4,1.1,2.4,2.4v19.5
	C81.8,31.1,80.8,32.2,79.5,32.2z"/>
<line id="XMLID_4_" class="st2" x1="28.5" y1="72.5" x2="76.1" y2="72.5"/>
<line id="XMLID_3_" class="st2" x1="28.5" y1="60.6" x2="76.1" y2="60.6"/>
<line id="XMLID_5_" class="st2" x1="28.5" y1="50" x2="76.1" y2="50"/>
</svg>
