<?xml version="1.0" encoding="utf-8"?>
<!-- Generator: Adobe Illustrator 19.0.0, SVG Export Plug-In . SVG Version: 6.00 Build 0)  -->
<svg version="1.1" id="Слой_1" xmlns="http://www.w3.org/2000/svg" xmlns:xlink="http://www.w3.org/1999/xlink" x="0px" y="0px"
	 viewBox="0 0 100 100" style="enable-background:new 0 0 100 100;" xml:space="preserve">
<style type="text/css">
	.st0{fill:#1A3163;}
	.st1{fill:none;stroke:#F9F9F9;stroke-miterlimit:10;}
	.st2{fill:#F7F8F9;}
	.st3{font-family:'MyriadPro-Regular';}
	.st4{font-size:6px;}
	.st5{fill:#F9F9F9;}
	.st6{font-size:5.4713px;}
</style>
<path id="XMLID_1_" class="st0" d="M85.9,95.3H13.5c-1.6,0-2.9-1.3-2.9-2.9V7.5c0-1.6,1.3-2.9,2.9-2.9h72.4c1.6,0,2.9,1.3,2.9,2.9
	v84.9C88.8,94,87.5,95.3,85.9,95.3z"/>
<path id="XMLID_2_" class="st1" d="M69.9,66.3c-2.7-0.2-6.3-0.4-11.2-0.7c-3.7-0.2-6-0.3-7.6,1.2c-1.1,1-1.5,2.3-2.4,2.2
	c-0.9-0.1-1.1-1.6-2.2-2.6c-1.5-1.3-3.7-1-6-0.7c-2.5,0.3-6,0.6-10.5,0.7c0-13,0-26,0-39h40V66.3z"/>
<text id="XMLID_3_" transform="matrix(1 0 0 1 35.3792 14.5864)"><tspan x="0" y="0" class="st2 st3 st4">Российская</tspan><tspan x="0" y="7.2" class="st2 st3 st4">Федерация</tspan></text>
<text id="XMLID_4_" transform="matrix(1.0966 0 0 1 26.0692 79.4896)" class="st5 st3 st6">Вид на жительство</text>
<text id="XMLID_5_" transform="matrix(1 0 0 1 31.5862 84.2411)" class="st5 st3 st4">иностранного</text>
<text id="XMLID_6_" transform="matrix(1 0 0 1 34.1722 89.0691)" class="st5 st3 st4">гражданина</text>
</svg>
